<?xml version="1.0" encoding="UTF-8"?>
<!DOCTYPE svg PUBLIC "-//W3C//DTD SVG 1.1//EN" "http://www.w3.org/Graphics/SVG/1.1/DTD/svg11.dtd">
<svg xmlns="http://www.w3.org/2000/svg" version="1.1" width="156px" height="43px" style="shape-rendering:geometricPrecision; text-rendering:geometricPrecision; image-rendering:optimizeQuality; fill-rule:evenodd; clip-rule:evenodd" xmlns:xlink="http://www.w3.org/1999/xlink">
<g><path style="opacity:0.995" fill="#a180c1" d="M -0.5,-0.5 C 51.5,-0.5 103.5,-0.5 155.5,-0.5C 155.5,0.5 155.5,1.5 155.5,2.5C 103.572,1.50477 51.5717,1.17143 -0.5,1.5C -0.5,0.833333 -0.5,0.166667 -0.5,-0.5 Z"/></g>
<g><path style="opacity:1" fill="#a987cb" d="M -0.5,1.5 C 51.5717,1.17143 103.572,1.50477 155.5,2.5C 155.5,2.83333 155.5,3.16667 155.5,3.5C 154.833,3.5 154.167,3.5 153.5,3.5C 102.264,2.16975 50.931,2.16975 -0.5,3.5C -0.5,2.83333 -0.5,2.16667 -0.5,1.5 Z"/></g>
<g><path style="opacity:1" fill="#b48fd7" d="M 153.5,3.5 C 102.664,3.16778 51.9973,3.50111 1.5,4.5C 0.833333,4.83333 0.166667,5.16667 -0.5,5.5C -0.5,4.83333 -0.5,4.16667 -0.5,3.5C 50.931,2.16975 102.264,2.16975 153.5,3.5 Z"/></g>
<g><path style="opacity:1" fill="#bf98e5" d="M 1.5,4.5 C 51.9973,3.50111 102.664,3.16778 153.5,3.5C 153.833,4.5 154.5,5.16667 155.5,5.5C 155.5,17.8333 155.5,30.1667 155.5,42.5C 154.833,42.5 154.167,42.5 153.5,42.5C 153.829,29.9887 153.495,17.6554 152.5,5.5C 102.336,4.50112 52.0028,4.16779 1.5,4.5 Z"/></g>
<g><path style="opacity:0.251" fill="#b18dd6" d="M 153.5,3.5 C 154.167,3.5 154.833,3.5 155.5,3.5C 155.5,4.16667 155.5,4.83333 155.5,5.5C 154.5,5.16667 153.833,4.5 153.5,3.5 Z"/></g>
<g><path style="opacity:1" fill="#c8a0f0" d="M 1.5,4.5 C 52.0028,4.16779 102.336,4.50112 152.5,5.5C 102.167,5.5 51.8333,5.5 1.5,5.5C 1.5,17.8333 1.5,30.1667 1.5,42.5C 0.833333,42.5 0.166667,42.5 -0.5,42.5C -0.5,30.1667 -0.5,17.8333 -0.5,5.5C 0.166667,5.16667 0.833333,4.83333 1.5,4.5 Z"/></g>
<g><path style="opacity:1" fill="#d0a6f9" d="M 152.5,5.5 C 153.495,17.6554 153.829,29.9887 153.5,42.5C 152.833,42.5 152.167,42.5 151.5,42.5C 151.5,30.5 151.5,18.5 151.5,6.5C 101.833,6.5 52.1667,6.5 2.5,6.5C 2.5,18.5 2.5,30.5 2.5,42.5C 2.16667,42.5 1.83333,42.5 1.5,42.5C 1.5,30.1667 1.5,17.8333 1.5,5.5C 51.8333,5.5 102.167,5.5 152.5,5.5 Z"/></g>
<g><path style="opacity:0.996" fill="#d4a9fe" d="M 151.5,42.5 C 101.833,42.5 52.1667,42.5 2.5,42.5C 2.5,30.5 2.5,18.5 2.5,6.5C 52.1667,6.5 101.833,6.5 151.5,6.5C 151.5,18.5 151.5,30.5 151.5,42.5 Z"/></g>
</svg>
