<?xml version="1.0" encoding="UTF-8"?>
<!DOCTYPE svg PUBLIC "-//W3C//DTD SVG 1.1//EN" "http://www.w3.org/Graphics/SVG/1.1/DTD/svg11.dtd">
<svg xmlns="http://www.w3.org/2000/svg" version="1.1" width="155px" height="43px" style="shape-rendering:geometricPrecision; text-rendering:geometricPrecision; image-rendering:optimizeQuality; fill-rule:evenodd; clip-rule:evenodd" xmlns:xlink="http://www.w3.org/1999/xlink">
<g><path style="opacity:1" fill="#c4c4c4" d="M -0.5,-0.5 C 51.1667,-0.5 102.833,-0.5 154.5,-0.5C 154.5,0.5 154.5,1.5 154.5,2.5C 102.833,2.5 51.1667,2.5 -0.5,2.5C -0.5,1.5 -0.5,0.5 -0.5,-0.5 Z"/></g>
<g><path style="opacity:1" fill="#d7d7d7" d="M -0.5,2.5 C 51.1667,2.5 102.833,2.5 154.5,2.5C 154.5,3.16667 154.5,3.83333 154.5,4.5C 153.833,4.5 153.167,4.5 152.5,4.5C 101.598,3.16977 50.5977,3.16977 -0.5,4.5C -0.5,3.83333 -0.5,3.16667 -0.5,2.5 Z"/></g>
<g><path style="opacity:1" fill="#e6e6e6" d="M 152.5,4.5 C 102.166,4.33334 51.8322,4.50001 1.5,5C 0.51119,17.42 0.177856,29.92 0.5,42.5C 0.166667,42.5 -0.166667,42.5 -0.5,42.5C -0.5,29.8333 -0.5,17.1667 -0.5,4.5C 50.5977,3.16977 101.598,3.16977 152.5,4.5 Z"/></g>
<g><path style="opacity:1" fill="#f0f0f0" d="M 152.5,4.5 C 153.167,4.5 153.833,4.5 154.5,4.5C 154.5,17.1667 154.5,29.8333 154.5,42.5C 153.833,42.5 153.167,42.5 152.5,42.5C 152.822,30.253 152.488,18.0864 151.5,6C 101.83,5.16671 52.1633,5.33338 2.5,6.5C 1.52052,18.4494 1.18718,30.4494 1.5,42.5C 1.16667,42.5 0.833333,42.5 0.5,42.5C 0.177856,29.92 0.51119,17.42 1.5,5C 51.8322,4.50001 102.166,4.33334 152.5,4.5 Z"/></g>
<g><path style="opacity:0.997" fill="#fefefe" d="M 152.5,42.5 C 102.167,42.5 51.8333,42.5 1.5,42.5C 1.18718,30.4494 1.52052,18.4494 2.5,6.5C 52.1633,5.33338 101.83,5.16671 151.5,6C 152.488,18.0864 152.822,30.253 152.5,42.5 Z"/></g>
</svg>
