<?xml version="1.0" encoding="UTF-8"?>
<!DOCTYPE svg PUBLIC "-//W3C//DTD SVG 1.1//EN" "http://www.w3.org/Graphics/SVG/1.1/DTD/svg11.dtd">
<svg xmlns="http://www.w3.org/2000/svg" version="1.1" width="63px" height="25px" style="shape-rendering:geometricPrecision; text-rendering:geometricPrecision; image-rendering:optimizeQuality; fill-rule:evenodd; clip-rule:evenodd" xmlns:xlink="http://www.w3.org/1999/xlink">
<g><path style="opacity:0.975" fill="#828281" d="M 0.5,-0.5 C 20.8333,-0.5 41.1667,-0.5 61.5,-0.5C 61.5,0.166667 61.8333,0.5 62.5,0.5C 62.5,8.16667 62.5,15.8333 62.5,23.5C 61.8333,23.5 61.5,23.8333 61.5,24.5C 41.1667,24.5 20.8333,24.5 0.5,24.5C 0.5,23.8333 0.166667,23.5 -0.5,23.5C -0.5,15.8333 -0.5,8.16667 -0.5,0.5C 0.166667,0.5 0.5,0.166667 0.5,-0.5 Z"/></g>
<g><path style="opacity:1" fill="#fefefe" d="M 1.5,0.5 C 21.1695,0.333381 40.8362,0.500048 60.5,1C 61.6456,8.08623 61.8123,15.2529 61,22.5C 41.2399,23.6592 21.4065,23.8259 1.5,23C 0.182522,15.5002 0.182522,8.00019 1.5,0.5 Z"/></g>
</svg>
