<?xml version="1.0" encoding="UTF-8"?>
<!DOCTYPE svg PUBLIC "-//W3C//DTD SVG 1.1//EN" "http://www.w3.org/Graphics/SVG/1.1/DTD/svg11.dtd">
<svg xmlns="http://www.w3.org/2000/svg" version="1.1" width="24px" height="30px" style="shape-rendering:geometricPrecision; text-rendering:geometricPrecision; image-rendering:optimizeQuality; fill-rule:evenodd; clip-rule:evenodd" xmlns:xlink="http://www.w3.org/1999/xlink">
<g><path style="opacity:1" fill="#c2dcf8" d="M -0.5,-0.5 C 7.5,-0.5 15.5,-0.5 23.5,-0.5C 23.5,9.5 23.5,19.5 23.5,29.5C 19.5,29.5 15.5,29.5 11.5,29.5C 14.5,20.1667 17.5,10.8333 20.5,1.5C 15.1667,1.5 9.83333,1.5 4.5,1.5C 4.5,2.5 4.5,3.5 4.5,4.5C 8.5,4.5 12.5,4.5 16.5,4.5C 13.7006,12.8978 10.7006,21.2311 7.5,29.5C 4.83333,29.5 2.16667,29.5 -0.5,29.5C -0.5,19.5 -0.5,9.5 -0.5,-0.5 Z"/></g>
<g><path style="opacity:1" fill="#16181a" d="M 11.5,29.5 C 10.1667,29.5 8.83333,29.5 7.5,29.5C 10.7006,21.2311 13.7006,12.8978 16.5,4.5C 12.5,4.5 8.5,4.5 4.5,4.5C 4.5,3.5 4.5,2.5 4.5,1.5C 9.83333,1.5 15.1667,1.5 20.5,1.5C 17.5,10.8333 14.5,20.1667 11.5,29.5 Z"/></g>
</svg>
