<?xml version="1.0" encoding="UTF-8"?>
<!DOCTYPE svg PUBLIC "-//W3C//DTD SVG 1.1//EN" "http://www.w3.org/Graphics/SVG/1.1/DTD/svg11.dtd">
<svg xmlns="http://www.w3.org/2000/svg" version="1.1" width="16px" height="17px" style="shape-rendering:geometricPrecision; text-rendering:geometricPrecision; image-rendering:optimizeQuality; fill-rule:evenodd; clip-rule:evenodd" xmlns:xlink="http://www.w3.org/1999/xlink">
<g><path style="opacity:1" fill="#f1f1f1" d="M -0.5,-0.5 C 4.83333,-0.5 10.1667,-0.5 15.5,-0.5C 15.5,5.16667 15.5,10.8333 15.5,16.5C 14.8333,16.5 14.1667,16.5 13.5,16.5C 13.2317,13.8806 13.565,11.3806 14.5,9C 12.6499,6.98239 10.6499,5.14905 8.5,3.5C 5.39858,5.09843 2.73192,7.2651 0.5,10C 2.25001,11.7542 2.91668,13.9208 2.5,16.5C 1.5,16.5 0.5,16.5 -0.5,16.5C -0.5,10.8333 -0.5,5.16667 -0.5,-0.5 Z"/></g>
<g><path style="opacity:1" fill="#121212" d="M 13.5,16.5 C 12.1667,16.5 10.8333,16.5 9.5,16.5C 9.5,14.8333 9.5,13.1667 9.5,11.5C 8.5,11.5 7.5,11.5 6.5,11.5C 6.5,13.1667 6.5,14.8333 6.5,16.5C 5.16667,16.5 3.83333,16.5 2.5,16.5C 2.91668,13.9208 2.25001,11.7542 0.5,10C 2.73192,7.2651 5.39858,5.09843 8.5,3.5C 10.6499,5.14905 12.6499,6.98239 14.5,9C 13.565,11.3806 13.2317,13.8806 13.5,16.5 Z"/></g>
<g><path style="opacity:1" fill="#e9e9e9" d="M 9.5,16.5 C 8.5,16.5 7.5,16.5 6.5,16.5C 6.5,14.8333 6.5,13.1667 6.5,11.5C 7.5,11.5 8.5,11.5 9.5,11.5C 9.5,13.1667 9.5,14.8333 9.5,16.5 Z"/></g>
</svg>
