<?xml version="1.0" encoding="UTF-8"?>
<!DOCTYPE svg PUBLIC "-//W3C//DTD SVG 1.1//EN" "http://www.w3.org/Graphics/SVG/1.1/DTD/svg11.dtd">
<svg xmlns="http://www.w3.org/2000/svg" version="1.1" width="25px" height="26px" style="shape-rendering:geometricPrecision; text-rendering:geometricPrecision; image-rendering:optimizeQuality; fill-rule:evenodd; clip-rule:evenodd" xmlns:xlink="http://www.w3.org/1999/xlink">
<g><path style="opacity:1" fill="#c1dcf7" d="M -0.5,-0.5 C 7.83333,-0.5 16.1667,-0.5 24.5,-0.5C 24.5,8.16667 24.5,16.8333 24.5,25.5C 21.1667,25.5 17.8333,25.5 14.5,25.5C 16.0781,23.6824 15.5781,22.6824 13,22.5C 10.4219,22.6824 9.92192,23.6824 11.5,25.5C 7.5,25.5 3.5,25.5 -0.5,25.5C -0.5,16.8333 -0.5,8.16667 -0.5,-0.5 Z"/></g>
<g><path style="opacity:1" fill="#131416" d="M 11.5,2.5 C 12.5,2.5 13.5,2.5 14.5,2.5C 14.5,3.5 14.5,4.5 14.5,5.5C 16.3904,5.2965 17.8904,5.96317 19,7.5C 20.0671,12.2756 21.2338,16.9423 22.5,21.5C 16.1667,21.5 9.83333,21.5 3.5,21.5C 4.76622,16.9423 5.93289,12.2756 7,7.5C 9.20027,6.34916 10.7003,4.6825 11.5,2.5 Z"/></g>
<g><path style="opacity:1" fill="#1b1e21" d="M 14.5,25.5 C 13.5,25.5 12.5,25.5 11.5,25.5C 9.92192,23.6824 10.4219,22.6824 13,22.5C 15.5781,22.6824 16.0781,23.6824 14.5,25.5 Z"/></g>
</svg>
