<?xml version="1.0" encoding="UTF-8"?>
<!DOCTYPE svg PUBLIC "-//W3C//DTD SVG 1.1//EN" "http://www.w3.org/Graphics/SVG/1.1/DTD/svg11.dtd">
<svg xmlns="http://www.w3.org/2000/svg" version="1.1" width="21px" height="20px" style="shape-rendering:geometricPrecision; text-rendering:geometricPrecision; image-rendering:optimizeQuality; fill-rule:evenodd; clip-rule:evenodd" xmlns:xlink="http://www.w3.org/1999/xlink">
<g><path style="opacity:1" fill="#f2f2f2" d="M -0.5,-0.5 C 6.5,-0.5 13.5,-0.5 20.5,-0.5C 20.5,6.16667 20.5,12.8333 20.5,19.5C 20.1667,19.5 19.8333,19.5 19.5,19.5C 19.2756,14.115 16.4423,11.7817 11,12.5C 5.55773,11.7817 2.7244,14.115 2.5,19.5C 1.5,19.5 0.5,19.5 -0.5,19.5C -0.5,12.8333 -0.5,6.16667 -0.5,-0.5 Z"/></g>
<g><path style="opacity:1" fill="#151515" d="M 8.5,0.5 C 13.9868,-0.0384737 16.1534,2.29486 15,7.5C 12.679,10.9166 10.0124,11.2499 7,8.5C 6.10929,5.5024 6.60929,2.83574 8.5,0.5 Z"/></g>
<g><path style="opacity:1" fill="#0f0f0f" d="M 19.5,19.5 C 13.8333,19.5 8.16667,19.5 2.5,19.5C 2.7244,14.115 5.55773,11.7817 11,12.5C 16.4423,11.7817 19.2756,14.115 19.5,19.5 Z"/></g>
</svg>
