<?xml version="1.0" encoding="UTF-8"?>
<!DOCTYPE svg PUBLIC "-//W3C//DTD SVG 1.1//EN" "http://www.w3.org/Graphics/SVG/1.1/DTD/svg11.dtd">
<svg xmlns="http://www.w3.org/2000/svg" version="1.1" width="24px" height="32px" style="shape-rendering:geometricPrecision; text-rendering:geometricPrecision; image-rendering:optimizeQuality; fill-rule:evenodd; clip-rule:evenodd" xmlns:xlink="http://www.w3.org/1999/xlink">
<g><path style="opacity:1" fill="#c0daf6" d="M -0.5,-0.5 C 7.5,-0.5 15.5,-0.5 23.5,-0.5C 23.5,10.1667 23.5,20.8333 23.5,31.5C 20.5,31.5 17.5,31.5 14.5,31.5C 20.2071,27.2154 20.8738,22.2154 16.5,16.5C 20.8167,11.5899 20.4834,7.08989 15.5,3C 9.00062,0.728861 5.33395,2.89553 4.5,9.5C 5.83333,9.5 7.16667,9.5 8.5,9.5C 9.07546,5.52651 11.2421,4.52651 15,6.5C 17.0371,12.187 15.2038,14.8536 9.5,14.5C 9.5,15.8333 9.5,17.1667 9.5,18.5C 16.3753,18.3072 18.2086,21.3072 15,27.5C 11.3185,29.3993 8.81854,28.3993 7.5,24.5C 6.67504,23.6143 5.67504,23.281 4.5,23.5C 4.77594,26.7186 6.10927,29.3852 8.5,31.5C 5.5,31.5 2.5,31.5 -0.5,31.5C -0.5,20.8333 -0.5,10.1667 -0.5,-0.5 Z"/></g>
<g><path style="opacity:1" fill="#1a1d20" d="M 14.5,31.5 C 12.5,31.5 10.5,31.5 8.5,31.5C 6.10927,29.3852 4.77594,26.7186 4.5,23.5C 5.67504,23.281 6.67504,23.6143 7.5,24.5C 8.81854,28.3993 11.3185,29.3993 15,27.5C 18.2086,21.3072 16.3753,18.3072 9.5,18.5C 9.5,17.1667 9.5,15.8333 9.5,14.5C 15.2038,14.8536 17.0371,12.187 15,6.5C 11.2421,4.52651 9.07546,5.52651 8.5,9.5C 7.16667,9.5 5.83333,9.5 4.5,9.5C 5.33395,2.89553 9.00062,0.728861 15.5,3C 20.4834,7.08989 20.8167,11.5899 16.5,16.5C 20.8738,22.2154 20.2071,27.2154 14.5,31.5 Z"/></g>
</svg>
