<?xml version="1.0" encoding="UTF-8"?>
<!DOCTYPE svg PUBLIC "-//W3C//DTD SVG 1.1//EN" "http://www.w3.org/Graphics/SVG/1.1/DTD/svg11.dtd">
<svg xmlns="http://www.w3.org/2000/svg" version="1.1" width="36px" height="25px" style="shape-rendering:geometricPrecision; text-rendering:geometricPrecision; image-rendering:optimizeQuality; fill-rule:evenodd; clip-rule:evenodd" xmlns:xlink="http://www.w3.org/1999/xlink">
<g><path style="opacity:0.801" fill="#020202" d="M -0.5,-0.5 C 11.5,-0.5 23.5,-0.5 35.5,-0.5C 35.5,1.16667 35.5,2.83333 35.5,4.5C 23.5,4.5 11.5,4.5 -0.5,4.5C -0.5,2.83333 -0.5,1.16667 -0.5,-0.5 Z"/></g>
<g><path style="opacity:0.801" fill="#020202" d="M -0.5,9.5 C 11.5,9.5 23.5,9.5 35.5,9.5C 35.5,11.1667 35.5,12.8333 35.5,14.5C 23.5,14.5 11.5,14.5 -0.5,14.5C -0.5,12.8333 -0.5,11.1667 -0.5,9.5 Z"/></g>
<g><path style="opacity:0.801" fill="#020202" d="M -0.5,19.5 C 11.5,19.5 23.5,19.5 35.5,19.5C 35.5,21.1667 35.5,22.8333 35.5,24.5C 23.5,24.5 11.5,24.5 -0.5,24.5C -0.5,22.8333 -0.5,21.1667 -0.5,19.5 Z"/></g>
</svg>
