<?xml version="1.0" encoding="UTF-8"?>
<!DOCTYPE svg PUBLIC "-//W3C//DTD SVG 1.1//EN" "http://www.w3.org/Graphics/SVG/1.1/DTD/svg11.dtd">
<svg xmlns="http://www.w3.org/2000/svg" version="1.1" width="225px" height="225px" style="shape-rendering:geometricPrecision; text-rendering:geometricPrecision; image-rendering:optimizeQuality; fill-rule:evenodd; clip-rule:evenodd" xmlns:xlink="http://www.w3.org/1999/xlink">
<g><path style="opacity:0.978" fill="#0a1924" d="M 3.5,-0.5 C 11.5,-0.5 19.5,-0.5 27.5,-0.5C 27.5858,0.495904 27.2524,1.32924 26.5,2C 18.7371,3.07125 11.0705,4.57125 3.5,6.5C 2.14077,5.37566 1.14077,4.04233 0.5,2.5C 1.30646,1.27187 2.30646,0.271873 3.5,-0.5 Z"/></g>
<g><path style="opacity:1" fill="#dddad8" d="M 40.5,-0.5 C 80.8333,-0.5 121.167,-0.5 161.5,-0.5C 168.318,6.39954 175.318,13.0662 182.5,19.5C 187.236,22.1929 191.569,25.3596 195.5,29C 204.727,32.8889 214.394,35.0556 224.5,35.5C 224.5,41.8333 224.5,48.1667 224.5,54.5C 217.66,57.0448 210.827,56.7115 204,53.5C 203.667,53.8333 203.333,54.1667 203,54.5C 196.826,50.5474 190.16,48.8807 183,49.5C 181.566,49.0696 180.399,48.2362 179.5,47C 173.155,45.1581 166.822,43.3248 160.5,41.5C 154.046,38.1083 147.379,34.9416 140.5,32C 133.478,29.4858 126.478,26.9858 119.5,24.5C 118.624,24.6309 117.957,24.2975 117.5,23.5C 119.596,22.4081 120.929,20.7414 121.5,18.5C 120.57,16.8953 120.57,15.3953 121.5,14C 119.495,9.82437 116.495,8.82437 112.5,11C 110.46,13.1851 109.126,15.6851 108.5,18.5C 105.633,18.3692 103.967,19.7026 103.5,22.5C 102.859,24.0423 101.859,25.3757 100.5,26.5C 99.6922,24.5767 99.1922,22.5767 99,20.5C 98.0053,19.9341 97.172,19.2674 96.5,18.5C 96.5394,17.4168 96.8728,16.4168 97.5,15.5C 95.604,14.5344 93.604,14.2011 91.5,14.5C 91.3491,18.314 89.3491,19.9807 85.5,19.5C 85.6658,24.1785 85.4992,28.8452 85,33.5C 83.3367,37.811 81.5034,41.811 79.5,45.5C 79.8066,40.8187 80.8066,36.3187 82.5,32C 81.8019,29.5463 80.8019,27.2129 79.5,25C 80.4677,20.471 80.4677,16.8043 79.5,14C 77.0207,11.33 74.0207,9.83001 70.5,9.5C 70.7852,7.71199 70.4519,6.04533 69.5,4.5C 67.4004,5.78096 65.7337,7.44763 64.5,9.5C 65.4709,10.9621 65.1376,12.2954 63.5,13.5C 63.7093,14.086 64.0426,14.586 64.5,15C 62.0794,19.5755 61.0794,24.2422 61.5,29C 59.0384,35.6305 57.2051,42.4638 56,49.5C 54.2942,50.3079 53.4609,51.6412 53.5,53.5C 48.809,35.7241 44.4757,17.7241 40.5,-0.5 Z"/></g>
<g><path style="opacity:1" fill="#05141e" d="M 170.5,-0.5 C 185.833,-0.5 201.167,-0.5 216.5,-0.5C 216.297,1.04432 215.63,2.37765 214.5,3.5C 216.422,4.96002 217.089,6.62668 216.5,8.5C 214.833,8.5 213.167,8.5 211.5,8.5C 213.803,11.151 216.47,12.151 219.5,11.5C 219.56,12.0431 219.893,12.3764 220.5,12.5C 221.86,11.8201 223.193,11.1534 224.5,10.5C 224.5,18.1667 224.5,25.8333 224.5,33.5C 205.174,30.3385 188.84,21.6718 175.5,7.5C 173.86,4.85079 172.193,2.18412 170.5,-0.5 Z"/></g>
<g><path style="opacity:0.912" fill="#455b6b" d="M 216.5,-0.5 C 217.833,-0.5 219.167,-0.5 220.5,-0.5C 222.167,0.5 223.5,1.83333 224.5,3.5C 224.5,5.16667 224.5,6.83333 224.5,8.5C 222.067,8.2729 220.401,9.2729 219.5,11.5C 216.47,12.151 213.803,11.151 211.5,8.5C 213.167,8.5 214.833,8.5 216.5,8.5C 217.089,6.62668 216.422,4.96002 214.5,3.5C 215.63,2.37765 216.297,1.04432 216.5,-0.5 Z"/></g>
<g><path style="opacity:1" fill="#948e87" d="M 169.5,-0.5 C 169.833,-0.5 170.167,-0.5 170.5,-0.5C 172.193,2.18412 173.86,4.85079 175.5,7.5C 173.825,5.99803 171.992,4.6647 170,3.5C 169.51,2.20677 169.343,0.873441 169.5,-0.5 Z"/></g>
<g><path style="opacity:1" fill="#b0b7c0" d="M 224.5,8.5 C 224.5,9.16667 224.5,9.83333 224.5,10.5C 223.193,11.1534 221.86,11.8201 220.5,12.5C 219.893,12.3764 219.56,12.0431 219.5,11.5C 220.401,9.2729 222.067,8.2729 224.5,8.5 Z"/></g>
<g><path style="opacity:1" fill="#cfb8b0" d="M 119.5,24.5 C 120.625,25.6522 120.625,26.6522 119.5,27.5C 117.883,26.962 116.216,26.6287 114.5,26.5C 114.472,28.5824 115.139,30.4157 116.5,32C 117.744,32.4561 118.577,31.9561 119,30.5C 119.18,32.4884 119.014,34.4884 118.5,36.5C 116.102,36.7406 114.102,36.0739 112.5,34.5C 114.331,35.0522 115.997,35.0522 117.5,34.5C 115.289,33.3405 113.289,32.0072 111.5,30.5C 113.099,29.2015 113.599,27.5348 113,25.5C 111.184,24.6705 109.351,23.8372 107.5,23C 107.07,22.0805 106.736,21.2472 106.5,20.5C 105.482,21.1925 104.482,21.8592 103.5,22.5C 103.967,19.7026 105.633,18.3692 108.5,18.5C 109.126,15.6851 110.46,13.1851 112.5,11C 116.495,8.82437 119.495,9.82437 121.5,14C 120.57,15.3953 120.57,16.8953 121.5,18.5C 120.929,20.7414 119.596,22.4081 117.5,23.5C 117.957,24.2975 118.624,24.6309 119.5,24.5 Z"/></g>
<g><path style="opacity:1" fill="#15222c" d="M -0.5,14.5 C 5.5,13.1667 7.83333,15.5 6.5,21.5C 4.16667,21.5 1.83333,21.5 -0.5,21.5C -0.5,19.1667 -0.5,16.8333 -0.5,14.5 Z"/></g>
<g><path style="opacity:1" fill="#c7c4c0" d="M 27.5,-0.5 C 28.5,-0.5 29.5,-0.5 30.5,-0.5C 31.9809,5.75709 32.9809,12.0904 33.5,18.5C 29.5548,19.6563 25.5548,20.1563 21.5,20C 22.5981,19.2303 22.5981,18.397 21.5,17.5C 24.5448,17.4921 27.5448,17.1587 30.5,16.5C 30.5,14.5 30.5,12.5 30.5,10.5C 26.8212,10.7244 23.1545,11.0578 19.5,11.5C 19.6287,13.2161 19.962,14.8828 20.5,16.5C 19.1991,17.8845 19.1991,19.3845 20.5,21C 13.3264,21.9026 6.32642,23.4026 -0.5,25.5C -0.5,24.1667 -0.5,22.8333 -0.5,21.5C 1.83333,21.5 4.16667,21.5 6.5,21.5C 7.83333,15.5 5.5,13.1667 -0.5,14.5C -0.5,10.8333 -0.5,7.16667 -0.5,3.5C 0.166667,3.5 0.5,3.16667 0.5,2.5C 1.14077,4.04233 2.14077,5.37566 3.5,6.5C 11.0705,4.57125 18.7371,3.07125 26.5,2C 27.2524,1.32924 27.5858,0.495904 27.5,-0.5 Z"/></g>
<g><path style="opacity:1" fill="#111e29" d="M 21.5,17.5 C 20.8333,17.5 20.5,17.1667 20.5,16.5C 19.962,14.8828 19.6287,13.2161 19.5,11.5C 23.1545,11.0578 26.8212,10.7244 30.5,10.5C 30.5,12.5 30.5,14.5 30.5,16.5C 27.5448,17.1587 24.5448,17.4921 21.5,17.5 Z"/></g>
<g><path style="opacity:1" fill="#0c1a25" d="M 9.5,6.5 C 11.924,6.19244 14.2573,6.52577 16.5,7.5C 21.1235,16.6609 18.4569,20.6609 8.5,19.5C 7.62448,15.5384 6.95781,11.5384 6.5,7.5C 7.79105,7.73731 8.79105,7.40397 9.5,6.5 Z"/></g>
<g><path style="opacity:1" fill="#e2e0de" d="M 79.5,45.5 C 75.6158,56.8155 70.9491,67.8155 65.5,78.5C 62.7693,83.066 61.1026,88.066 60.5,93.5C 59.325,93.281 58.325,93.6143 57.5,94.5C 56.9459,97.0871 55.9459,99.4204 54.5,101.5C 51.812,103.132 49.312,105.132 47,107.5C 46.3109,106.643 45.4776,105.977 44.5,105.5C 41.5376,106.278 38.7043,107.278 36,108.5C 32.9879,106.048 29.9879,106.048 27,108.5C 26.5,108 26,107.5 25.5,107C 22.5,106.667 19.5,106.333 16.5,106C 19.3707,103.16 19.0374,100.826 15.5,99C 18.1104,97.6158 19.6104,95.4491 20,92.5C 20.3333,93.1667 20.6667,93.8333 21,94.5C 25.0338,92.7918 29.5338,91.2918 34.5,90C 35.5536,88.6124 35.7203,87.1124 35,85.5C 34.6174,86.056 34.1174,86.3893 33.5,86.5C 32.99,83.4606 32.3234,80.4606 31.5,77.5C 37.5515,77.0879 43.5515,76.2546 49.5,75C 52.0336,74.4837 54.2002,73.317 56,71.5C 56.935,65.1394 56.1016,59.1394 53.5,53.5C 53.4609,51.6412 54.2942,50.3079 56,49.5C 57.2051,42.4638 59.0384,35.6305 61.5,29C 61.0794,24.2422 62.0794,19.5755 64.5,15C 64.0426,14.586 63.7093,14.086 63.5,13.5C 65.1376,12.2954 65.4709,10.9621 64.5,9.5C 65.7337,7.44763 67.4004,5.78096 69.5,4.5C 70.4519,6.04533 70.7852,7.71199 70.5,9.5C 74.0207,9.83001 77.0207,11.33 79.5,14C 80.4677,16.8043 80.4677,20.471 79.5,25C 80.8019,27.2129 81.8019,29.5463 82.5,32C 80.8066,36.3187 79.8066,40.8187 79.5,45.5 Z"/></g>
<g><path style="opacity:1" fill="#d7d2cc" d="M 30.5,-0.5 C 33.8333,-0.5 37.1667,-0.5 40.5,-0.5C 44.4757,17.7241 48.809,35.7241 53.5,53.5C 56.1016,59.1394 56.935,65.1394 56,71.5C 54.2002,73.317 52.0336,74.4837 49.5,75C 43.5515,76.2546 37.5515,77.0879 31.5,77.5C 27.3246,78.1356 23.3246,79.1356 19.5,80.5C 12.7933,81.2414 6.12663,82.2414 -0.5,83.5C -0.5,64.1667 -0.5,44.8333 -0.5,25.5C 6.32642,23.4026 13.3264,21.9026 20.5,21C 19.1991,19.3845 19.1991,17.8845 20.5,16.5C 20.5,17.1667 20.8333,17.5 21.5,17.5C 22.5981,18.397 22.5981,19.2303 21.5,20C 25.5548,20.1563 29.5548,19.6563 33.5,18.5C 32.9809,12.0904 31.9809,5.75709 30.5,-0.5 Z"/></g>
<g><path style="opacity:1" fill="#cbc4bb" d="M 161.5,-0.5 C 164.167,-0.5 166.833,-0.5 169.5,-0.5C 169.343,0.873441 169.51,2.20677 170,3.5C 171.992,4.6647 173.825,5.99803 175.5,7.5C 188.84,21.6718 205.174,30.3385 224.5,33.5C 224.5,34.1667 224.5,34.8333 224.5,35.5C 214.394,35.0556 204.727,32.8889 195.5,29C 191.569,25.3596 187.236,22.1929 182.5,19.5C 175.318,13.0662 168.318,6.39954 161.5,-0.5 Z"/></g>
<g><path style="opacity:1" fill="#e4e3e8" d="M 119.5,27.5 C 119.389,29.6477 120.056,29.981 121.5,28.5C 138.038,34.7872 154.371,41.4538 170.5,48.5C 168.444,50.5566 166.11,52.2233 163.5,53.5C 160.59,52.0272 157.59,51.1938 154.5,51C 155.672,51.4186 156.672,52.0853 157.5,53C 157.943,54.5185 157.276,55.6852 155.5,56.5C 151.595,54.6938 147.595,53.5271 143.5,53C 145.5,54 147.5,55 149.5,56C 147.5,56 145.5,56 143.5,56C 145.833,57 148.167,58 150.5,59C 148.545,59.9533 146.878,61.2866 145.5,63C 146.167,63.3333 146.833,63.6667 147.5,64C 145.069,64.2521 142.735,63.7521 140.5,62.5C 140.167,62.8333 139.833,63.1667 139.5,63.5C 140.826,64.6422 141.826,65.9755 142.5,67.5C 141.417,67.4606 140.417,67.1272 139.5,66.5C 138.646,67.9479 137.646,69.2813 136.5,70.5C 137.025,71.1924 137.692,71.6924 138.5,72C 135.967,74.4608 136.633,75.9608 140.5,76.5C 141.794,78.3284 142.794,80.3284 143.5,82.5C 139.785,82.577 136.119,82.2436 132.5,81.5C 133.014,79.4884 133.18,77.4884 133,75.5C 132.243,77.3146 131.41,78.9812 130.5,80.5C 124.141,77.1525 117.474,74.6525 110.5,73C 112.991,73.6259 112.991,74.4593 110.5,75.5C 111.833,76.1667 113.167,76.8333 114.5,77.5C 114.192,78.3081 113.692,78.9747 113,79.5C 112.333,78.1667 111.667,78.1667 111,79.5C 110.667,78.8333 110.333,78.1667 110,77.5C 109.675,79.5527 110.009,81.5527 111,83.5C 111.654,82.3044 112.154,82.3044 112.5,83.5C 111.349,84.731 110.183,84.731 109,83.5C 108.167,85 107,86.1667 105.5,87C 107.044,88.1871 108.711,88.5205 110.5,88C 108.355,87.2569 108.189,86.4235 110,85.5C 112.35,86.5042 114.684,87.5042 117,88.5C 117.383,87.944 117.883,87.6107 118.5,87.5C 118.38,88.5862 117.713,89.2528 116.5,89.5C 114.845,88.772 113.179,88.6053 111.5,89C 116.495,90.4422 121.328,92.2755 126,94.5C 126.914,92.3359 128.081,90.3359 129.5,88.5C 131.629,90.2955 133.629,92.1288 135.5,94C 134.516,95.6565 133.516,97.3232 132.5,99C 133.022,99.5613 133.355,100.228 133.5,101C 132.012,103.625 131.178,106.458 131,109.5C 129.853,108.542 128.853,108.875 128,110.5C 128.51,112.38 128.343,114.213 127.5,116C 125.687,115.954 124.021,116.12 122.5,116.5C 122.977,117.478 123.643,118.311 124.5,119C 121.076,118.639 117.742,117.639 114.5,116C 113.978,115.439 113.645,114.772 113.5,114C 116.392,108.825 118.392,103.325 119.5,97.5C 114.106,95.3942 108.606,93.3942 103,91.5C 102.235,91.5699 101.735,91.9033 101.5,92.5C 100.778,92.0825 100.278,91.4158 100,90.5C 99.6667,90.8333 99.3333,91.1667 99,91.5C 97.412,88.6913 95.2454,88.0247 92.5,89.5C 89.7473,86.0114 86.0806,84.0114 81.5,83.5C 81.3398,85.1992 81.5065,86.8659 82,88.5C 82.6667,89.8333 83.3333,89.8333 84,88.5C 84.9848,90.1636 86.1514,91.8303 87.5,93.5C 85.5868,94.0512 83.5868,94.2179 81.5,94C 83.7148,95.0438 86.0481,95.7105 88.5,96C 89.7596,97.8138 89.7596,99.6471 88.5,101.5C 85.824,100.234 83.1573,99.4008 80.5,99C 81.6087,100.876 82.6087,102.709 83.5,104.5C 84.8109,107.135 86.4776,109.469 88.5,111.5C 88.5,111.833 88.5,112.167 88.5,112.5C 87.7961,114.344 86.4628,114.844 84.5,114C 82.9625,112.293 81.2959,110.793 79.5,109.5C 78.5651,105.948 76.8985,102.948 74.5,100.5C 73.3893,97.1443 71.7226,94.1443 69.5,91.5C 79.6443,70.6115 89.1443,49.2781 98,27.5C 98.4169,28.756 99.2502,29.4226 100.5,29.5C 104.17,31.7623 108.17,33.429 112.5,34.5C 114.102,36.0739 116.102,36.7406 118.5,36.5C 119.014,34.4884 119.18,32.4884 119,30.5C 118.577,31.9561 117.744,32.4561 116.5,32C 115.139,30.4157 114.472,28.5824 114.5,26.5C 116.216,26.6287 117.883,26.962 119.5,27.5 Z"/></g>
<g><path style="opacity:1" fill="#bc8877" d="M 111.5,30.5 C 113.289,32.0072 115.289,33.3405 117.5,34.5C 115.997,35.0522 114.331,35.0522 112.5,34.5C 108.17,33.429 104.17,31.7623 100.5,29.5C 101.261,28.6091 102.261,27.9424 103.5,27.5C 106.34,28.2033 109.007,29.2033 111.5,30.5 Z"/></g>
<g><path style="opacity:1" fill="#cbc2b8" d="M 96.5,18.5 C 91.9851,27.2027 87.6518,36.2027 83.5,45.5C 81.2753,48.2624 79.2753,51.2624 77.5,54.5C 75.4552,59.9039 73.4552,65.2372 71.5,70.5C 69.7073,72.4261 68.7073,74.7594 68.5,77.5C 67.609,78.1098 66.609,78.4431 65.5,78.5C 70.9491,67.8155 75.6158,56.8155 79.5,45.5C 81.5034,41.811 83.3367,37.811 85,33.5C 85.4992,28.8452 85.6658,24.1785 85.5,19.5C 89.3491,19.9807 91.3491,18.314 91.5,14.5C 93.604,14.2011 95.604,14.5344 97.5,15.5C 96.8728,16.4168 96.5394,17.4168 96.5,18.5 Z"/></g>
<g><path style="opacity:1" fill="#c9c9cf" d="M 100.5,46.5 C 105.758,47.6505 110.758,49.4838 115.5,52C 111.148,52.4189 110.815,53.0855 114.5,54C 113.059,55.6462 111.392,55.8129 109.5,54.5C 108.833,54.8333 108.167,55.1667 107.5,55.5C 108.167,55.8333 108.833,56.1667 109.5,56.5C 106.679,57.9705 104.179,57.6372 102,55.5C 100.951,56.5171 99.7839,56.6838 98.5,56C 97.7007,53.7724 98.7007,52.4391 101.5,52C 100.833,51.6667 100.167,51.3333 99.5,51C 100.784,50.3162 101.951,50.4829 103,51.5C 103.483,50.552 103.649,49.552 103.5,48.5C 101.821,48.7148 100.821,48.0481 100.5,46.5 Z"/></g>
<g><path style="opacity:1" fill="#737271" d="M 83.5,45.5 C 79.8696,54.0839 75.8696,62.4173 71.5,70.5C 73.4552,65.2372 75.4552,59.9039 77.5,54.5C 79.2753,51.2624 81.2753,48.2624 83.5,45.5 Z"/></g>
<g><path style="opacity:1" fill="#d9d6db" d="M 119.5,24.5 C 126.478,26.9858 133.478,29.4858 140.5,32C 147.379,34.9416 154.046,38.1083 160.5,41.5C 168.432,45.1518 176.432,48.8185 184.5,52.5C 183.034,54.6568 181.2,54.9901 179,53.5C 176.595,54.2744 174.095,54.7744 171.5,55C 168.218,59.1872 165.218,63.5206 162.5,68C 163.337,69.0113 163.67,70.1779 163.5,71.5C 161.799,71.9662 160.299,71.9662 159,71.5C 157.972,74.8855 155.972,77.5522 153,79.5C 151.62,76.1171 149.12,74.2838 145.5,74C 147.901,73.195 147.734,72.3617 145,71.5C 144.667,71.8333 144.333,72.1667 144,72.5C 143.508,71.451 143.674,70.451 144.5,69.5C 143.757,68.8182 143.091,68.1515 142.5,67.5C 141.826,65.9755 140.826,64.6422 139.5,63.5C 139.833,63.1667 140.167,62.8333 140.5,62.5C 142.735,63.7521 145.069,64.2521 147.5,64C 146.833,63.6667 146.167,63.3333 145.5,63C 146.878,61.2866 148.545,59.9533 150.5,59C 148.167,58 145.833,57 143.5,56C 145.5,56 147.5,56 149.5,56C 147.5,55 145.5,54 143.5,53C 147.595,53.5271 151.595,54.6938 155.5,56.5C 157.276,55.6852 157.943,54.5185 157.5,53C 156.672,52.0853 155.672,51.4186 154.5,51C 157.59,51.1938 160.59,52.0272 163.5,53.5C 166.11,52.2233 168.444,50.5566 170.5,48.5C 154.371,41.4538 138.038,34.7872 121.5,28.5C 120.056,29.981 119.389,29.6477 119.5,27.5C 120.625,26.6522 120.625,25.6522 119.5,24.5 Z"/></g>
<g><path style="opacity:1" fill="#787a7e" d="M 186.5,67.5 C 185.065,68.0965 183.398,68.0965 181.5,67.5C 180.032,66.2209 179.365,64.5542 179.5,62.5C 183.316,62.2628 185.649,63.9294 186.5,67.5 Z"/></g>
<g><path style="opacity:1" fill="#606368" d="M 181.5,68.5 C 183.379,68.3932 183.712,68.8932 182.5,70C 185.044,71.7748 185.044,73.6082 182.5,75.5C 181.583,74.8728 180.583,74.5394 179.5,74.5C 174.879,73.8551 174.212,71.8551 177.5,68.5C 178.995,69.7053 180.328,69.7053 181.5,68.5 Z"/></g>
<g><path style="opacity:1" fill="#6a6a69" d="M 71.5,70.5 C 71.2927,73.2406 70.2927,75.5739 68.5,77.5C 68.7073,74.7594 69.7073,72.4261 71.5,70.5 Z"/></g>
<g><path style="opacity:1" fill="#ececf0" d="M 207.5,60.5 C 209.028,65.2519 209.861,69.9186 210,74.5C 206.996,75.2872 204.163,74.6206 201.5,72.5C 201.167,72.6667 200.833,72.8333 200.5,73C 201.833,74 203.167,75 204.5,76C 202.331,76.4294 200.331,75.9294 198.5,74.5C 198.167,74.8333 197.833,75.1667 197.5,75.5C 201.062,76.7967 204.395,78.63 207.5,81C 207.316,83.3904 207.316,85.7237 207.5,88C 206.74,89.4411 206.074,90.9411 205.5,92.5C 208.381,96.3626 208.048,99.8626 204.5,103C 204.833,103.333 205.167,103.667 205.5,104C 200.845,103.826 196.845,102.659 193.5,100.5C 192.197,101.718 191.197,101.385 190.5,99.5C 182.313,104.784 182.813,109.117 192,112.5C 193.701,110.976 193.201,109.976 190.5,109.5C 189.035,110.609 188.035,110.109 187.5,108C 189.847,107.666 192.181,107.833 194.5,108.5C 194.338,110.527 194.505,112.527 195,114.5C 196.916,114.355 198.749,114.855 200.5,116C 199.833,117 199.167,118 198.5,119C 199.92,120.53 200.92,122.363 201.5,124.5C 203.16,121.202 204.827,117.869 206.5,114.5C 208.23,112.164 209.73,112.164 211,114.5C 211.333,117.5 211.667,120.5 212,123.5C 212.71,124.973 213.876,125.64 215.5,125.5C 217.008,128.14 216.674,130.473 214.5,132.5C 217.812,133.791 218.979,136.125 218,139.5C 215.272,139.228 212.606,139.228 210,139.5C 209.385,141.116 208.385,142.449 207,143.5C 206.342,141.892 206.842,140.725 208.5,140C 207.333,139.5 206.5,138.667 206,137.5C 205.259,138.641 204.425,138.641 203.5,137.5C 202.808,138.025 202.308,138.692 202,139.5C 201.781,138.062 201.281,136.729 200.5,135.5C 199.269,136.651 199.269,137.817 200.5,139C 199.833,140 199.167,141 198.5,142C 201.244,142.803 203.911,143.803 206.5,145C 207.877,146.397 208.71,147.897 209,149.5C 209.316,148.366 210.149,147.366 211.5,146.5C 213.274,146.887 214.941,147.553 216.5,148.5C 216.833,150.5 217.167,152.5 217.5,154.5C 219.801,155.325 222.135,155.992 224.5,156.5C 224.5,172.167 224.5,187.833 224.5,203.5C 198.583,191.545 172.583,179.545 146.5,167.5C 145.702,167.043 145.369,166.376 145.5,165.5C 147.014,159.719 149.014,154.553 151.5,150C 151.167,149.667 150.833,149.333 150.5,149C 151.416,148.626 152.25,148.126 153,147.5C 153.273,145.899 153.773,144.399 154.5,143C 153.366,141.984 153.699,141.317 155.5,141C 153.068,139.913 153.402,139.413 156.5,139.5C 156.5,138.5 156.5,137.5 156.5,136.5C 158.827,136.247 160.827,136.914 162.5,138.5C 165.215,136.449 165.048,134.783 162,133.5C 161.586,133.957 161.086,134.291 160.5,134.5C 159.571,133.311 159.238,131.978 159.5,130.5C 160.807,129.847 162.14,129.18 163.5,128.5C 163.736,129.247 164.07,130.08 164.5,131C 165.332,131.688 165.998,131.521 166.5,130.5C 167.711,129.28 167.711,128.113 166.5,127C 164.82,127.771 163.153,127.605 161.5,126.5C 162.363,124.579 163.029,122.579 163.5,120.5C 164.338,120.158 164.672,119.492 164.5,118.5C 165.338,118.158 165.672,117.492 165.5,116.5C 166.117,116.389 166.617,116.056 167,115.5C 167.769,118.099 167.602,120.599 166.5,123C 169.694,123.273 170.694,121.94 169.5,119C 170.728,118.221 171.728,117.221 172.5,116C 171.352,114.274 170.185,114.441 169,116.5C 168.153,114.807 167.32,113.14 166.5,111.5C 169.215,108.417 171.215,104.75 172.5,100.5C 170.204,99.6317 169.537,98.2984 170.5,96.5C 172.989,96.7593 174.656,95.7593 175.5,93.5C 176.686,92.2946 176.686,90.9613 175.5,89.5C 177.446,88.9653 178.446,87.632 178.5,85.5C 179.167,84.5 179.833,83.5 180.5,82.5C 180.678,81.3052 181.011,80.1385 181.5,79C 181.164,77.9701 180.497,77.4701 179.5,77.5C 180.833,76.5 180.833,75.5 179.5,74.5C 180.583,74.5394 181.583,74.8728 182.5,75.5C 185.044,73.6082 185.044,71.7748 182.5,70C 183.712,68.8932 183.379,68.3932 181.5,68.5C 181.5,68.1667 181.5,67.8333 181.5,67.5C 183.398,68.0965 185.065,68.0965 186.5,67.5C 187.791,66.4583 187.791,65.2917 186.5,64C 188.063,63.2411 189.063,62.0744 189.5,60.5C 190.363,58.1217 191.863,56.1217 194,54.5C 198.467,56.6518 202.967,58.6518 207.5,60.5 Z"/></g>
<g><path style="opacity:1" fill="#b3afb2" d="M 189.5,60.5 C 189.063,62.0744 188.063,63.2411 186.5,64C 187.791,65.2917 187.791,66.4583 186.5,67.5C 185.649,63.9294 183.316,62.2628 179.5,62.5C 179.365,64.5542 180.032,66.2209 181.5,67.5C 181.5,67.8333 181.5,68.1667 181.5,68.5C 180.328,69.7053 178.995,69.7053 177.5,68.5C 174.212,71.8551 174.879,73.8551 179.5,74.5C 180.833,75.5 180.833,76.5 179.5,77.5C 177.862,76.8411 176.195,76.1744 174.5,75.5C 173.756,76.9905 173.09,78.4905 172.5,80C 175.096,81.1356 177.763,81.969 180.5,82.5C 179.833,83.5 179.167,84.5 178.5,85.5C 176.15,83.6152 173.65,83.2819 171,84.5C 170.251,85.635 170.417,86.635 171.5,87.5C 173.026,87.9943 174.359,88.661 175.5,89.5C 176.686,90.9613 176.686,92.2946 175.5,93.5C 173.682,91.4197 171.349,90.0864 168.5,89.5C 167.643,90.7357 166.977,92.069 166.5,93.5C 167.901,94.5207 169.235,95.5207 170.5,96.5C 167.232,96.6343 164.898,98.1343 163.5,101C 164.167,101.333 164.833,101.667 165.5,102C 162.328,102.32 159.995,103.82 158.5,106.5C 161.161,108.166 163.828,109.833 166.5,111.5C 167.32,113.14 168.153,114.807 169,116.5C 170.185,114.441 171.352,114.274 172.5,116C 171.728,117.221 170.728,118.221 169.5,119C 170.694,121.94 169.694,123.273 166.5,123C 167.602,120.599 167.769,118.099 167,115.5C 166.617,116.056 166.117,116.389 165.5,116.5C 165.414,115.504 165.748,114.671 166.5,114C 164.026,111.901 161.359,111.401 158.5,112.5C 157.353,114.585 158.02,116.085 160.5,117C 160.167,117.333 159.833,117.667 159.5,118C 161.227,117.474 162.894,117.641 164.5,118.5C 164.672,119.492 164.338,120.158 163.5,120.5C 161.821,120.108 160.154,119.608 158.5,119C 157.167,118.333 157.167,117.667 158.5,117C 157.906,116.536 157.239,116.369 156.5,116.5C 155.761,116.631 155.094,116.464 154.5,116C 156.476,113.49 156.643,110.99 155,108.5C 153.901,111.044 152.735,111.044 151.5,108.5C 153.059,106.869 155.059,106.036 157.5,106C 153.106,100.265 154.106,98.765 160.5,101.5C 161.429,100.311 161.762,98.9778 161.5,97.5C 158.5,97.8333 157.167,96.5 157.5,93.5C 159.665,93.8841 161.332,93.2174 162.5,91.5C 160.914,89.8273 160.247,87.8273 160.5,85.5C 167.145,86.2086 167.812,85.0419 162.5,82C 163.337,80.9887 163.67,79.8221 163.5,78.5C 169.914,78.7573 170.58,77.5906 165.5,75C 165.957,74.586 166.291,74.086 166.5,73.5C 168.5,73.1667 170.5,72.8333 172.5,72.5C 171.5,70.8333 170.167,69.5 168.5,68.5C 168.833,67.8333 169.167,67.1667 169.5,66.5C 171.387,65.3344 173.053,64.6678 174.5,64.5C 172.985,63.4095 172.152,62.0761 172,60.5C 172.333,60.1667 172.667,59.8333 173,59.5C 174.401,61.1922 176.234,61.8588 178.5,61.5C 178.472,59.4176 179.139,57.5843 180.5,56C 183.117,55.1785 185.784,54.6785 188.5,54.5C 188.517,56.5648 188.85,58.5648 189.5,60.5 Z"/></g>
<g><path style="opacity:1" fill="#827f7b" d="M 68.5,77.5 C 68.0075,79.8185 67.0075,81.8185 65.5,83.5C 65.5,81.8333 65.5,80.1667 65.5,78.5C 66.609,78.4431 67.609,78.1098 68.5,77.5 Z"/></g>
<g><path style="opacity:1" fill="#6f6e72" d="M 179.5,77.5 C 180.497,77.4701 181.164,77.9701 181.5,79C 181.011,80.1385 180.678,81.3052 180.5,82.5C 177.763,81.969 175.096,81.1356 172.5,80C 173.09,78.4905 173.756,76.9905 174.5,75.5C 176.195,76.1744 177.862,76.8411 179.5,77.5 Z"/></g>
<g><path style="opacity:1" fill="#c9cacf" d="M 130.5,80.5 C 128.801,80.6204 127.135,80.9537 125.5,81.5C 123.431,81.1758 123.098,80.3425 124.5,79C 123.551,78.3828 122.718,78.5494 122,79.5C 121.667,78.8333 121.333,78.1667 121,77.5C 119.266,78.2489 117.433,78.7489 115.5,79C 116.469,80.7583 117.636,81.2583 119,80.5C 119.75,81.1258 120.584,81.6258 121.5,82C 118.833,83 116.167,84 113.5,85C 115.315,85.7568 116.981,86.5902 118.5,87.5C 117.883,87.6107 117.383,87.944 117,88.5C 114.684,87.5042 112.35,86.5042 110,85.5C 108.189,86.4235 108.355,87.2569 110.5,88C 108.711,88.5205 107.044,88.1871 105.5,87C 107,86.1667 108.167,85 109,83.5C 110.183,84.731 111.349,84.731 112.5,83.5C 112.154,82.3044 111.654,82.3044 111,83.5C 110.009,81.5527 109.675,79.5527 110,77.5C 110.333,78.1667 110.667,78.8333 111,79.5C 111.667,78.1667 112.333,78.1667 113,79.5C 113.692,78.9747 114.192,78.3081 114.5,77.5C 113.167,76.8333 111.833,76.1667 110.5,75.5C 112.991,74.4593 112.991,73.6259 110.5,73C 117.474,74.6525 124.141,77.1525 130.5,80.5 Z"/></g>
<g><path style="opacity:1" fill="#b5aa9f" d="M 19.5,80.5 C 21.256,81.5521 21.9227,83.2188 21.5,85.5C 14.1667,85.5 6.83333,85.5 -0.5,85.5C -0.5,84.8333 -0.5,84.1667 -0.5,83.5C 6.12663,82.2414 12.7933,81.2414 19.5,80.5 Z"/></g>
<g><path style="opacity:1" fill="#ae896e" d="M 31.5,77.5 C 32.3234,80.4606 32.99,83.4606 33.5,86.5C 30.198,87.2937 26.8647,87.9604 23.5,88.5C 23.7148,86.8212 23.0481,85.8212 21.5,85.5C 21.9227,83.2188 21.256,81.5521 19.5,80.5C 23.3246,79.1356 27.3246,78.1356 31.5,77.5 Z"/></g>
<g><path style="opacity:1" fill="#7c7c80" d="M 178.5,85.5 C 178.446,87.632 177.446,88.9653 175.5,89.5C 174.359,88.661 173.026,87.9943 171.5,87.5C 170.417,86.635 170.251,85.635 171,84.5C 173.65,83.2819 176.15,83.6152 178.5,85.5 Z"/></g>
<g><path style="opacity:1" fill="#dcd8d4" d="M -0.5,85.5 C 6.83333,85.5 14.1667,85.5 21.5,85.5C 23.0481,85.8212 23.7148,86.8212 23.5,88.5C 26.8647,87.9604 30.198,87.2937 33.5,86.5C 34.1174,86.3893 34.6174,86.056 35,85.5C 35.7203,87.1124 35.5536,88.6124 34.5,90C 29.5338,91.2918 25.0338,92.7918 21,94.5C 20.6667,93.8333 20.3333,93.1667 20,92.5C 19.6104,95.4491 18.1104,97.6158 15.5,99C 19.0374,100.826 19.3707,103.16 16.5,106C 19.5,106.333 22.5,106.667 25.5,107C 26,107.5 26.5,108 27,108.5C 29.9879,106.048 32.9879,106.048 36,108.5C 38.7043,107.278 41.5376,106.278 44.5,105.5C 45.4776,105.977 46.3109,106.643 47,107.5C 49.312,105.132 51.812,103.132 54.5,101.5C 52.6608,106.163 49.9942,110.329 46.5,114C 40.0022,115.089 33.6689,116.589 27.5,118.5C 20.6036,119.366 13.6036,119.366 6.5,118.5C 6.71901,119.675 6.38568,120.675 5.5,121.5C 3.59136,122.348 1.59136,122.682 -0.5,122.5C -0.5,110.167 -0.5,97.8333 -0.5,85.5 Z"/></g>
<g><path style="opacity:1" fill="#626160" d="M 65.5,83.5 C 65.2927,86.2406 64.2927,88.5739 62.5,90.5C 62.7073,87.7594 63.7073,85.4261 65.5,83.5 Z"/></g>
<g><path style="opacity:1" fill="#cdcdd2" d="M 101.5,92.5 C 105.292,93.7081 108.959,95.2081 112.5,97C 111.584,97.3742 110.75,97.8742 110,98.5C 107.464,97.121 105.131,96.121 103,95.5C 102.219,96.9437 102.386,98.277 103.5,99.5C 106.701,100.453 109.701,101.786 112.5,103.5C 112,103.833 111.5,104.167 111,104.5C 108.765,102.246 106.265,101.579 103.5,102.5C 103.863,103.183 104.196,103.85 104.5,104.5C 104.44,105.043 104.107,105.376 103.5,105.5C 102.572,103.665 101.406,103.332 100,104.5C 97.4331,103.73 94.9331,102.73 92.5,101.5C 92.1667,102 91.8333,102.5 91.5,103C 92.0556,104.011 92.7222,104.844 93.5,105.5C 91.2075,105.244 89.0408,105.577 87,106.5C 86.1841,105.177 85.0174,104.511 83.5,104.5C 82.6087,102.709 81.6087,100.876 80.5,99C 83.1573,99.4008 85.824,100.234 88.5,101.5C 89.7596,99.6471 89.7596,97.8138 88.5,96C 86.0481,95.7105 83.7148,95.0438 81.5,94C 83.5868,94.2179 85.5868,94.0512 87.5,93.5C 86.1514,91.8303 84.9848,90.1636 84,88.5C 83.3333,89.8333 82.6667,89.8333 82,88.5C 81.5065,86.8659 81.3398,85.1992 81.5,83.5C 86.0806,84.0114 89.7473,86.0114 92.5,89.5C 95.2454,88.0247 97.412,88.6913 99,91.5C 99.3333,91.1667 99.6667,90.8333 100,90.5C 100.278,91.4158 100.778,92.0825 101.5,92.5 Z"/></g>
<g><path style="opacity:1" fill="#787679" d="M 175.5,93.5 C 174.656,95.7593 172.989,96.7593 170.5,96.5C 169.235,95.5207 167.901,94.5207 166.5,93.5C 166.977,92.069 167.643,90.7357 168.5,89.5C 171.349,90.0864 173.682,91.4197 175.5,93.5 Z"/></g>
<g><path style="opacity:1" fill="#a3a7af" d="M 179.5,92.5 C 182.957,92.6672 183.29,93.6672 180.5,95.5C 179.614,94.675 179.281,93.675 179.5,92.5 Z"/></g>
<g><path style="opacity:1" fill="#646464" d="M 60.5,94.5 C 59.8734,98.4201 58.2067,101.753 55.5,104.5C 56.6589,100.849 58.3256,97.5154 60.5,94.5 Z"/></g>
<g><path style="opacity:1" fill="#d2c9c7" d="M 96.5,18.5 C 97.172,19.2674 98.0053,19.9341 99,20.5C 99.1922,22.5767 99.6922,24.5767 100.5,26.5C 101.859,25.3757 102.859,24.0423 103.5,22.5C 104.482,21.8592 105.482,21.1925 106.5,20.5C 106.736,21.2472 107.07,22.0805 107.5,23C 109.351,23.8372 111.184,24.6705 113,25.5C 113.599,27.5348 113.099,29.2015 111.5,30.5C 109.007,29.2033 106.34,28.2033 103.5,27.5C 102.261,27.9424 101.261,28.6091 100.5,29.5C 99.2502,29.4226 98.4169,28.756 98,27.5C 89.1443,49.2781 79.6443,70.6115 69.5,91.5C 67.741,97.6909 65.4077,103.691 62.5,109.5C 65.3208,110.739 67.9875,110.405 70.5,108.5C 72.0382,105.852 73.3715,103.185 74.5,100.5C 76.8985,102.948 78.5651,105.948 79.5,109.5C 75.7746,109.729 72.2746,110.729 69,112.5C 68.1667,114.167 67.3333,115.833 66.5,117.5C 67.1716,119.16 68.1716,120.493 69.5,121.5C 65.8051,125.526 62.1384,129.526 58.5,133.5C 58.6309,132.624 58.2975,131.957 57.5,131.5C 53.1362,129.656 49.1362,127.323 45.5,124.5C 48.8793,117.741 52.2126,111.075 55.5,104.5C 58.2067,101.753 59.8734,98.4201 60.5,94.5C 61.6737,93.4863 62.3404,92.153 62.5,90.5C 64.2927,88.5739 65.2927,86.2406 65.5,83.5C 67.0075,81.8185 68.0075,79.8185 68.5,77.5C 70.2927,75.5739 71.2927,73.2406 71.5,70.5C 75.8696,62.4173 79.8696,54.0839 83.5,45.5C 87.6518,36.2027 91.9851,27.2027 96.5,18.5 Z"/></g>
<g><path style="opacity:1" fill="#dfdce0" d="M 69.5,91.5 C 71.7226,94.1443 73.3893,97.1443 74.5,100.5C 73.3715,103.185 72.0382,105.852 70.5,108.5C 67.9875,110.405 65.3208,110.739 62.5,109.5C 65.4077,103.691 67.741,97.6909 69.5,91.5 Z"/></g>
<g><path style="opacity:1" fill="#a4a2aa" d="M 104.5,104.5 C 105.096,105.935 105.096,107.602 104.5,109.5C 104.167,109.5 103.833,109.5 103.5,109.5C 102.082,107.692 100.082,107.025 97.5,107.5C 97.1667,107.5 96.8333,107.5 96.5,107.5C 96.1788,105.952 95.1788,105.285 93.5,105.5C 92.7222,104.844 92.0556,104.011 91.5,103C 91.8333,102.5 92.1667,102 92.5,101.5C 94.9331,102.73 97.4331,103.73 100,104.5C 101.406,103.332 102.572,103.665 103.5,105.5C 104.107,105.376 104.44,105.043 104.5,104.5 Z"/></g>
<g><path style="opacity:1" fill="#1b1e28" d="M 93.5,105.5 C 95.1788,105.285 96.1788,105.952 96.5,107.5C 95.3646,109.213 93.698,109.88 91.5,109.5C 91.7329,107.938 92.3995,106.605 93.5,105.5 Z"/></g>
<g><path style="opacity:1" fill="#9c9699" d="M 170.5,96.5 C 169.537,98.2984 170.204,99.6317 172.5,100.5C 171.215,104.75 169.215,108.417 166.5,111.5C 163.828,109.833 161.161,108.166 158.5,106.5C 159.995,103.82 162.328,102.32 165.5,102C 164.833,101.667 164.167,101.333 163.5,101C 164.898,98.1343 167.232,96.6343 170.5,96.5 Z"/></g>
<g><path style="opacity:1" fill="#ceced3" d="M 224.5,98.5 C 224.5,105.167 224.5,111.833 224.5,118.5C 221.484,117.438 218.484,116.271 215.5,115C 216.5,114.667 217.5,114.333 218.5,114C 217.323,111.281 215.657,109.781 213.5,109.5C 214.989,109.467 216.322,108.967 217.5,108C 215.369,107.457 213.369,106.624 211.5,105.5C 213.634,105.098 215.634,105.098 217.5,105.5C 217.833,105 218.167,104.5 218.5,104C 217.556,102.523 216.223,101.523 214.5,101C 215.893,99.8289 216.727,98.3289 217,96.5C 219.422,98.3789 221.922,99.0456 224.5,98.5 Z"/></g>
<g><path style="opacity:1" fill="#252b37" d="M 97.5,107.5 C 100.082,107.025 102.082,107.692 103.5,109.5C 102.167,109.5 100.833,109.5 99.5,109.5C 98.8333,108.833 98.1667,108.167 97.5,107.5 Z"/></g>
<g><path style="opacity:1" fill="#d2ccce" d="M 160.5,41.5 C 166.822,43.3248 173.155,45.1581 179.5,47C 180.399,48.2362 181.566,49.0696 183,49.5C 190.16,48.8807 196.826,50.5474 203,54.5C 203.333,54.1667 203.667,53.8333 204,53.5C 210.827,56.7115 217.66,57.0448 224.5,54.5C 224.5,58.8333 224.5,63.1667 224.5,67.5C 218.715,65.4403 213.048,63.107 207.5,60.5C 202.967,58.6518 198.467,56.6518 194,54.5C 191.863,56.1217 190.363,58.1217 189.5,60.5C 188.85,58.5648 188.517,56.5648 188.5,54.5C 185.784,54.6785 183.117,55.1785 180.5,56C 179.139,57.5843 178.472,59.4176 178.5,61.5C 176.234,61.8588 174.401,61.1922 173,59.5C 172.667,59.8333 172.333,60.1667 172,60.5C 172.152,62.0761 172.985,63.4095 174.5,64.5C 173.053,64.6678 171.387,65.3344 169.5,66.5C 169.167,67.1667 168.833,67.8333 168.5,68.5C 170.167,69.5 171.5,70.8333 172.5,72.5C 170.5,72.8333 168.5,73.1667 166.5,73.5C 166.291,74.086 165.957,74.586 165.5,75C 170.58,77.5906 169.914,78.7573 163.5,78.5C 163.67,79.8221 163.337,80.9887 162.5,82C 167.812,85.0419 167.145,86.2086 160.5,85.5C 160.247,87.8273 160.914,89.8273 162.5,91.5C 161.332,93.2174 159.665,93.8841 157.5,93.5C 157.167,96.5 158.5,97.8333 161.5,97.5C 161.762,98.9778 161.429,100.311 160.5,101.5C 154.106,98.765 153.106,100.265 157.5,106C 155.059,106.036 153.059,106.869 151.5,108.5C 152.735,111.044 153.901,111.044 155,108.5C 156.643,110.99 156.476,113.49 154.5,116C 155.094,116.464 155.761,116.631 156.5,116.5C 153.169,118.577 152.169,121.077 153.5,124C 149.437,125.964 149.103,127.964 152.5,130C 148.215,131.729 145.715,134.895 145,139.5C 144.714,141.999 144.881,144.165 145.5,146C 141.71,148.181 141.71,150.181 145.5,152C 143.89,153.495 142.224,153.661 140.5,152.5C 137.537,156.879 136.87,161.546 138.5,166.5C 136.801,166.66 135.134,166.494 133.5,166C 128.08,163.632 123.08,160.798 118.5,157.5C 123.816,159.212 129.316,161.545 135,164.5C 135.167,164.167 135.333,163.833 135.5,163.5C 131.569,160.933 128.069,157.933 125,154.5C 124.595,151.22 123.095,148.72 120.5,147C 122.701,146.175 124.534,146.675 126,148.5C 129.921,141.562 132.421,134.396 133.5,127C 133.241,125.739 132.574,124.739 131.5,124C 133.756,124.615 136.089,124.948 138.5,125C 139.673,121.89 139.173,121.723 137,124.5C 136.785,122.58 137.452,120.914 139,119.5C 139.914,120.654 140.747,120.487 141.5,119C 140.692,118.692 140.025,118.192 139.5,117.5C 142.443,110.968 144.776,104.302 146.5,97.5C 145.833,96.1667 145.167,94.8333 144.5,93.5C 146.167,92.5 147.5,91.1667 148.5,89.5C 146.336,88.5857 144.336,87.419 142.5,86C 145.199,86.4382 147.865,86.2716 150.5,85.5C 151.053,83.2727 151.053,80.9393 150.5,78.5C 147.027,78.4242 143.694,77.7576 140.5,76.5C 136.633,75.9608 135.967,74.4608 138.5,72C 137.692,71.6924 137.025,71.1924 136.5,70.5C 137.646,69.2813 138.646,67.9479 139.5,66.5C 140.417,67.1272 141.417,67.4606 142.5,67.5C 143.091,68.1515 143.757,68.8182 144.5,69.5C 143.674,70.451 143.508,71.451 144,72.5C 144.333,72.1667 144.667,71.8333 145,71.5C 147.734,72.3617 147.901,73.195 145.5,74C 149.12,74.2838 151.62,76.1171 153,79.5C 155.972,77.5522 157.972,74.8855 159,71.5C 160.299,71.9662 161.799,71.9662 163.5,71.5C 163.67,70.1779 163.337,69.0113 162.5,68C 165.218,63.5206 168.218,59.1872 171.5,55C 174.095,54.7744 176.595,54.2744 179,53.5C 181.2,54.9901 183.034,54.6568 184.5,52.5C 176.432,48.8185 168.432,45.1518 160.5,41.5 Z"/></g>
<g><path style="opacity:1" fill="#60646e" d="M 174.5,106.5 C 176.646,106.696 176.812,107.696 175,109.5C 173.272,108.648 173.105,107.648 174.5,106.5 Z"/></g>
<g><path style="opacity:1" fill="#9c8f92" d="M 83.5,104.5 C 85.0174,104.511 86.1841,105.177 87,106.5C 89.0408,105.577 91.2075,105.244 93.5,105.5C 92.3995,106.605 91.7329,107.938 91.5,109.5C 89.8212,109.285 88.8212,109.952 88.5,111.5C 86.4776,109.469 84.8109,107.135 83.5,104.5 Z"/></g>
<g><path style="opacity:1" fill="#dcada4" d="M 99.5,109.5 C 100.833,109.5 102.167,109.5 103.5,109.5C 101.958,110.163 100.291,110.83 98.5,111.5C 99.1667,112.167 99.8333,112.833 100.5,113.5C 97.677,116.671 94.3436,119.005 90.5,120.5C 90.5,119.167 90.5,117.833 90.5,116.5C 91.6828,115.496 93.0161,114.662 94.5,114C 93.6919,113.692 93.0253,113.192 92.5,112.5C 94.9389,111.593 97.2722,110.593 99.5,109.5 Z"/></g>
<g><path style="opacity:1" fill="#bb837a" d="M 96.5,107.5 C 96.8333,107.5 97.1667,107.5 97.5,107.5C 98.1667,108.167 98.8333,108.833 99.5,109.5C 97.2722,110.593 94.9389,111.593 92.5,112.5C 93.0253,113.192 93.6919,113.692 94.5,114C 93.0161,114.662 91.6828,115.496 90.5,116.5C 89.1667,116.5 87.8333,116.5 86.5,116.5C 87.209,115.596 88.209,115.263 89.5,115.5C 89.7373,114.209 89.404,113.209 88.5,112.5C 88.5,112.167 88.5,111.833 88.5,111.5C 88.8212,109.952 89.8212,109.285 91.5,109.5C 93.698,109.88 95.3646,109.213 96.5,107.5 Z"/></g>
<g><path style="opacity:1" fill="#e1e1e5" d="M 207.5,60.5 C 213.048,63.107 218.715,65.4403 224.5,67.5C 224.5,77.8333 224.5,88.1667 224.5,98.5C 221.922,99.0456 219.422,98.3789 217,96.5C 216.727,98.3289 215.893,99.8289 214.5,101C 216.223,101.523 217.556,102.523 218.5,104C 218.167,104.5 217.833,105 217.5,105.5C 215.634,105.098 213.634,105.098 211.5,105.5C 213.369,106.624 215.369,107.457 217.5,108C 216.322,108.967 214.989,109.467 213.5,109.5C 215.657,109.781 217.323,111.281 218.5,114C 217.5,114.333 216.5,114.667 215.5,115C 218.484,116.271 221.484,117.438 224.5,118.5C 224.5,131.167 224.5,143.833 224.5,156.5C 222.135,155.992 219.801,155.325 217.5,154.5C 217.167,152.5 216.833,150.5 216.5,148.5C 214.941,147.553 213.274,146.887 211.5,146.5C 210.149,147.366 209.316,148.366 209,149.5C 208.71,147.897 207.877,146.397 206.5,145C 203.911,143.803 201.244,142.803 198.5,142C 199.167,141 199.833,140 200.5,139C 199.269,137.817 199.269,136.651 200.5,135.5C 201.281,136.729 201.781,138.062 202,139.5C 202.308,138.692 202.808,138.025 203.5,137.5C 204.425,138.641 205.259,138.641 206,137.5C 206.5,138.667 207.333,139.5 208.5,140C 206.842,140.725 206.342,141.892 207,143.5C 208.385,142.449 209.385,141.116 210,139.5C 212.606,139.228 215.272,139.228 218,139.5C 218.979,136.125 217.812,133.791 214.5,132.5C 216.674,130.473 217.008,128.14 215.5,125.5C 213.876,125.64 212.71,124.973 212,123.5C 211.667,120.5 211.333,117.5 211,114.5C 209.73,112.164 208.23,112.164 206.5,114.5C 204.827,117.869 203.16,121.202 201.5,124.5C 200.92,122.363 199.92,120.53 198.5,119C 199.167,118 199.833,117 200.5,116C 198.749,114.855 196.916,114.355 195,114.5C 194.505,112.527 194.338,110.527 194.5,108.5C 192.181,107.833 189.847,107.666 187.5,108C 188.035,110.109 189.035,110.609 190.5,109.5C 193.201,109.976 193.701,110.976 192,112.5C 182.813,109.117 182.313,104.784 190.5,99.5C 191.197,101.385 192.197,101.718 193.5,100.5C 196.845,102.659 200.845,103.826 205.5,104C 205.167,103.667 204.833,103.333 204.5,103C 208.048,99.8626 208.381,96.3626 205.5,92.5C 206.074,90.9411 206.74,89.4411 207.5,88C 207.316,85.7237 207.316,83.3904 207.5,81C 204.395,78.63 201.062,76.7967 197.5,75.5C 197.833,75.1667 198.167,74.8333 198.5,74.5C 200.331,75.9294 202.331,76.4294 204.5,76C 203.167,75 201.833,74 200.5,73C 200.833,72.8333 201.167,72.6667 201.5,72.5C 204.163,74.6206 206.996,75.2872 210,74.5C 209.861,69.9186 209.028,65.2519 207.5,60.5 Z"/></g>
<g><path style="opacity:1" fill="#c3b4b1" d="M 79.5,109.5 C 81.2959,110.793 82.9625,112.293 84.5,114C 86.4628,114.844 87.7961,114.344 88.5,112.5C 89.404,113.209 89.7373,114.209 89.5,115.5C 88.209,115.263 87.209,115.596 86.5,116.5C 86.1667,117.5 85.5,118.167 84.5,118.5C 83.8333,117.167 83.1667,115.833 82.5,114.5C 82.44,113.957 82.1067,113.624 81.5,113.5C 77.2311,115.77 73.2311,118.437 69.5,121.5C 68.1716,120.493 67.1716,119.16 66.5,117.5C 67.3333,115.833 68.1667,114.167 69,112.5C 72.2746,110.729 75.7746,109.729 79.5,109.5 Z"/></g>
<g><path style="opacity:1" fill="#999095" d="M 165.5,116.5 C 165.672,117.492 165.338,118.158 164.5,118.5C 162.894,117.641 161.227,117.474 159.5,118C 159.833,117.667 160.167,117.333 160.5,117C 158.02,116.085 157.353,114.585 158.5,112.5C 161.359,111.401 164.026,111.901 166.5,114C 165.748,114.671 165.414,115.504 165.5,116.5 Z"/></g>
<g><path style="opacity:1" fill="#d8d2ca" d="M 65.5,78.5 C 65.5,80.1667 65.5,81.8333 65.5,83.5C 63.7073,85.4261 62.7073,87.7594 62.5,90.5C 62.3404,92.153 61.6737,93.4863 60.5,94.5C 58.3256,97.5154 56.6589,100.849 55.5,104.5C 52.2126,111.075 48.8793,117.741 45.5,124.5C 49.1362,127.323 53.1362,129.656 57.5,131.5C 58.2975,131.957 58.6309,132.624 58.5,133.5C 52.5852,141.457 49.2519,150.457 48.5,160.5C 32.194,159.078 15.8607,158.078 -0.5,157.5C -0.5,145.833 -0.5,134.167 -0.5,122.5C 1.59136,122.682 3.59136,122.348 5.5,121.5C 6.38568,120.675 6.71901,119.675 6.5,118.5C 13.6036,119.366 20.6036,119.366 27.5,118.5C 33.6689,116.589 40.0022,115.089 46.5,114C 49.9942,110.329 52.6608,106.163 54.5,101.5C 55.9459,99.4204 56.9459,97.0871 57.5,94.5C 58.325,93.6143 59.325,93.281 60.5,93.5C 61.1026,88.066 62.7693,83.066 65.5,78.5 Z"/></g>
<g><path style="opacity:1" fill="#c5715e" d="M 86.5,116.5 C 87.8333,116.5 89.1667,116.5 90.5,116.5C 90.5,117.833 90.5,119.167 90.5,120.5C 89.8902,121.391 89.5569,122.391 89.5,123.5C 87.5379,126.667 85.8712,130.001 84.5,133.5C 84.8756,130.373 84.8756,127.373 84.5,124.5C 81.7884,127.128 79.7884,130.128 78.5,133.5C 79.6658,128.168 81.6658,123.168 84.5,118.5C 85.5,118.167 86.1667,117.5 86.5,116.5 Z"/></g>
<g><path style="opacity:1" fill="#e0dce1" d="M 140.5,76.5 C 143.694,77.7576 147.027,78.4242 150.5,78.5C 151.053,80.9393 151.053,83.2727 150.5,85.5C 147.865,86.2716 145.199,86.4382 142.5,86C 144.336,87.419 146.336,88.5857 148.5,89.5C 147.5,91.1667 146.167,92.5 144.5,93.5C 145.167,94.8333 145.833,96.1667 146.5,97.5C 144.776,104.302 142.443,110.968 139.5,117.5C 140.025,118.192 140.692,118.692 141.5,119C 140.747,120.487 139.914,120.654 139,119.5C 137.452,120.914 136.785,122.58 137,124.5C 139.173,121.723 139.673,121.89 138.5,125C 136.089,124.948 133.756,124.615 131.5,124C 132.574,124.739 133.241,125.739 133.5,127C 132.421,134.396 129.921,141.562 126,148.5C 124.534,146.675 122.701,146.175 120.5,147C 123.095,148.72 124.595,151.22 125,154.5C 128.069,157.933 131.569,160.933 135.5,163.5C 135.333,163.833 135.167,164.167 135,164.5C 129.316,161.545 123.816,159.212 118.5,157.5C 113.114,150.108 108.114,142.442 103.5,134.5C 105.455,130.806 107.121,126.973 108.5,123C 107.225,118.705 105.892,114.538 104.5,110.5C 104.5,110.167 104.5,109.833 104.5,109.5C 105.096,107.602 105.096,105.935 104.5,104.5C 104.196,103.85 103.863,103.183 103.5,102.5C 106.265,101.579 108.765,102.246 111,104.5C 111.5,104.167 112,103.833 112.5,103.5C 109.701,101.786 106.701,100.453 103.5,99.5C 102.386,98.277 102.219,96.9437 103,95.5C 105.131,96.121 107.464,97.121 110,98.5C 110.75,97.8742 111.584,97.3742 112.5,97C 108.959,95.2081 105.292,93.7081 101.5,92.5C 101.735,91.9033 102.235,91.5699 103,91.5C 108.606,93.3942 114.106,95.3942 119.5,97.5C 118.392,103.325 116.392,108.825 113.5,114C 113.645,114.772 113.978,115.439 114.5,116C 117.742,117.639 121.076,118.639 124.5,119C 123.643,118.311 122.977,117.478 122.5,116.5C 124.021,116.12 125.687,115.954 127.5,116C 128.343,114.213 128.51,112.38 128,110.5C 128.853,108.875 129.853,108.542 131,109.5C 131.178,106.458 132.012,103.625 133.5,101C 133.355,100.228 133.022,99.5613 132.5,99C 133.516,97.3232 134.516,95.6565 135.5,94C 133.629,92.1288 131.629,90.2955 129.5,88.5C 128.081,90.3359 126.914,92.3359 126,94.5C 121.328,92.2755 116.495,90.4422 111.5,89C 113.179,88.6053 114.845,88.772 116.5,89.5C 117.713,89.2528 118.38,88.5862 118.5,87.5C 116.981,86.5902 115.315,85.7568 113.5,85C 116.167,84 118.833,83 121.5,82C 120.584,81.6258 119.75,81.1258 119,80.5C 117.636,81.2583 116.469,80.7583 115.5,79C 117.433,78.7489 119.266,78.2489 121,77.5C 121.333,78.1667 121.667,78.8333 122,79.5C 122.718,78.5494 123.551,78.3828 124.5,79C 123.098,80.3425 123.431,81.1758 125.5,81.5C 127.135,80.9537 128.801,80.6204 130.5,80.5C 131.41,78.9812 132.243,77.3146 133,75.5C 133.18,77.4884 133.014,79.4884 132.5,81.5C 136.119,82.2436 139.785,82.577 143.5,82.5C 142.794,80.3284 141.794,78.3284 140.5,76.5 Z"/></g>
<g><path style="opacity:1" fill="#ceb8c0" d="M 104.5,110.5 C 105.892,114.538 107.225,118.705 108.5,123C 107.121,126.973 105.455,130.806 103.5,134.5C 101.179,131.204 98.8458,127.871 96.5,124.5C 96.6107,123.883 96.944,123.383 97.5,123C 105.412,123.329 107.079,120.496 102.5,114.5C 103.63,113.378 104.297,112.044 104.5,110.5 Z"/></g>
<g><path style="opacity:1" fill="#c7c7cc" d="M 161.5,126.5 C 163.153,127.605 164.82,127.771 166.5,127C 167.711,128.113 167.711,129.28 166.5,130.5C 165.998,131.521 165.332,131.688 164.5,131C 164.07,130.08 163.736,129.247 163.5,128.5C 162.14,129.18 160.807,129.847 159.5,130.5C 160.741,127.995 159.741,126.495 156.5,126C 157.5,125.5 158.5,125 159.5,124.5C 160.696,124.846 160.696,125.346 159.5,126C 160.094,126.464 160.761,126.631 161.5,126.5 Z"/></g>
<g><path style="opacity:1" fill="#9c4c3c" d="M 82.5,114.5 C 83.1667,115.833 83.8333,117.167 84.5,118.5C 81.6658,123.168 79.6658,128.168 78.5,133.5C 77.1805,134.942 75.5138,135.608 73.5,135.5C 73.5,133.167 73.5,130.833 73.5,128.5C 73.2648,127.903 72.7648,127.57 72,127.5C 70.3551,129.145 68.6884,130.812 67,132.5C 66.5357,131.906 66.369,131.239 66.5,130.5C 67.4596,126.946 69.6263,124.279 73,122.5C 73.4922,123.549 73.3256,124.549 72.5,125.5C 74.1792,126.782 76.0126,127.782 78,128.5C 76.2085,123.16 77.7085,118.493 82.5,114.5 Z"/></g>
<g><path style="opacity:1" fill="#aea4a6" d="M 156.5,116.5 C 157.239,116.369 157.906,116.536 158.5,117C 157.167,117.667 157.167,118.333 158.5,119C 160.154,119.608 161.821,120.108 163.5,120.5C 163.029,122.579 162.363,124.579 161.5,126.5C 160.761,126.631 160.094,126.464 159.5,126C 160.696,125.346 160.696,124.846 159.5,124.5C 158.5,125 157.5,125.5 156.5,126C 159.741,126.495 160.741,127.995 159.5,130.5C 159.238,131.978 159.571,133.311 160.5,134.5C 161.086,134.291 161.586,133.957 162,133.5C 165.048,134.783 165.215,136.449 162.5,138.5C 160.827,136.914 158.827,136.247 156.5,136.5C 156.5,137.5 156.5,138.5 156.5,139.5C 153.402,139.413 153.068,139.913 155.5,141C 153.699,141.317 153.366,141.984 154.5,143C 153.773,144.399 153.273,145.899 153,147.5C 152.25,148.126 151.416,148.626 150.5,149C 150.833,149.333 151.167,149.667 151.5,150C 149.014,154.553 147.014,159.719 145.5,165.5C 142.868,163.937 140.535,164.27 138.5,166.5C 136.87,161.546 137.537,156.879 140.5,152.5C 142.224,153.661 143.89,153.495 145.5,152C 141.71,150.181 141.71,148.181 145.5,146C 144.881,144.165 144.714,141.999 145,139.5C 145.715,134.895 148.215,131.729 152.5,130C 149.103,127.964 149.437,125.964 153.5,124C 152.169,121.077 153.169,118.577 156.5,116.5 Z"/></g>
<g><path style="opacity:1" fill="#f0e4e0" d="M 103.5,109.5 C 103.833,109.5 104.167,109.5 104.5,109.5C 104.5,109.833 104.5,110.167 104.5,110.5C 104.297,112.044 103.63,113.378 102.5,114.5C 107.079,120.496 105.412,123.329 97.5,123C 96.944,123.383 96.6107,123.883 96.5,124.5C 95.0532,125.134 94.3866,126.301 94.5,128C 96.7691,131.509 98.4358,135.342 99.5,139.5C 97.9373,138.055 96.604,136.389 95.5,134.5C 94.7455,132.534 93.5788,132.2 92,133.5C 90.0868,137.978 88.9202,142.645 88.5,147.5C 87.7659,148.708 87.4326,150.041 87.5,151.5C 87.3627,155.876 87.196,160.209 87,164.5C 89.1696,164.388 91.3362,164.722 93.5,165.5C 91.057,169.783 88.3903,173.95 85.5,178C 87.3453,179.128 89.3453,179.628 91.5,179.5C 91.7852,181.288 91.4519,182.955 90.5,184.5C 87.6296,183.878 84.7963,183.211 82,182.5C 81.6258,183.416 81.1258,184.25 80.5,185C 84.0601,186.237 87.7267,186.737 91.5,186.5C 91.1558,189.562 90.4891,192.562 89.5,195.5C 88.8933,195.376 88.56,195.043 88.5,194.5C 89.0431,194.44 89.3764,194.107 89.5,193.5C 88.6667,193.167 87.8333,192.833 87,192.5C 83.9861,194.15 80.8194,194.65 77.5,194C 76.8095,192.933 76.3095,191.766 76,190.5C 74.8333,192.333 73.6667,194.167 72.5,196C 74.8098,196.497 77.1432,196.663 79.5,196.5C 78.8413,199.455 78.5079,202.455 78.5,205.5C 77.1667,205.5 75.8333,205.5 74.5,205.5C 74.3781,201.162 74.0447,200.828 73.5,204.5C 72.5,204.5 71.5,204.5 70.5,204.5C 70.6495,203.448 70.4828,202.448 70,201.5C 68.7792,202.774 67.9459,204.274 67.5,206C 69.1916,208.935 69.8583,212.102 69.5,215.5C 70.5,215.5 71.5,215.5 72.5,215.5C 72.5,212.833 72.5,210.167 72.5,207.5C 78.181,207.635 83.8477,207.968 89.5,208.5C 89.7771,211.448 89.4438,214.281 88.5,217C 80.7798,217.2 73.1131,217.367 65.5,217.5C 72.8618,218.198 80.5284,218.865 88.5,219.5C 88.5,221.167 88.5,222.833 88.5,224.5C 78.5,224.5 68.5,224.5 58.5,224.5C 59.8504,219.422 61.5171,214.422 63.5,209.5C 63.2907,208.914 62.9574,208.414 62.5,208C 64.7686,202.629 67.4353,197.463 70.5,192.5C 70.2907,191.914 69.9574,191.414 69.5,191C 76.2368,184.63 78.9034,177.13 77.5,168.5C 78.6994,165.044 80.1994,161.71 82,158.5C 82.3333,154.5 82.6667,150.5 83,146.5C 84.6625,144.842 85.4959,142.842 85.5,140.5C 87.7235,135.057 89.0568,129.391 89.5,123.5C 89.5569,122.391 89.8902,121.391 90.5,120.5C 94.3436,119.005 97.677,116.671 100.5,113.5C 99.8333,112.833 99.1667,112.167 98.5,111.5C 100.291,110.83 101.958,110.163 103.5,109.5 Z"/></g>
<g><path style="opacity:1" fill="#b25844" d="M 84.5,133.5 C 84.1667,133.5 83.8333,133.5 83.5,133.5C 81.8712,134.625 80.3712,135.959 79,137.5C 76.8628,141.491 75.0295,145.491 73.5,149.5C 71.9826,149.511 70.8159,150.177 70,151.5C 69.6068,149.801 70.1068,148.301 71.5,147C 71.0696,145.566 70.2362,144.399 69,143.5C 66.5904,146.716 63.7571,147.216 60.5,145C 61.1525,138.308 64.8192,134.141 71.5,132.5C 71.9943,130.974 72.661,129.641 73.5,128.5C 73.5,130.833 73.5,133.167 73.5,135.5C 75.5138,135.608 77.1805,134.942 78.5,133.5C 79.7884,130.128 81.7884,127.128 84.5,124.5C 84.8756,127.373 84.8756,130.373 84.5,133.5 Z"/></g>
<g><path style="opacity:1" fill="#b97c82" d="M 95.5,134.5 C 94.3772,139.47 92.0439,143.803 88.5,147.5C 88.9202,142.645 90.0868,137.978 92,133.5C 93.5788,132.2 94.7455,132.534 95.5,134.5 Z"/></g>
<g><path style="opacity:1" fill="#b5403b" d="M 95.5,134.5 C 96.604,136.389 97.9373,138.055 99.5,139.5C 100.167,140.833 100.833,142.167 101.5,143.5C 100.072,142.76 98.4053,142.76 96.5,143.5C 93.2773,145.592 91.2773,148.592 90.5,152.5C 90.44,153.043 90.1067,153.376 89.5,153.5C 88.8182,152.757 88.1515,152.091 87.5,151.5C 87.4326,150.041 87.7659,148.708 88.5,147.5C 92.0439,143.803 94.3772,139.47 95.5,134.5 Z"/></g>
<g><path style="opacity:1" fill="#656a71" d="M 159.5,141.5 C 160.573,142.251 160.74,143.251 160,144.5C 158.272,143.648 158.105,142.648 159.5,141.5 Z"/></g>
<g><path style="opacity:1" fill="#e7988b" d="M 96.5,143.5 C 95.2172,147.091 93.2172,150.091 90.5,152.5C 91.2773,148.592 93.2773,145.592 96.5,143.5 Z"/></g>
<g><path style="opacity:1" fill="#bdc0c6" d="M 197.5,143.5 C 200.522,143.844 203.188,145.011 205.5,147C 204.167,147.333 202.833,147.667 201.5,148C 203.635,149.381 205.968,150.381 208.5,151C 209.451,151.718 209.617,152.551 209,153.5C 204.592,151.598 200.092,149.764 195.5,148C 196.907,146.548 198.407,146.715 200,148.5C 200.167,148.167 200.333,147.833 200.5,147.5C 199.286,145.931 197.619,145.098 195.5,145C 196.416,144.722 197.082,144.222 197.5,143.5 Z"/></g>
<g><path style="opacity:1" fill="#edd3cc" d="M 101.5,143.5 C 102.434,144.568 102.768,145.901 102.5,147.5C 105.523,147.105 106.523,148.105 105.5,150.5C 107.167,153.167 108.833,155.833 110.5,158.5C 110,158.833 109.5,159.167 109,159.5C 105.585,158.316 102.251,156.982 99,155.5C 97.3364,158.327 96.1697,161.327 95.5,164.5C 94.8333,164.833 94.1667,165.167 93.5,165.5C 91.3362,164.722 89.1696,164.388 87,164.5C 87.196,160.209 87.3627,155.876 87.5,151.5C 88.1515,152.091 88.8182,152.757 89.5,153.5C 90.1067,153.376 90.44,153.043 90.5,152.5C 93.2172,150.091 95.2172,147.091 96.5,143.5C 98.4053,142.76 100.072,142.76 101.5,143.5 Z"/></g>
<g><path style="opacity:1" fill="#84868e" d="M 156.5,148.5 C 157.782,149.708 157.782,151.042 156.5,152.5C 154.206,151.375 154.206,150.041 156.5,148.5 Z"/></g>
<g><path style="opacity:1" fill="#a76c57" d="M 82.5,114.5 C 77.7085,118.493 76.2085,123.16 78,128.5C 76.0126,127.782 74.1792,126.782 72.5,125.5C 73.3256,124.549 73.4922,123.549 73,122.5C 69.6263,124.279 67.4596,126.946 66.5,130.5C 63.5531,133.965 60.0531,137.632 56,141.5C 54.658,148.091 53.8247,154.757 53.5,161.5C 52.9528,163.518 51.9528,165.351 50.5,167C 50.8333,167.333 51.1667,167.667 51.5,168C 50.5838,168.374 49.7504,168.874 49,169.5C 49.1995,173.697 48.0329,177.363 45.5,180.5C 46.8715,182.62 46.2048,183.62 43.5,183.5C 43.9628,180.779 44.6295,178.112 45.5,175.5C 46.9034,172.091 47.5701,168.425 47.5,164.5C 48.4345,163.432 48.7678,162.099 48.5,160.5C 49.2519,150.457 52.5852,141.457 58.5,133.5C 62.1384,129.526 65.8051,125.526 69.5,121.5C 73.2311,118.437 77.2311,115.77 81.5,113.5C 82.1067,113.624 82.44,113.957 82.5,114.5 Z"/></g>
<g><path style="opacity:1" fill="#757880" d="M 152.5,156.5 C 154.465,156.948 154.798,157.948 153.5,159.5C 151.481,158.867 151.147,157.867 152.5,156.5 Z"/></g>
<g><path style="opacity:1" fill="#ecc0b2" d="M 89.5,123.5 C 89.0568,129.391 87.7235,135.057 85.5,140.5C 83.8205,141.782 82.4871,143.449 81.5,145.5C 82.0508,152.414 79.5508,158.081 74,162.5C 71.3297,169.011 69.163,175.677 67.5,182.5C 66.675,183.386 65.675,183.719 64.5,183.5C 67.4603,172.627 71.7936,162.294 77.5,152.5C 77.1796,149.102 77.513,145.768 78.5,142.5C 79.9865,139.347 81.6532,136.347 83.5,133.5C 83.8333,133.5 84.1667,133.5 84.5,133.5C 85.8712,130.001 87.5379,126.667 89.5,123.5 Z"/></g>
<g><path style="opacity:1" fill="#afada9" d="M -0.5,157.5 C 15.8607,158.078 32.194,159.078 48.5,160.5C 48.7678,162.099 48.4345,163.432 47.5,164.5C 31.4801,162.965 15.4801,161.298 -0.5,159.5C -0.5,158.833 -0.5,158.167 -0.5,157.5 Z"/></g>
<g><path style="opacity:1" fill="#c4c6ca" d="M 190.5,156.5 C 193.658,157.876 196.991,158.542 200.5,158.5C 199.24,163.748 200.407,164.415 204,160.5C 205.946,160.763 206.612,161.763 206,163.5C 204.806,164.43 203.473,165.097 202,165.5C 197.609,165.066 193.443,163.899 189.5,162C 191.963,162.676 194.13,162.509 196,161.5C 197.908,164.332 198.741,163.999 198.5,160.5C 195.873,159.908 193.206,159.575 190.5,159.5C 190.5,158.5 190.5,157.5 190.5,156.5 Z"/></g>
<g><path style="opacity:1" fill="#cbc2b8" d="M -0.5,159.5 C 15.4801,161.298 31.4801,162.965 47.5,164.5C 47.5701,168.425 46.9034,172.091 45.5,175.5C 43.2082,174.534 40.7082,173.867 38,173.5C 36.6739,173.755 35.6739,174.422 35,175.5C 31.8317,173.399 28.3317,172.565 24.5,173C 27.0135,174.252 29.6802,174.752 32.5,174.5C 32.5792,175.93 32.2458,177.264 31.5,178.5C 27.9867,179.932 24.32,180.765 20.5,181C 23.146,181.497 25.8127,181.664 28.5,181.5C 28.5,184.167 28.5,186.833 28.5,189.5C 27.1667,189.5 25.8333,189.5 24.5,189.5C 24.1667,185.5 23.8333,185.5 23.5,189.5C 21.4884,190.014 19.4884,190.18 17.5,190C 18.4558,186.606 18.7892,183.106 18.5,179.5C 19.8333,179.5 21.1667,179.5 22.5,179.5C 22.7947,177.265 22.4614,175.265 21.5,173.5C 18.6795,172.363 15.6795,171.863 12.5,172C 11.1228,179.342 10.4561,179.176 10.5,171.5C 6.83333,171.5 3.16667,171.5 -0.5,171.5C -0.5,167.5 -0.5,163.5 -0.5,159.5 Z"/></g>
<g><path style="opacity:1" fill="#eeedeb" d="M 96.5,124.5 C 98.8458,127.871 101.179,131.204 103.5,134.5C 108.114,142.442 113.114,150.108 118.5,157.5C 123.08,160.798 128.08,163.632 133.5,166C 135.134,166.494 136.801,166.66 138.5,166.5C 139.29,167.794 140.29,168.961 141.5,170C 169.376,181.681 197.042,193.848 224.5,206.5C 224.5,211.167 224.5,215.833 224.5,220.5C 223.5,222.167 222.167,223.5 220.5,224.5C 177.5,224.5 134.5,224.5 91.5,224.5C 93.1599,204.268 94.4933,184.268 95.5,164.5C 96.1697,161.327 97.3364,158.327 99,155.5C 102.251,156.982 105.585,158.316 109,159.5C 109.5,159.167 110,158.833 110.5,158.5C 108.833,155.833 107.167,153.167 105.5,150.5C 106.523,148.105 105.523,147.105 102.5,147.5C 102.768,145.901 102.434,144.568 101.5,143.5C 100.833,142.167 100.167,140.833 99.5,139.5C 98.4358,135.342 96.7691,131.509 94.5,128C 94.3866,126.301 95.0532,125.134 96.5,124.5 Z"/></g>
<g><path style="opacity:1" fill="#a7aaaf" d="M 187.5,165.5 C 191.158,165.116 194.825,165.616 198.5,167C 197.192,167.824 195.692,168.324 194,168.5C 191.37,168.141 189.203,167.141 187.5,165.5 Z"/></g>
<g><path style="opacity:1" fill="#a8a29b" d="M -0.5,171.5 C 3.16667,171.5 6.83333,171.5 10.5,171.5C 10.4561,179.176 11.1228,179.342 12.5,172C 15.6795,171.863 18.6795,172.363 21.5,173.5C 18.5,173.5 15.5,173.5 12.5,173.5C 12.5,175.167 12.5,176.833 12.5,178.5C 10.8333,178.5 9.16667,178.5 7.5,178.5C 7.82036,181.898 7.48702,185.232 6.5,188.5C 6.34617,185.781 6.34617,182.781 6.5,179.5C 4.16667,179.5 1.83333,179.5 -0.5,179.5C -0.5,176.833 -0.5,174.167 -0.5,171.5 Z"/></g>
<g><path style="opacity:1" fill="#dad6d1" d="M 0.5,172.5 C 3.5,172.5 6.5,172.5 9.5,172.5C 9.66018,174.199 9.49351,175.866 9,177.5C 6.37867,177.296 3.54533,177.296 0.5,177.5C 0.5,175.833 0.5,174.167 0.5,172.5 Z"/></g>
<g><path style="opacity:1" fill="#d28e73" d="M 83.5,133.5 C 81.6532,136.347 79.9865,139.347 78.5,142.5C 77.513,145.768 77.1796,149.102 77.5,152.5C 76.2134,154.571 74.5467,154.904 72.5,153.5C 70.5188,154.105 70.1854,155.105 71.5,156.5C 69.1336,162.789 66.3003,168.789 63,174.5C 60.9003,180.968 58.7337,187.302 56.5,193.5C 56.423,189.785 56.7564,186.119 57.5,182.5C 59.3375,178.467 60.5041,174.133 61,169.5C 63.3927,167.381 64.7261,164.715 65,161.5C 67.5153,159.893 68.8487,157.56 69,154.5C 70.7073,152.963 72.2073,151.296 73.5,149.5C 75.0295,145.491 76.8628,141.491 79,137.5C 80.3712,135.959 81.8712,134.625 83.5,133.5 Z"/></g>
<g><path style="opacity:1" fill="#efcebf" d="M 81.5,145.5 C 83.0771,153.229 80.9104,159.562 75,164.5C 74.7262,170.301 73.7262,175.968 72,181.5C 71.3333,182.833 70.3333,183.833 69,184.5C 68.9882,191.221 66.6549,196.887 62,201.5C 60.2979,208.566 57.2979,214.899 53,220.5C 52.51,221.793 52.3433,223.127 52.5,224.5C 50.5,224.5 48.5,224.5 46.5,224.5C 50.6311,216.587 53.7978,208.253 56,199.5C 59.516,194.387 62.3493,189.053 64.5,183.5C 65.675,183.719 66.675,183.386 67.5,182.5C 69.163,175.677 71.3297,169.011 74,162.5C 79.5508,158.081 82.0508,152.414 81.5,145.5 Z"/></g>
<g><path style="opacity:1" fill="#cec6be" d="M 21.5,173.5 C 21.5,175.167 21.5,176.833 21.5,178.5C 17.1033,178.425 12.77,178.925 8.5,180C 11.4816,180.498 14.4816,180.665 17.5,180.5C 18.4858,185.158 17.1524,188.824 13.5,191.5C 16.2362,191.56 19.2362,191.893 22.5,192.5C 22.5,195.167 22.5,197.833 22.5,200.5C 19.5,200.5 16.5,200.5 13.5,200.5C 13.3841,197.14 13.0508,193.807 12.5,190.5C 11.448,190.351 10.448,190.517 9.5,191C 11.3213,193.456 11.988,196.289 11.5,199.5C 8.5,199.5 5.5,199.5 2.5,199.5C 2.33591,196.813 2.50258,194.146 3,191.5C 4.06743,190.809 5.23409,190.309 6.5,190C 4.01482,190.081 1.68148,189.914 -0.5,189.5C -0.5,186.167 -0.5,182.833 -0.5,179.5C 1.83333,179.5 4.16667,179.5 6.5,179.5C 6.34617,182.781 6.34617,185.781 6.5,188.5C 7.48702,185.232 7.82036,181.898 7.5,178.5C 9.16667,178.5 10.8333,178.5 12.5,178.5C 12.5,176.833 12.5,175.167 12.5,173.5C 15.5,173.5 18.5,173.5 21.5,173.5 Z"/></g>
<g><path style="opacity:1" fill="#f4ded5" d="M 85.5,140.5 C 85.4959,142.842 84.6625,144.842 83,146.5C 82.6667,150.5 82.3333,154.5 82,158.5C 80.1994,161.71 78.6994,165.044 77.5,168.5C 78.9034,177.13 76.2368,184.63 69.5,191C 69.9574,191.414 70.2907,191.914 70.5,192.5C 67.4353,197.463 64.7686,202.629 62.5,208C 62.9574,208.414 63.2907,208.914 63.5,209.5C 61.5171,214.422 59.8504,219.422 58.5,224.5C 56.5,224.5 54.5,224.5 52.5,224.5C 52.3433,223.127 52.51,221.793 53,220.5C 57.2979,214.899 60.2979,208.566 62,201.5C 66.6549,196.887 68.9882,191.221 69,184.5C 70.3333,183.833 71.3333,182.833 72,181.5C 73.7262,175.968 74.7262,170.301 75,164.5C 80.9104,159.562 83.0771,153.229 81.5,145.5C 82.4871,143.449 83.8205,141.782 85.5,140.5 Z"/></g>
<g><path style="opacity:1" fill="#b0674a" d="M 73.5,128.5 C 72.661,129.641 71.9943,130.974 71.5,132.5C 64.8192,134.141 61.1525,138.308 60.5,145C 63.7571,147.216 66.5904,146.716 69,143.5C 70.2362,144.399 71.0696,145.566 71.5,147C 70.1068,148.301 69.6068,149.801 70,151.5C 70.8159,150.177 71.9826,149.511 73.5,149.5C 72.2073,151.296 70.7073,152.963 69,154.5C 68.8487,157.56 67.5153,159.893 65,161.5C 64.7261,164.715 63.3927,167.381 61,169.5C 60.5041,174.133 59.3375,178.467 57.5,182.5C 56.8501,182.804 56.1835,183.137 55.5,183.5C 54.5159,186.428 54.1826,189.428 54.5,192.5C 53.5,192.5 52.5,192.5 51.5,192.5C 50.5318,197.796 49.5318,203.129 48.5,208.5C 47.2981,211.618 45.4647,214.284 43,216.5C 42.4577,219.292 41.6244,221.958 40.5,224.5C 39.1667,224.5 37.8333,224.5 36.5,224.5C 37.3709,220.819 38.3709,217.153 39.5,213.5C 38.6724,208.479 38.3391,203.312 38.5,198C 38.7852,196.11 39.7852,194.777 41.5,194C 40.7203,192.927 40.887,191.76 42,190.5C 43.8402,191.833 44.3402,191.666 43.5,190C 45.4248,188.405 47.4248,188.238 49.5,189.5C 49.8333,188.833 50.1667,188.167 50.5,187.5C 52.4095,181.288 53.7429,174.621 54.5,167.5C 53.6518,165.591 53.3184,163.591 53.5,161.5C 53.8247,154.757 54.658,148.091 56,141.5C 60.0531,137.632 63.5531,133.965 66.5,130.5C 66.369,131.239 66.5357,131.906 67,132.5C 68.6884,130.812 70.3551,129.145 72,127.5C 72.7648,127.57 73.2648,127.903 73.5,128.5 Z"/></g>
<g><path style="opacity:1" fill="#e0a991" d="M 77.5,152.5 C 71.7936,162.294 67.4603,172.627 64.5,183.5C 62.3493,189.053 59.516,194.387 56,199.5C 53.7978,208.253 50.6311,216.587 46.5,224.5C 45.5,224.5 44.5,224.5 43.5,224.5C 45.4835,219.579 47.9835,214.912 51,210.5C 52.2745,204.596 54.1078,198.929 56.5,193.5C 58.7337,187.302 60.9003,180.968 63,174.5C 66.3003,168.789 69.1336,162.789 71.5,156.5C 70.1854,155.105 70.5188,154.105 72.5,153.5C 74.5467,154.904 76.2134,154.571 77.5,152.5 Z"/></g>
<g><path style="opacity:1" fill="#c2bcb9" d="M 88.5,194.5 C 87.234,195.09 85.9007,195.59 84.5,196C 86.7078,196.191 88.7078,196.691 90.5,197.5C 87.5,197.5 84.5,197.5 81.5,197.5C 80.9455,201.012 81.6122,204.012 83.5,206.5C 85.6074,207.468 87.9407,207.802 90.5,207.5C 90.6653,211.182 90.4986,214.848 90,218.5C 89.6174,219.056 89.1174,219.389 88.5,219.5C 80.5284,218.865 72.8618,218.198 65.5,217.5C 73.1131,217.367 80.7798,217.2 88.5,217C 89.4438,214.281 89.7771,211.448 89.5,208.5C 83.8477,207.968 78.181,207.635 72.5,207.5C 72.5,210.167 72.5,212.833 72.5,215.5C 71.5,215.5 70.5,215.5 69.5,215.5C 69.8583,212.102 69.1916,208.935 67.5,206C 67.9459,204.274 68.7792,202.774 70,201.5C 70.4828,202.448 70.6495,203.448 70.5,204.5C 71.5,204.5 72.5,204.5 73.5,204.5C 74.0447,200.828 74.3781,201.162 74.5,205.5C 75.8333,205.5 77.1667,205.5 78.5,205.5C 78.5079,202.455 78.8413,199.455 79.5,196.5C 77.1432,196.663 74.8098,196.497 72.5,196C 73.6667,194.167 74.8333,192.333 76,190.5C 76.3095,191.766 76.8095,192.933 77.5,194C 80.8194,194.65 83.9861,194.15 87,192.5C 87.8333,192.833 88.6667,193.167 89.5,193.5C 89.3764,194.107 89.0431,194.44 88.5,194.5 Z"/></g>
<g><path style="opacity:1" fill="#ddd6d5" d="M 145.5,165.5 C 145.369,166.376 145.702,167.043 146.5,167.5C 172.583,179.545 198.583,191.545 224.5,203.5C 224.5,204.5 224.5,205.5 224.5,206.5C 197.042,193.848 169.376,181.681 141.5,170C 140.29,168.961 139.29,167.794 138.5,166.5C 140.535,164.27 142.868,163.937 145.5,165.5 Z"/></g>
<g><path style="opacity:1" fill="#edebeb" d="M 90.5,197.5 C 90.4921,200.545 90.1587,203.545 89.5,206.5C 87.5,206.5 85.5,206.5 83.5,206.5C 81.6122,204.012 80.9455,201.012 81.5,197.5C 84.5,197.5 87.5,197.5 90.5,197.5 Z"/></g>
<g><path style="opacity:1" fill="#aea59c" d="M 45.5,175.5 C 44.6295,178.112 43.9628,180.779 43.5,183.5C 41.8874,186.286 40.054,188.953 38,191.5C 35.242,202.943 31.4087,213.943 26.5,224.5C 18.8333,224.5 11.1667,224.5 3.5,224.5C 2.30646,223.728 1.30646,222.728 0.5,221.5C 6.83107,221.89 9.1644,218.89 7.5,212.5C 4.83333,212.5 2.16667,212.5 -0.5,212.5C -0.5,204.833 -0.5,197.167 -0.5,189.5C 1.68148,189.914 4.01482,190.081 6.5,190C 5.23409,190.309 4.06743,190.809 3,191.5C 2.50258,194.146 2.33591,196.813 2.5,199.5C 5.5,199.5 8.5,199.5 11.5,199.5C 11.988,196.289 11.3213,193.456 9.5,191C 10.448,190.517 11.448,190.351 12.5,190.5C 13.0508,193.807 13.3841,197.14 13.5,200.5C 16.5,200.5 19.5,200.5 22.5,200.5C 22.5,197.833 22.5,195.167 22.5,192.5C 19.2362,191.893 16.2362,191.56 13.5,191.5C 17.1524,188.824 18.4858,185.158 17.5,180.5C 14.4816,180.665 11.4816,180.498 8.5,180C 12.77,178.925 17.1033,178.425 21.5,178.5C 21.5,176.833 21.5,175.167 21.5,173.5C 22.4614,175.265 22.7947,177.265 22.5,179.5C 21.1667,179.5 19.8333,179.5 18.5,179.5C 18.7892,183.106 18.4558,186.606 17.5,190C 19.4884,190.18 21.4884,190.014 23.5,189.5C 23.8333,185.5 24.1667,185.5 24.5,189.5C 25.8333,189.5 27.1667,189.5 28.5,189.5C 28.5,186.833 28.5,184.167 28.5,181.5C 25.8127,181.664 23.146,181.497 20.5,181C 24.32,180.765 27.9867,179.932 31.5,178.5C 32.2458,177.264 32.5792,175.93 32.5,174.5C 29.6802,174.752 27.0135,174.252 24.5,173C 28.3317,172.565 31.8317,173.399 35,175.5C 35.6739,174.422 36.6739,173.755 38,173.5C 40.7082,173.867 43.2082,174.534 45.5,175.5 Z"/></g>
<g><path style="opacity:1" fill="#cdc4bb" d="M 16.5,202.5 C 19.1667,202.833 21.8333,203.167 24.5,203.5C 24.5,206.167 24.5,208.833 24.5,211.5C 21.5,211.5 18.5,211.5 15.5,211.5C 15.3677,208.43 15.701,205.43 16.5,202.5 Z"/></g>
<g><path style="opacity:1" fill="#d3cbc4" d="M 5.5,201.5 C 8.12717,202.092 10.7938,202.425 13.5,202.5C 13.5,205.167 13.5,207.833 13.5,210.5C 10.5,210.5 7.5,210.5 4.5,210.5C 4.26414,207.391 4.59748,204.391 5.5,201.5 Z"/></g>
<g><path style="opacity:1" fill="#d5cfcc" d="M 95.5,164.5 C 94.4933,184.268 93.1599,204.268 91.5,224.5C 90.5,224.5 89.5,224.5 88.5,224.5C 88.5,222.833 88.5,221.167 88.5,219.5C 89.1174,219.389 89.6174,219.056 90,218.5C 90.4986,214.848 90.6653,211.182 90.5,207.5C 87.9407,207.802 85.6074,207.468 83.5,206.5C 85.5,206.5 87.5,206.5 89.5,206.5C 90.1587,203.545 90.4921,200.545 90.5,197.5C 88.7078,196.691 86.7078,196.191 84.5,196C 85.9007,195.59 87.234,195.09 88.5,194.5C 88.56,195.043 88.8933,195.376 89.5,195.5C 90.4891,192.562 91.1558,189.562 91.5,186.5C 87.7267,186.737 84.0601,186.237 80.5,185C 81.1258,184.25 81.6258,183.416 82,182.5C 84.7963,183.211 87.6296,183.878 90.5,184.5C 91.4519,182.955 91.7852,181.288 91.5,179.5C 89.3453,179.628 87.3453,179.128 85.5,178C 88.3903,173.95 91.057,169.783 93.5,165.5C 94.1667,165.167 94.8333,164.833 95.5,164.5 Z"/></g>
<g><path style="opacity:1" fill="#c98260" d="M 57.5,182.5 C 56.7564,186.119 56.423,189.785 56.5,193.5C 54.1078,198.929 52.2745,204.596 51,210.5C 47.9835,214.912 45.4835,219.579 43.5,224.5C 42.5,224.5 41.5,224.5 40.5,224.5C 41.6244,221.958 42.4577,219.292 43,216.5C 45.4647,214.284 47.2981,211.618 48.5,208.5C 49.5318,203.129 50.5318,197.796 51.5,192.5C 52.5,192.5 53.5,192.5 54.5,192.5C 54.1826,189.428 54.5159,186.428 55.5,183.5C 56.1835,183.137 56.8501,182.804 57.5,182.5 Z"/></g>
<g><path style="opacity:0.891" fill="#cec6bd" d="M -0.5,212.5 C 2.16667,212.5 4.83333,212.5 7.5,212.5C 9.1644,218.89 6.83107,221.89 0.5,221.5C 0.5,220.833 0.166667,220.5 -0.5,220.5C -0.5,217.833 -0.5,215.167 -0.5,212.5 Z"/></g>
<g><path style="opacity:1" fill="#a36648" d="M 53.5,161.5 C 53.3184,163.591 53.6518,165.591 54.5,167.5C 53.7429,174.621 52.4095,181.288 50.5,187.5C 50.1667,188.167 49.8333,188.833 49.5,189.5C 47.4248,188.238 45.4248,188.405 43.5,190C 44.3402,191.666 43.8402,191.833 42,190.5C 40.887,191.76 40.7203,192.927 41.5,194C 39.7852,194.777 38.7852,196.11 38.5,198C 38.3391,203.312 38.6724,208.479 39.5,213.5C 38.3709,217.153 37.3709,220.819 36.5,224.5C 33.1667,224.5 29.8333,224.5 26.5,224.5C 31.4087,213.943 35.242,202.943 38,191.5C 40.054,188.953 41.8874,186.286 43.5,183.5C 46.2048,183.62 46.8715,182.62 45.5,180.5C 48.0329,177.363 49.1995,173.697 49,169.5C 49.7504,168.874 50.5838,168.374 51.5,168C 51.1667,167.667 50.8333,167.333 50.5,167C 51.9528,165.351 52.9528,163.518 53.5,161.5 Z"/></g>
<g><path style="opacity:1" fill="#cac2b9" d="M 9.5,213.5 C 12.5,213.5 15.5,213.5 18.5,213.5C 18.5,216.167 18.5,218.833 18.5,221.5C 15.5,221.5 12.5,221.5 9.5,221.5C 9.5,218.833 9.5,216.167 9.5,213.5 Z"/></g>
</svg>
