<?xml version="1.0" encoding="UTF-8"?>
<!DOCTYPE svg PUBLIC "-//W3C//DTD SVG 1.1//EN" "http://www.w3.org/Graphics/SVG/1.1/DTD/svg11.dtd">
<svg xmlns="http://www.w3.org/2000/svg" version="1.1" width="335px" height="36px" style="shape-rendering:geometricPrecision; text-rendering:geometricPrecision; image-rendering:optimizeQuality; fill-rule:evenodd; clip-rule:evenodd" xmlns:xlink="http://www.w3.org/1999/xlink">
<g><path style="opacity:0.589" fill="#5c5c59" d="M 9.5,1.5 C 11.924,1.19244 14.2573,1.52577 16.5,2.5C 15.0221,5.63212 14.0221,8.96545 13.5,12.5C 12.5159,9.57186 12.1826,6.57186 12.5,3.5C 10.8212,3.71481 9.82124,3.04814 9.5,1.5 Z"/></g>
<g><path style="opacity:0.501" fill="#5c5c5b" d="M 52.5,1.5 C 54.337,1.63945 54.6704,2.30612 53.5,3.5C 52.7025,3.04311 52.3691,2.37644 52.5,1.5 Z"/></g>
<g><path style="opacity:0.575" fill="#5c5c5a" d="M 69.5,1.5 C 71.0481,1.82124 71.7148,2.82124 71.5,4.5C 74.7343,4.23656 76.0676,5.73656 75.5,9C 75.1667,10.1667 74.8333,11.3333 74.5,12.5C 73.1667,4.5 71.8333,4.5 70.5,12.5C 69.5108,8.89272 69.1774,5.22605 69.5,1.5 Z"/></g>
<g><path style="opacity:0.595" fill="#5c5c59" d="M 92.5,1.5 C 93.5,1.5 94.5,1.5 95.5,1.5C 95.3287,4.79731 95.9954,5.13065 97.5,2.5C 98.4147,3.32791 99.0814,4.32791 99.5,5.5C 98.1667,7.5 98.1667,9.5 99.5,11.5C 98.675,12.3857 97.675,12.719 96.5,12.5C 96.1667,4.5 95.8333,4.5 95.5,12.5C 94.5,12.5 93.5,12.5 92.5,12.5C 92.5,8.83333 92.5,5.16667 92.5,1.5 Z"/></g>
<g><path style="opacity:0.537" fill="#5c5c5a" d="M 184.5,1.5 C 185.787,2.87135 186.453,4.70469 186.5,7C 186.167,8.83333 185.833,10.6667 185.5,12.5C 184.511,8.89272 184.177,5.22605 184.5,1.5 Z"/></g>
<g><path style="opacity:0.522" fill="#5c5c5b" d="M 207.5,1.5 C 209.337,1.63945 209.67,2.30612 208.5,3.5C 207.702,3.04311 207.369,2.37644 207.5,1.5 Z"/></g>
<g><path style="opacity:0.418" fill="#5c5c5b" d="M 271.5,1.5 C 273.337,1.63945 273.67,2.30612 272.5,3.5C 271.702,3.04311 271.369,2.37644 271.5,1.5 Z"/></g>
<g><path style="opacity:0.569" fill="#5c5c5a" d="M 65.5,2.5 C 67.1207,2.7869 68.1207,3.7869 68.5,5.5C 67.7498,7.93018 67.4165,10.2635 67.5,12.5C 65.8872,10.5395 64.8872,8.20613 64.5,5.5C 65.1272,4.58317 65.4606,3.58317 65.5,2.5 Z"/></g>
<g><path style="opacity:0.627" fill="#5c5c5b" d="M 100.5,1.5 C 102.337,1.63945 102.67,2.30612 101.5,3.5C 100.702,3.04311 100.369,2.37644 100.5,1.5 Z"/></g>
<g><path style="opacity:0.5" fill="#5d5d5b" d="M 262.5,1.5 C 264.337,1.63945 264.67,2.30612 263.5,3.5C 262.702,3.04311 262.369,2.37644 262.5,1.5 Z"/></g>
<g><path style="opacity:0.623" fill="#5c5c5a" d="M 41.5,0.5 C 43.9272,1.27885 43.9272,2.44552 41.5,4C 42.7932,4.49001 44.1266,4.65668 45.5,4.5C 45.5958,8.31074 46.2624,8.31074 47.5,4.5C 48.2228,7.89436 47.7228,11.2277 46,14.5C 45.1072,15.7112 44.2739,15.7112 43.5,14.5C 44.7308,11.4616 44.5641,8.46164 43,5.5C 41.9568,7.70056 41.1235,10.0339 40.5,12.5C 39.1934,4.60636 38.5267,4.60636 38.5,12.5C 35.4532,13.1446 33.2865,12.1446 32,9.5C 31.7508,10.624 31.2508,11.624 30.5,12.5C 29.1667,8.83333 29.1667,5.16667 30.5,1.5C 31.2811,2.72865 31.7811,4.06199 32,5.5C 34.4728,4.88025 36.9728,4.21358 39.5,3.5C 40.1925,2.48224 40.8592,1.48224 41.5,0.5 Z M 34.5,5.5 C 35.6129,6.94639 35.7796,8.61305 35,10.5C 33.4807,8.86082 33.314,7.19416 34.5,5.5 Z"/></g>
<g><path style="opacity:0.063" fill="#5e5e5d" d="M 36.5,1.5 C 37.3764,1.36912 38.0431,1.70245 38.5,2.5C 36.1916,3.87342 35.5249,3.54009 36.5,1.5 Z"/></g>
<g><path style="opacity:0.575" fill="#5c5c5a" d="M 52.5,4.5 C 53.7479,5.3339 54.4146,6.66723 54.5,8.5C 54.1667,9.83333 53.8333,11.1667 53.5,12.5C 52.52,9.91355 52.1866,7.24688 52.5,4.5 Z"/></g>
<g><path style="opacity:0.622" fill="#5c5c5a" d="M 86.5,4.5 C 88.1644,5.94881 88.9977,7.94881 89,10.5C 89.1922,8.4233 89.6922,6.4233 90.5,4.5C 91.48,7.08645 91.8134,9.75312 91.5,12.5C 89.8333,12.5 88.1667,12.5 86.5,12.5C 86.5,9.83333 86.5,7.16667 86.5,4.5 Z"/></g>
<g><path style="opacity:0.588" fill="#5c5c5a" d="M 100.5,4.5 C 101.748,5.3339 102.415,6.66723 102.5,8.5C 102.167,9.83333 101.833,11.1667 101.5,12.5C 100.52,9.91355 100.187,7.24688 100.5,4.5 Z"/></g>
<g><path style="opacity:0.645" fill="#5c5c5a" d="M 119.5,4.5 C 119.5,4.83333 119.5,5.16667 119.5,5.5C 119.5,7.83333 119.5,10.1667 119.5,12.5C 116.346,11.9054 113.346,11.9054 110.5,12.5C 110.473,4.60636 109.807,4.60636 108.5,12.5C 107.167,4.5 105.833,4.5 104.5,12.5C 103.52,9.91355 103.187,7.24688 103.5,4.5C 106.572,4.18259 109.572,4.51592 112.5,5.5C 114.007,9.35475 114.674,9.02142 114.5,4.5C 116.167,4.5 117.833,4.5 119.5,4.5 Z M 116.5,5.5 C 117.773,6.07683 117.773,6.7435 116.5,7.5C 115.537,7.03017 115.537,6.3635 116.5,5.5 Z M 116.5,8.5 C 117.773,9.07683 117.773,9.7435 116.5,10.5C 115.537,10.0302 115.537,9.3635 116.5,8.5 Z"/></g>
<g><path style="opacity:0.602" fill="#5c5c5a" d="M 119.5,5.5 C 119.5,5.16667 119.5,4.83333 119.5,4.5C 120.735,4.27858 121.735,3.61191 122.5,2.5C 123.333,3.5 124.167,4.5 125,5.5C 126.699,4.59391 128.533,4.26057 130.5,4.5C 130.5,6.16667 130.5,7.83333 130.5,9.5C 125.318,9.55732 125.318,10.224 130.5,11.5C 129.667,11.8333 128.833,12.1667 128,12.5C 125.877,11.4172 123.71,11.4172 121.5,12.5C 121.662,10.4727 121.495,8.4727 121,6.5C 120.617,5.94404 120.117,5.61071 119.5,5.5 Z M 127.5,5.5 C 128.773,6.07683 128.773,6.7435 127.5,7.5C 126.537,7.03017 126.537,6.3635 127.5,5.5 Z"/></g>
<g><path style="opacity:0.616" fill="#5d5d5a" d="M 135.5,4.5 C 137.144,4.28649 138.644,4.61983 140,5.5C 140.497,7.80982 140.663,10.1432 140.5,12.5C 138.533,12.7394 136.699,12.4061 135,11.5C 135.362,9.10714 135.529,6.77381 135.5,4.5 Z M 137.5,8.5 C 138.773,9.07683 138.773,9.7435 137.5,10.5C 136.537,10.0302 136.537,9.3635 137.5,8.5 Z"/></g>
<g><path style="opacity:0.643" fill="#5c5c5a" d="M 141.5,4.5 C 147.067,3.75322 148.9,6.08656 147,11.5C 145.989,12.3366 144.822,12.67 143.5,12.5C 143.719,13.675 143.386,14.675 142.5,15.5C 141.511,11.8927 141.177,8.22605 141.5,4.5 Z M 143.5,6.5 C 144.586,6.61998 145.253,7.28665 145.5,8.5C 145.167,9.16667 144.833,9.83333 144.5,10.5C 143.571,9.31116 143.238,7.97782 143.5,6.5 Z"/></g>
<g><path style="opacity:0.612" fill="#5d5d5a" d="M 148.5,4.5 C 154.067,3.75322 155.9,6.08656 154,11.5C 152.989,12.3366 151.822,12.67 150.5,12.5C 150.719,13.675 150.386,14.675 149.5,15.5C 148.511,11.8927 148.177,8.22605 148.5,4.5 Z M 150.5,6.5 C 151.586,6.61998 152.253,7.28665 152.5,8.5C 152.167,9.16667 151.833,9.83333 151.5,10.5C 150.571,9.31116 150.238,7.97782 150.5,6.5 Z"/></g>
<g><path style="opacity:0.616" fill="#5c5c5b" d="M 160.5,0.5 C 162.927,1.27885 162.927,2.44552 160.5,4C 161.416,4.37424 162.25,4.87424 163,5.5C 166.781,5.9533 170.281,5.9533 173.5,5.5C 172.119,7.63485 171.119,9.96818 170.5,12.5C 169.749,11.624 169.249,10.624 169,9.5C 168.051,12.1997 166.217,13.033 163.5,12C 162.897,10.1746 162.23,8.34126 161.5,6.5C 160.833,8.5 160.167,10.5 159.5,12.5C 157.23,7.99679 157.564,3.99679 160.5,0.5 Z M 165.5,5.5 C 168.071,7.1007 168.071,8.76737 165.5,10.5C 164.334,8.83268 164.334,7.16602 165.5,5.5 Z"/></g>
<g><path style="opacity:0.637" fill="#5d5d5a" d="M 177.5,4.5 C 183.067,3.75322 184.9,6.08656 183,11.5C 181.989,12.3366 180.822,12.67 179.5,12.5C 179.719,13.675 179.386,14.675 178.5,15.5C 177.511,11.8927 177.177,8.22605 177.5,4.5 Z M 179.5,6.5 C 180.586,6.61998 181.253,7.28665 181.5,8.5C 181.167,9.16667 180.833,9.83333 180.5,10.5C 179.571,9.31116 179.238,7.97782 179.5,6.5 Z"/></g>
<g><path style="opacity:0.658" fill="#5d5d59" d="M 187.5,4.5 C 189.467,4.26057 191.301,4.59391 193,5.5C 193.497,7.80982 193.663,10.1432 193.5,12.5C 191.5,12.5 189.5,12.5 187.5,12.5C 187.5,9.83333 187.5,7.16667 187.5,4.5 Z"/></g>
<g><path style="opacity:0.653" fill="#5c5c5a" d="M 194.5,4.5 C 196.167,4.5 197.833,4.5 199.5,4.5C 199.813,7.24688 199.48,9.91355 198.5,12.5C 197.692,10.5767 197.192,8.5767 197,6.5C 196.808,8.5767 196.308,10.5767 195.5,12.5C 194.52,9.91355 194.187,7.24688 194.5,4.5 Z"/></g>
<g><path style="opacity:0.621" fill="#5c5c5a" d="M 200.5,4.5 C 202.5,4.5 204.5,4.5 206.5,4.5C 206.203,14.209 205.37,14.5423 204,5.5C 202.957,7.70056 202.123,10.0339 201.5,12.5C 200.52,9.91355 200.187,7.24688 200.5,4.5 Z"/></g>
<g><path style="opacity:0.575" fill="#5c5c5a" d="M 207.5,4.5 C 208.748,5.3339 209.415,6.66723 209.5,8.5C 209.167,9.83333 208.833,11.1667 208.5,12.5C 207.52,9.91355 207.187,7.24688 207.5,4.5 Z"/></g>
<g><path style="opacity:0.621" fill="#5c5c5a" d="M 210.5,4.5 C 212.5,4.5 214.5,4.5 216.5,4.5C 216.203,14.209 215.37,14.5423 214,5.5C 212.957,7.70056 212.123,10.0339 211.5,12.5C 210.52,9.91355 210.187,7.24688 210.5,4.5 Z"/></g>
<g><path style="opacity:0.618" fill="#5d5d5a" d="M 218.5,4.5 C 220.167,4.5 221.833,4.5 223.5,4.5C 223.665,7.8499 223.498,11.1832 223,14.5C 221.035,15.885 219.202,15.7184 217.5,14C 217.367,10.8806 217.7,7.71394 218.5,4.5 Z M 219.5,6.5 C 220.586,6.61998 221.253,7.28665 221.5,8.5C 221.167,9.16667 220.833,9.83333 220.5,10.5C 219.571,9.31116 219.238,7.97782 219.5,6.5 Z"/></g>
<g><path style="opacity:0.645" fill="#5c5c5a" d="M 237.5,4.5 C 240.731,5.3678 244.065,5.3678 247.5,4.5C 247.665,7.8499 247.498,11.1832 247,14.5C 245.644,15.3802 244.144,15.7135 242.5,15.5C 242.345,12.3908 241.678,9.39077 240.5,6.5C 239.833,8.5 239.167,10.5 238.5,12.5C 237.52,9.91355 237.187,7.24688 237.5,4.5 Z M 243.5,6.5 C 244.586,6.61998 245.253,7.28665 245.5,8.5C 245.167,9.16667 244.833,9.83333 244.5,10.5C 243.571,9.31116 243.238,7.97782 243.5,6.5 Z"/></g>
<g><path style="opacity:0.618" fill="#5d5d5a" d="M 249.5,4.5 C 251.144,4.28649 252.644,4.61983 254,5.5C 254.497,7.80982 254.663,10.1432 254.5,12.5C 252.533,12.7394 250.699,12.4061 249,11.5C 249.362,9.10714 249.529,6.77381 249.5,4.5 Z M 251.5,8.5 C 252.773,9.07683 252.773,9.7435 251.5,10.5C 250.537,10.0302 250.537,9.3635 251.5,8.5 Z"/></g>
<g><path style="opacity:0.697" fill="#5c5c59" d="M 255.5,4.5 C 261.367,4.20559 263.033,6.87226 260.5,12.5C 259.167,4.5 257.833,4.5 256.5,12.5C 255.52,9.91355 255.187,7.24688 255.5,4.5 Z"/></g>
<g><path style="opacity:0.525" fill="#5c5c5a" d="M 271.5,4.5 C 272.748,5.3339 273.415,6.66723 273.5,8.5C 273.167,9.83333 272.833,11.1667 272.5,12.5C 271.52,9.91355 271.187,7.24688 271.5,4.5 Z"/></g>
<g><path style="opacity:0.565" fill="#5c5c5a" d="M 274.5,4.5 C 276.5,4.5 278.5,4.5 280.5,4.5C 280.813,7.24688 280.48,9.91355 279.5,12.5C 278.167,4.5 276.833,4.5 275.5,12.5C 274.52,9.91355 274.187,7.24688 274.5,4.5 Z"/></g>
<g><path style="opacity:0.638" fill="#5d5d5a" d="M 281.5,4.5 C 283.5,4.5 285.5,4.5 287.5,4.5C 287.336,7.1873 287.503,9.85397 288,12.5C 288.743,10.3553 289.576,10.1886 290.5,12C 289.993,14.3413 288.826,14.8413 287,13.5C 285.406,15.9818 283.572,16.1485 281.5,14C 281.781,10.9832 281.781,7.81655 281.5,4.5 Z M 283.5,6.5 C 284.586,6.61998 285.253,7.28665 285.5,8.5C 285.167,9.16667 284.833,9.83333 284.5,10.5C 283.571,9.31116 283.238,7.97782 283.5,6.5 Z"/></g>
<g><path style="opacity:0.598" fill="#5d5d5a" d="M 17.5,4.5 C 21.5,3.83333 23.1667,5.5 22.5,9.5C 23.552,9.64945 24.552,9.48278 25.5,9C 23.8934,7.95101 23.2267,6.45101 23.5,4.5C 25.1667,4.5 26.8333,4.5 28.5,4.5C 27.6285,7.06176 27.6285,9.72842 28.5,12.5C 26.2341,12.8588 24.4007,12.1922 23,10.5C 21.5822,12.3632 19.7489,12.8632 17.5,12C 16.2215,9.50241 16.2215,7.00241 17.5,4.5 Z M 19.5,8.5 C 20.7733,9.07683 20.7733,9.7435 19.5,10.5C 18.537,10.0302 18.537,9.3635 19.5,8.5 Z"/></g>
<g><path style="opacity:0.648" fill="#5d5d5a" d="M 56.5,4.5 C 58.1439,4.28649 59.6439,4.61983 61,5.5C 61.2046,7.58247 61.0379,9.74913 60.5,12C 58.8876,12.7203 57.3876,12.5536 56,11.5C 55.5439,10.2559 56.0439,9.42258 57.5,9C 55.4523,7.77413 55.119,6.27413 56.5,4.5 Z"/></g>
<g><path style="opacity:0.586" fill="#5c5c5a" d="M 231.5,4.5 C 233.167,4.5 234.833,4.5 236.5,4.5C 236.663,6.85684 236.497,9.19018 236,11.5C 234.333,12.8333 232.667,12.8333 231,11.5C 230.297,9.07085 230.463,6.73752 231.5,4.5 Z M 232.5,6.5 C 233.586,6.61998 234.253,7.28665 234.5,8.5C 234.167,9.16667 233.833,9.83333 233.5,10.5C 232.571,9.31116 232.238,7.97782 232.5,6.5 Z"/></g>
<g><path style="opacity:0.361" fill="#5c5c5a" d="M 262.5,4.5 C 263.748,5.3339 264.415,6.66723 264.5,8.5C 264.167,9.83333 263.833,11.1667 263.5,12.5C 262.52,9.91355 262.187,7.24688 262.5,4.5 Z"/></g>
<g><path style="opacity:0.605" fill="#5c5c5a" d="M 265.5,4.5 C 270.69,3.93546 271.69,5.60213 268.5,9.5C 269.167,10.1667 269.833,10.8333 270.5,11.5C 268.955,12.4519 267.288,12.7852 265.5,12.5C 265.472,10.4176 266.139,8.5843 267.5,7C 266.244,6.58309 265.577,5.74975 265.5,4.5 Z"/></g>
<g><path style="opacity:0.571" fill="#5c5c5a" d="M 76.5,4.5 C 80.938,3.42508 82.938,5.09175 82.5,9.5C 77.2063,9.68216 77.2063,10.1822 82.5,11C 81.0696,12.4404 79.403,12.7737 77.5,12C 76.565,9.6194 76.2317,7.1194 76.5,4.5 Z"/></g>
<g><path style="opacity:0.605" fill="#5c5c5a" d="M 224.5,10.5 C 226.97,11.3603 227.137,12.6936 225,14.5C 224.51,13.2068 224.343,11.8734 224.5,10.5 Z"/></g>
<g><path style="opacity:0.611" fill="#5c5c5a" d="M 32.5,19.5 C 34.4136,22.6843 35.0803,26.351 34.5,30.5C 32.5328,30.7394 30.6995,30.4061 29,29.5C 28.5034,27.1902 28.3367,24.8568 28.5,22.5C 29.8333,22.5 31.1667,22.5 32.5,22.5C 32.5,21.5 32.5,20.5 32.5,19.5 Z M 30.5,24.5 C 31.5862,24.62 32.2528,25.2867 32.5,26.5C 32.1667,27.1667 31.8333,27.8333 31.5,28.5C 30.5713,27.3112 30.238,25.9778 30.5,24.5 Z"/></g>
<g><path style="opacity:0.366" fill="#5d5d5a" d="M 52.5,19.5 C 53.7868,20.8714 54.4535,22.7047 54.5,25C 54.1667,26.8333 53.8333,28.6667 53.5,30.5C 52.5108,26.8927 52.1774,23.226 52.5,19.5 Z"/></g>
<g><path style="opacity:0.597" fill="#5c5c59" d="M 55.5,19.5 C 56.7868,20.8714 57.4535,22.7047 57.5,25C 57.1667,26.8333 56.8333,28.6667 56.5,30.5C 55.5108,26.8927 55.1774,23.226 55.5,19.5 Z"/></g>
<g><path style="opacity:0.594" fill="#5c5c5a" d="M 154.5,23.5 C 156.339,22.2475 158.172,22.2475 160,23.5C 159.77,25.3846 159.77,27.3846 160,29.5C 157.768,30.1874 155.602,30.5207 153.5,30.5C 152.522,30.0233 151.689,29.3567 151,28.5C 150.692,29.3081 150.192,29.9747 149.5,30.5C 148.167,26.8333 148.167,23.1667 149.5,19.5C 150.281,20.7287 150.781,22.062 151,23.5C 152.292,22.2089 153.458,22.2089 154.5,23.5 Z M 154.5,23.5 C 154.733,25.0618 155.4,26.3951 156.5,27.5C 153.461,28.969 152.294,27.969 153,24.5C 153.383,23.944 153.883,23.6107 154.5,23.5 Z"/></g>
<g><path style="opacity:0.606" fill="#5d5d5a" d="M 168.5,19.5 C 172.42,19.0428 174.92,20.7095 176,24.5C 176.674,23.4216 177.674,22.7549 179,22.5C 180.669,23.1662 182.169,23.1662 183.5,22.5C 184.192,23.0253 184.692,23.6919 185,24.5C 187.071,21.5845 188.405,21.9178 189,25.5C 189.249,24.376 189.749,23.376 190.5,22.5C 191.303,25.3119 190.803,27.9785 189,30.5C 187.956,29.3774 187.29,28.0441 187,26.5C 185.249,31.6573 183.915,31.3239 183,25.5C 181.561,31.2228 178.894,31.8895 175,27.5C 173.713,30.1446 171.547,31.1446 168.5,30.5C 168.5,26.8333 168.5,23.1667 168.5,19.5 Z M 170.5,21.5 C 171.725,22.1522 172.392,23.3189 172.5,25C 172.167,26.1667 171.833,27.3333 171.5,28.5C 170.526,26.2573 170.192,23.924 170.5,21.5 Z M 178.5,23.5 C 180.561,24.7514 180.894,26.4181 179.5,28.5C 177.296,27.218 176.962,25.5514 178.5,23.5 Z"/></g>
<g><path style="opacity:0.629" fill="#5c5c5b" d="M 215.5,29.5 C 215.338,27.4727 215.505,25.4727 216,23.5C 217.011,22.6634 218.178,22.33 219.5,22.5C 219.281,21.325 219.614,20.325 220.5,19.5C 221.489,23.1073 221.823,26.774 221.5,30.5C 219.379,30.6747 217.379,30.3414 215.5,29.5 Z M 217.5,24.5 C 218.586,24.62 219.253,25.2867 219.5,26.5C 219.167,27.1667 218.833,27.8333 218.5,28.5C 217.571,27.3112 217.238,25.9778 217.5,24.5 Z"/></g>
<g><path style="opacity:0.622" fill="#5c5c59" d="M 280.5,19.5 C 282.414,22.6843 283.08,26.351 282.5,30.5C 279.453,31.1446 277.287,30.1446 276,27.5C 275.751,28.624 275.251,29.624 274.5,30.5C 273.167,22.5 271.833,22.5 270.5,30.5C 269.52,27.9135 269.187,25.2469 269.5,22.5C 272.547,21.8554 274.713,22.8554 276,25.5C 276.483,24.552 276.649,23.552 276.5,22.5C 277.833,22.5 279.167,22.5 280.5,22.5C 280.5,21.5 280.5,20.5 280.5,19.5 Z M 278.5,24.5 C 279.586,24.62 280.253,25.2867 280.5,26.5C 280.167,27.1667 279.833,27.8333 279.5,28.5C 278.571,27.3112 278.238,25.9778 278.5,24.5 Z"/></g>
<g><path style="opacity:0.58" fill="#5c5c5a" d="M 90.5,20.5 C 92.1207,20.7869 93.1207,21.7869 93.5,23.5C 92.1667,25.5 92.1667,27.5 93.5,29.5C 92.675,30.3857 91.675,30.719 90.5,30.5C 90.0181,27.0542 90.0181,23.7209 90.5,20.5 Z"/></g>
<g><path style="opacity:0.531" fill="#5d5d5a" d="M 94.5,19.5 C 96.337,19.6395 96.6704,20.3061 95.5,21.5C 94.7025,21.0431 94.3691,20.3764 94.5,19.5 Z"/></g>
<g><path style="opacity:0.625" fill="#5c5c5a" d="M 131.5,20.5 C 133.121,20.7869 134.121,21.7869 134.5,23.5C 133.167,25.5 133.167,27.5 134.5,29.5C 133.675,30.3857 132.675,30.719 131.5,30.5C 131.018,27.0542 131.018,23.7209 131.5,20.5 Z"/></g>
<g><path style="opacity:0.531" fill="#5d5d5b" d="M 226.5,19.5 C 228.337,19.6395 228.67,20.3061 227.5,21.5C 226.702,21.0431 226.369,20.3764 226.5,19.5 Z"/></g>
<g><path style="opacity:0.659" fill="#5c5c5b" d="M 15.5,22.5 C 17.1667,22.5 18.8333,22.5 20.5,22.5C 20.5,25.1667 20.5,27.8333 20.5,30.5C 18.5328,30.7394 16.6995,30.4061 15,29.5C 14.9822,27.2028 15.1489,24.8695 15.5,22.5 Z M 17.5,23.5 C 18.7733,24.0768 18.7733,24.7435 17.5,25.5C 16.537,25.0302 16.537,24.3635 17.5,23.5 Z M 17.5,26.5 C 18.7733,27.0768 18.7733,27.7435 17.5,28.5C 16.537,28.0302 16.537,27.3635 17.5,26.5 Z"/></g>
<g><path style="opacity:0.6" fill="#5c5c5a" d="M 21.5,22.5 C 23.5,22.5 25.5,22.5 27.5,22.5C 27.8134,25.2469 27.48,27.9135 26.5,30.5C 25.1667,22.5 23.8333,22.5 22.5,30.5C 21.52,27.9135 21.1866,25.2469 21.5,22.5 Z"/></g>
<g><path style="opacity:0.688" fill="#5d5d5a" d="M 39.5,22.5 C 41.7224,22.178 43.5557,22.8446 45,24.5C 50.8364,21.1603 52.6697,22.8269 50.5,29.5C 48.3886,30.8485 46.5553,30.5152 45,28.5C 43.5341,30.3249 41.7008,30.8249 39.5,30C 38.2215,27.5024 38.2215,25.0024 39.5,22.5 Z M 40.5,24.5 C 45.0122,25.2801 45.3455,26.6135 41.5,28.5C 40.5713,27.3112 40.238,25.9778 40.5,24.5 Z M 47.5,24.5 C 48.5862,24.62 49.2528,25.2867 49.5,26.5C 48.6964,28.9573 47.6964,28.9573 46.5,26.5C 46.8627,25.8165 47.1961,25.1499 47.5,24.5 Z"/></g>
<g><path style="opacity:0.695" fill="#5d5d5a" d="M 65.5,19.5 C 67.0481,19.8212 67.7148,20.8212 67.5,22.5C 69.3904,22.2965 70.8904,22.9632 72,24.5C 77.6277,21.1083 79.6277,22.775 78,29.5C 75.7328,30.9348 73.7328,30.6015 72,28.5C 70.2111,30.229 68.0444,30.8957 65.5,30.5C 65.5,26.8333 65.5,23.1667 65.5,19.5 Z M 67.5,24.5 C 68.5862,24.62 69.2528,25.2867 69.5,26.5C 69.1667,27.1667 68.8333,27.8333 68.5,28.5C 67.5713,27.3112 67.238,25.9778 67.5,24.5 Z M 74.5,24.5 C 75.5862,24.62 76.2528,25.2867 76.5,26.5C 75.5752,28.8495 74.5752,28.6828 73.5,26C 74.056,25.6174 74.3893,25.1174 74.5,24.5 Z"/></g>
<g><path style="opacity:0.675" fill="#5c5c5a" d="M 79.5,22.5 C 82.5,22.5 85.5,22.5 88.5,22.5C 88.2317,25.1194 88.565,27.6194 89.5,30C 87.5273,30.4955 85.5273,30.6621 83.5,30.5C 83.5347,21.4398 82.5347,21.4398 80.5,30.5C 79.52,27.9135 79.1866,25.2469 79.5,22.5 Z"/></g>
<g><path style="opacity:0.646" fill="#5d5d5a" d="M 97.5,22.5 C 100.044,22.1043 102.211,22.771 104,24.5C 105.401,22.8078 107.234,22.1412 109.5,22.5C 109.665,25.8499 109.498,29.1832 109,32.5C 105.448,33.9716 103.782,32.6383 104,28.5C 103.692,29.3081 103.192,29.9747 102.5,30.5C 100.737,22.7128 99.4037,22.7128 98.5,30.5C 97.52,27.9135 97.1866,25.2469 97.5,22.5 Z M 106.5,23.5 C 107.613,24.9464 107.78,26.6131 107,28.5C 105.212,26.9769 105.045,25.3102 106.5,23.5 Z"/></g>
<g><path style="opacity:0.69" fill="#5d5d5a" d="M 114.5,22.5 C 120.245,21.8255 121.911,24.1588 119.5,29.5C 113.834,30.4727 112.167,28.1394 114.5,22.5 Z M 116.5,24.5 C 117.586,24.62 118.253,25.2867 118.5,26.5C 117.575,28.8495 116.575,28.6828 115.5,26C 116.056,25.6174 116.389,25.1174 116.5,24.5 Z"/></g>
<g><path style="opacity:0.558" fill="#5c5c5a" d="M 121.5,22.5 C 126.82,22.4263 128.82,25.0929 127.5,30.5C 126.5,30.5 125.5,30.5 124.5,30.5C 124.473,22.6064 123.807,22.6064 122.5,30.5C 121.52,27.9135 121.187,25.2469 121.5,22.5 Z"/></g>
<g><path style="opacity:0.674" fill="#5d5d5a" d="M 135.5,22.5 C 139.4,21.9914 141.733,23.6581 142.5,27.5C 142.807,26.1125 142.807,24.4458 142.5,22.5C 144.167,22.5 145.833,22.5 147.5,22.5C 146.877,25.0003 146.543,27.5003 146.5,30C 142.995,29.8963 139.329,30.063 135.5,30.5C 135.5,27.8333 135.5,25.1667 135.5,22.5 Z"/></g>
<g><path style="opacity:0.668" fill="#5d5d59" d="M 192.5,22.5 C 194.167,22.5 195.833,22.5 197.5,22.5C 197.813,25.2469 197.48,27.9135 196.5,30.5C 195.692,28.5767 195.192,26.5767 195,24.5C 194.808,26.5767 194.308,28.5767 193.5,30.5C 192.52,27.9135 192.187,25.2469 192.5,22.5 Z"/></g>
<g><path style="opacity:0.693" fill="#5c5c5a" d="M 199.5,19.5 C 201.117,20.5893 201.95,22.256 202,24.5C 207.836,21.1603 209.67,22.8269 207.5,29.5C 205.389,30.8485 203.555,30.5152 202,28.5C 201.692,29.3081 201.192,29.9747 200.5,30.5C 199.511,26.8927 199.177,23.226 199.5,19.5 Z M 204.5,24.5 C 205.586,24.62 206.253,25.2867 206.5,26.5C 205.575,28.8495 204.575,28.6828 203.5,26C 204.056,25.6174 204.389,25.1174 204.5,24.5 Z"/></g>
<g><path style="opacity:0.661" fill="#5d5d5a" d="M 215.5,29.5 C 213.735,30.4614 211.735,30.7947 209.5,30.5C 209.5,27.8333 209.5,25.1667 209.5,22.5C 211.167,22.5 212.833,22.5 214.5,22.5C 214.198,25.0593 214.532,27.3926 215.5,29.5 Z"/></g>
<g><path style="opacity:0.641" fill="#5c5c5a" d="M 263.5,22.5 C 265.167,22.5 266.833,22.5 268.5,22.5C 268.5,25.1667 268.5,27.8333 268.5,30.5C 266.533,30.7394 264.699,30.4061 263,29.5C 263.362,27.1071 263.529,24.7738 263.5,22.5 Z M 265.5,26.5 C 266.773,27.0768 266.773,27.7435 265.5,28.5C 264.537,28.0302 264.537,27.3635 265.5,26.5 Z"/></g>
<g><path style="opacity:0.251" fill="#5c5c58" d="M 94.5,22.5 C 95.7479,23.3339 96.4146,24.6672 96.5,26.5C 96.1667,27.8333 95.8333,29.1667 95.5,30.5C 94.52,27.9135 94.1866,25.2469 94.5,22.5 Z"/></g>
<g><path style="opacity:0.251" fill="#5c5c59" d="M 229.5,20.5 C 231.121,20.7869 232.121,21.7869 232.5,23.5C 231.75,25.9302 231.417,28.2635 231.5,30.5C 229.869,28.9412 229.036,26.9412 229,24.5C 228.808,26.5767 228.308,28.5767 227.5,30.5C 226.52,27.9135 226.187,25.2469 226.5,22.5C 228.179,22.7148 229.179,22.0481 229.5,20.5 Z"/></g>
<g><path style="opacity:0.585" fill="#5c5c5a" d="M 236.5,22.5 C 238.5,22.5 240.5,22.5 242.5,22.5C 242.813,25.2469 242.48,27.9135 241.5,30.5C 240.167,22.5 238.833,22.5 237.5,30.5C 236.52,27.9135 236.187,25.2469 236.5,22.5 Z"/></g>
<g><path style="opacity:0.669" fill="#5d5d5a" d="M 249.5,23.5 C 249.662,25.5273 249.495,27.5273 249,29.5C 247.612,30.5536 246.112,30.7203 244.5,30C 241.999,24.0999 243.666,21.9332 249.5,23.5 Z M 245.5,24.5 C 246.586,24.62 247.253,25.2867 247.5,26.5C 247.167,27.1667 246.833,27.8333 246.5,28.5C 245.571,27.3112 245.238,25.9778 245.5,24.5 Z"/></g>
<g><path style="opacity:0.654" fill="#5d5d5b" d="M 249.5,23.5 C 250.91,22.1716 252.076,22.5049 253,24.5C 254,21.8333 255,21.8333 256,24.5C 256.725,22.842 257.892,22.342 259.5,23C 258.729,25.577 257.729,28.077 256.5,30.5C 255.167,27.8333 253.833,27.8333 252.5,30.5C 251.34,28.125 250.34,25.7917 249.5,23.5 Z"/></g>
<g><path style="opacity:0.598" fill="#5d5d59" d="M 59.5,22.5 C 61.1439,22.2865 62.6439,22.6198 64,23.5C 64.4966,25.8098 64.6633,28.1432 64.5,30.5C 62.5328,30.7394 60.6995,30.4061 59,29.5C 59.3624,27.1071 59.5291,24.7738 59.5,22.5 Z M 61.5,26.5 C 62.7733,27.0768 62.7733,27.7435 61.5,28.5C 60.537,28.0302 60.537,27.3635 61.5,26.5 Z"/></g>
<g><path style="opacity:0.438" fill="#5c5c5a" d="M 161.5,28.5 C 163.337,28.6395 163.67,29.3061 162.5,30.5C 161.702,30.0431 161.369,29.3764 161.5,28.5 Z"/></g>
</svg>
