<?xml version="1.0" encoding="UTF-8"?>
<!DOCTYPE svg PUBLIC "-//W3C//DTD SVG 1.1//EN" "http://www.w3.org/Graphics/SVG/1.1/DTD/svg11.dtd">
<svg xmlns="http://www.w3.org/2000/svg" version="1.1" width="40px" height="40px" style="shape-rendering:geometricPrecision; text-rendering:geometricPrecision; image-rendering:optimizeQuality; fill-rule:evenodd; clip-rule:evenodd" xmlns:xlink="http://www.w3.org/1999/xlink">
<g><path style="opacity:0.825" fill="#fefffe" d="M 14.5,2.5 C 30.3154,1.48134 37.4821,8.81468 36,24.5C 29.8969,36.9584 20.7303,39.7917 8.5,33C 1.56536,25.4875 0.732023,17.3209 6,8.5C 8.63709,6.10896 11.4704,4.10896 14.5,2.5 Z M 18.5,7.5 C 20.7271,8.40058 21.7271,10.0672 21.5,12.5C 20.1667,12.5 18.8333,12.5 17.5,12.5C 17.6287,10.7839 17.962,9.11723 18.5,7.5 Z M 13.5,8.5 C 13.3969,11.5644 12.0636,12.5644 9.5,11.5C 10.4669,10.016 11.8002,9.01603 13.5,8.5 Z M 25.5,8.5 C 27.1998,9.01603 28.5331,10.016 29.5,11.5C 26.9364,12.5644 25.6031,11.5644 25.5,8.5 Z M 6.5,16.5 C 8.16667,16.5 9.83333,16.5 11.5,16.5C 11.5,18.5 11.5,20.5 11.5,22.5C 9.83333,22.5 8.16667,22.5 6.5,22.5C 6.5,20.5 6.5,18.5 6.5,16.5 Z M 15.5,16.5 C 18.1667,16.5 20.8333,16.5 23.5,16.5C 23.5,18.5 23.5,20.5 23.5,22.5C 20.8333,22.5 18.1667,22.5 15.5,22.5C 15.5,20.5 15.5,18.5 15.5,16.5 Z M 27.5,16.5 C 29.1667,16.5 30.8333,16.5 32.5,16.5C 32.5,18.5 32.5,20.5 32.5,22.5C 30.8333,22.5 29.1667,22.5 27.5,22.5C 27.5,20.5 27.5,18.5 27.5,16.5 Z M 13.5,30.5 C 11.8002,29.984 10.4669,28.984 9.5,27.5C 12.0636,26.4356 13.3969,27.4356 13.5,30.5 Z M 17.5,26.5 C 18.8333,26.5 20.1667,26.5 21.5,26.5C 20.5255,32.8882 19.1921,32.8882 17.5,26.5 Z M 25.5,30.5 C 25.6031,27.4356 26.9364,26.4356 29.5,27.5C 28.5331,28.984 27.1998,29.984 25.5,30.5 Z"/></g>
</svg>
