<?xml version="1.0" encoding="UTF-8"?>
<!DOCTYPE svg PUBLIC "-//W3C//DTD SVG 1.1//EN" "http://www.w3.org/Graphics/SVG/1.1/DTD/svg11.dtd">
<svg xmlns="http://www.w3.org/2000/svg" version="1.1" width="40px" height="28px" style="shape-rendering:geometricPrecision; text-rendering:geometricPrecision; image-rendering:optimizeQuality; fill-rule:evenodd; clip-rule:evenodd" xmlns:xlink="http://www.w3.org/1999/xlink">
<g><path style="opacity:0.898" fill="#fefffe" d="M 15.5,-0.5 C 18.1667,-0.5 20.8333,-0.5 23.5,-0.5C 29.5612,9.3027 26.8945,13.8027 15.5,13C 11.5413,8.5015 11.5413,4.0015 15.5,-0.5 Z"/></g>
<g><path style="opacity:0.839" fill="#fefffe" d="M 2.5,3.5 C 9.15843,2.34448 11.1584,4.84448 8.5,11C 1.74962,12.4689 -0.250379,9.9689 2.5,3.5 Z"/></g>
<g><path style="opacity:0.839" fill="#fefffe" d="M 30.5,3.5 C 37.1584,2.34448 39.1584,4.84448 36.5,11C 29.7496,12.4689 27.7496,9.9689 30.5,3.5 Z"/></g>
<g><path style="opacity:0.862" fill="#fefffe" d="M 10.5,15.5 C 9.83333,15.5 9.5,15.8333 9.5,16.5C 8.83333,16.5 8.5,16.8333 8.5,17.5C 7.83333,17.5 7.5,17.8333 7.5,18.5C 6.59603,19.209 6.26269,20.209 6.5,21.5C 4.16667,21.5 1.83333,21.5 -0.5,21.5C -0.5,19.1667 -0.5,16.8333 -0.5,14.5C 3.56217,12.8243 7.22884,13.1576 10.5,15.5 Z"/></g>
<g><path style="opacity:0.868" fill="#fefffe" d="M 39.5,14.5 C 39.5,16.8333 39.5,19.1667 39.5,21.5C 37.1667,21.5 34.8333,21.5 32.5,21.5C 32.7373,20.209 32.404,19.209 31.5,18.5C 31.5,17.8333 31.1667,17.5 30.5,17.5C 30.5,16.8333 30.1667,16.5 29.5,16.5C 29.5,15.8333 29.1667,15.5 28.5,15.5C 31.7712,13.1576 35.4378,12.8243 39.5,14.5 Z"/></g>
<g><path style="opacity:0.937" fill="#fefffe" d="M 10.5,15.5 C 16.5,16.8333 22.5,16.8333 28.5,15.5C 29.1667,15.5 29.5,15.8333 29.5,16.5C 30.1667,16.5 30.5,16.8333 30.5,17.5C 31.1667,17.5 31.5,17.8333 31.5,18.5C 31.7359,21.6085 31.4025,24.6085 30.5,27.5C 22.8333,27.5 15.1667,27.5 7.5,27.5C 7.5,24.5 7.5,21.5 7.5,18.5C 8.16667,18.5 8.5,18.1667 8.5,17.5C 9.16667,17.5 9.5,17.1667 9.5,16.5C 10.1667,16.5 10.5,16.1667 10.5,15.5 Z"/></g>
</svg>
