<?xml version="1.0" encoding="UTF-8"?>
<!DOCTYPE svg PUBLIC "-//W3C//DTD SVG 1.1//EN" "http://www.w3.org/Graphics/SVG/1.1/DTD/svg11.dtd">
<svg xmlns="http://www.w3.org/2000/svg" version="1.1" width="40px" height="40px" style="shape-rendering:geometricPrecision; text-rendering:geometricPrecision; image-rendering:optimizeQuality; fill-rule:evenodd; clip-rule:evenodd" xmlns:xlink="http://www.w3.org/1999/xlink">
<g><path style="opacity:0.929" fill="#fefffe" d="M 16.5,4.5 C 23.1739,5.27946 29.5072,7.27946 35.5,10.5C 36.4977,18.4723 36.831,26.4723 36.5,34.5C 33.5,34.5 30.5,34.5 27.5,34.5C 27.5,29.5 27.5,24.5 27.5,19.5C 22.1667,19.5 16.8333,19.5 11.5,19.5C 11.5,24.5 11.5,29.5 11.5,34.5C 8.5,34.5 5.5,34.5 2.5,34.5C 2.16897,26.4723 2.5023,18.4723 3.5,10.5C 8.04373,8.72479 12.3771,6.72479 16.5,4.5 Z"/></g>
<g><path style="opacity:0.688" fill="#fefffe" d="M 17.5,25.5 C 18.8333,25.5 20.1667,25.5 21.5,25.5C 21.5,26.8333 21.5,28.1667 21.5,29.5C 20.1667,29.5 18.8333,29.5 17.5,29.5C 17.5,28.1667 17.5,26.8333 17.5,25.5 Z"/></g>
<g><path style="opacity:0.712" fill="#fefffe" d="M 14.5,30.5 C 15.8333,30.5 17.1667,30.5 18.5,30.5C 18.5,31.8333 18.5,33.1667 18.5,34.5C 17.1667,34.5 15.8333,34.5 14.5,34.5C 14.5,33.1667 14.5,31.8333 14.5,30.5 Z"/></g>
<g><path style="opacity:0.712" fill="#fefffe" d="M 20.5,30.5 C 21.8333,30.5 23.1667,30.5 24.5,30.5C 24.5,31.8333 24.5,33.1667 24.5,34.5C 23.1667,34.5 21.8333,34.5 20.5,34.5C 20.5,33.1667 20.5,31.8333 20.5,30.5 Z"/></g>
</svg>
