<?xml version="1.0" encoding="UTF-8"?>
<!DOCTYPE svg PUBLIC "-//W3C//DTD SVG 1.1//EN" "http://www.w3.org/Graphics/SVG/1.1/DTD/svg11.dtd">
<svg xmlns="http://www.w3.org/2000/svg" version="1.1" width="40px" height="40px" style="shape-rendering:geometricPrecision; text-rendering:geometricPrecision; image-rendering:optimizeQuality; fill-rule:evenodd; clip-rule:evenodd" xmlns:xlink="http://www.w3.org/1999/xlink">
<g><path style="opacity:0.666" fill="#fefffe" d="M 30.5,-0.5 C 30.8333,-0.5 31.1667,-0.5 31.5,-0.5C 32.4782,1.81156 34.1448,3.47822 36.5,4.5C 34.1921,5.64113 32.3587,7.30779 31,9.5C 29.8333,7 28,5.16667 25.5,4C 28.2865,3.71223 29.9532,2.21223 30.5,-0.5 Z"/></g>
<g><path style="opacity:0.925" fill="#fefffe" d="M 10.5,2.5 C 24.0038,2.16247 29.1704,8.4958 26,21.5C 25.044,22.5786 24.2106,23.7453 23.5,25C 18.2825,26.5628 12.9491,26.8962 7.5,26C 2.53756,22.4569 0.704231,17.6236 2,11.5C 3.68784,7.31481 6.52117,4.31481 10.5,2.5 Z"/></g>
<g><path style="opacity:0.609" fill="#fefffe" d="M 39.5,12.5 C 39.5,12.8333 39.5,13.1667 39.5,13.5C 38.2058,14.2899 37.0391,15.2899 36,16.5C 35.5,14.6667 34.3333,13.5 32.5,13C 33.6667,11.8333 34.8333,10.6667 36,9.5C 37.0391,10.7101 38.2058,11.7101 39.5,12.5 Z"/></g>
<g><path style="opacity:0.767" fill="#fefffe" d="M 7.5,27.5 C 12.1667,27.5 16.8333,27.5 21.5,27.5C 21.5,28.8333 21.5,30.1667 21.5,31.5C 16.8333,31.5 12.1667,31.5 7.5,31.5C 7.5,30.1667 7.5,28.8333 7.5,27.5 Z"/></g>
<g><path style="opacity:0.663" fill="#fefffe" d="M 10.5,32.5 C 13.2469,32.1866 15.9135,32.52 18.5,33.5C 15.2105,37.6747 12.5439,37.3414 10.5,32.5 Z"/></g>
</svg>
