<?xml version="1.0" encoding="UTF-8"?>
<!DOCTYPE svg PUBLIC "-//W3C//DTD SVG 1.1//EN" "http://www.w3.org/Graphics/SVG/1.1/DTD/svg11.dtd">
<svg xmlns="http://www.w3.org/2000/svg" version="1.1" width="31px" height="24px" style="shape-rendering:geometricPrecision; text-rendering:geometricPrecision; image-rendering:optimizeQuality; fill-rule:evenodd; clip-rule:evenodd" xmlns:xlink="http://www.w3.org/1999/xlink">
<g><path style="opacity:0.81" fill="#fefffe" d="M 14.5,-0.5 C 14.8333,-0.5 15.1667,-0.5 15.5,-0.5C 17.1032,0.596413 18.6032,1.92975 20,3.5C 20.4101,2.0993 20.9101,0.765972 21.5,-0.5C 22.5,-0.5 23.5,-0.5 24.5,-0.5C 24.269,4.70502 26.269,8.70502 30.5,11.5C 30.5,11.8333 30.5,12.1667 30.5,12.5C 29.2106,14.248 27.7106,14.5814 26,13.5C 25.5017,16.8168 25.335,20.1501 25.5,23.5C 22.8333,23.5 20.1667,23.5 17.5,23.5C 17.5,21.5 17.5,19.5 17.5,17.5C 16.1667,17.5 14.8333,17.5 13.5,17.5C 13.6747,19.6208 13.3414,21.6208 12.5,23.5C 10.1667,23.5 7.83333,23.5 5.5,23.5C 4.74846,20.2527 4.24846,16.9194 4,13.5C 1.17117,14.6745 0.171174,13.6745 1,10.5C 5.39861,6.59066 9.89861,2.924 14.5,-0.5 Z"/></g>
</svg>
