<?xml version="1.0" encoding="UTF-8"?>
<!DOCTYPE svg PUBLIC "-//W3C//DTD SVG 1.1//EN" "http://www.w3.org/Graphics/SVG/1.1/DTD/svg11.dtd">
<svg xmlns="http://www.w3.org/2000/svg" version="1.1" width="40px" height="40px" style="shape-rendering:geometricPrecision; text-rendering:geometricPrecision; image-rendering:optimizeQuality; fill-rule:evenodd; clip-rule:evenodd" xmlns:xlink="http://www.w3.org/1999/xlink">
<g><path style="opacity:0.889" fill="#fefffe" d="M 2.5,5.5 C 11.5062,5.33356 20.5062,5.50023 29.5,6C 30,6.5 30.5,7 31,7.5C 31.7903,13.5522 31.6236,19.5522 30.5,25.5C 21.1845,26.6654 11.8511,26.8321 2.5,26C 2,25.5 1.5,25 1,24.5C 0.333333,18.8333 0.333333,13.1667 1,7.5C 1.71719,6.9558 2.21719,6.28913 2.5,5.5 Z M 14.5,11.5 C 20.6506,12.1029 21.984,14.9362 18.5,20C 13.5454,21.3758 11.3787,19.5425 12,14.5C 13.045,13.6266 13.8783,12.6266 14.5,11.5 Z"/></g>
<g><path style="opacity:0.812" fill="#fefffe" d="M 34.5,10.5 C 35.8333,10.5 37.1667,10.5 38.5,10.5C 38.6663,17.5079 38.4996,24.5079 38,31.5C 37.5,32 37,32.5 36.5,33C 26.172,33.4998 15.8387,33.6665 5.5,33.5C 5.5,32.1667 5.5,30.8333 5.5,29.5C 15.1667,29.5 24.8333,29.5 34.5,29.5C 34.5,23.1667 34.5,16.8333 34.5,10.5 Z"/></g>
</svg>
