<?xml version="1.0" encoding="UTF-8"?>
<!DOCTYPE svg PUBLIC "-//W3C//DTD SVG 1.1//EN" "http://www.w3.org/Graphics/SVG/1.1/DTD/svg11.dtd">
<svg xmlns="http://www.w3.org/2000/svg" version="1.1" width="335px" height="16px" style="shape-rendering:geometricPrecision; text-rendering:geometricPrecision; image-rendering:optimizeQuality; fill-rule:evenodd; clip-rule:evenodd" xmlns:xlink="http://www.w3.org/1999/xlink">
<g><path style="opacity:0.6" fill="#020202" d="M 0.5,1.5 C 2.43309,2.64166 3.93309,4.30833 5,6.5C 5.2022,4.7444 5.7022,3.07774 6.5,1.5C 7.83333,5.16667 7.83333,8.83333 6.5,12.5C 4.85389,11.2214 3.68722,9.5547 3,7.5C 2.7978,9.2556 2.2978,10.9223 1.5,12.5C 0.510775,8.89272 0.177442,5.22605 0.5,1.5 Z"/></g>
<g><path style="opacity:0.607" fill="#020202" d="M 26.5,1.5 C 28.0481,1.82124 28.7148,2.82124 28.5,4.5C 29.8221,4.33003 30.9887,4.66337 32,5.5C 33.9,10.9134 32.0666,13.2468 26.5,12.5C 26.5,8.83333 26.5,5.16667 26.5,1.5 Z M 28.5,6.5 C 29.5862,6.61998 30.2528,7.28665 30.5,8.5C 30.1667,9.16667 29.8333,9.83333 29.5,10.5C 28.5713,9.31116 28.238,7.97782 28.5,6.5 Z"/></g>
<g><path style="opacity:0.539" fill="#020202" d="M 48.5,1.5 C 51.2776,1.02166 53.2776,2.02166 54.5,4.5C 54.1667,4.83333 53.8333,5.16667 53.5,5.5C 52.5,4.83333 51.5,4.16667 50.5,3.5C 49.1667,5.83333 49.1667,8.16667 50.5,10.5C 53.2029,8.61719 55.7029,6.61719 58,4.5C 59.1074,4.58524 60.1074,4.91858 61,5.5C 62.198,11.9688 60.0313,13.6355 54.5,10.5C 49.9229,13.8515 47.2562,12.6848 46.5,7C 47.0769,5.09994 47.7435,3.26661 48.5,1.5 Z M 57.5,5.5 C 59.898,6.8823 60.0647,8.54897 58,10.5C 56.2116,8.97686 56.0449,7.3102 57.5,5.5 Z"/></g>
<g><path style="opacity:0.537" fill="#020202" d="M 79.5,1.5 C 80.7868,2.87135 81.4535,4.70469 81.5,7C 81.1667,8.83333 80.8333,10.6667 80.5,12.5C 79.5108,8.89272 79.1774,5.22605 79.5,1.5 Z"/></g>
<g><path style="opacity:0.606" fill="#020202" d="M 89.5,2.5 C 91.1207,2.7869 92.1207,3.7869 92.5,5.5C 91.1667,7.5 91.1667,9.5 92.5,11.5C 91.7261,12.7112 90.8928,12.7112 90,11.5C 89.6667,9.83333 89.3333,8.16667 89,6.5C 88.5172,7.44802 88.3505,8.44802 88.5,9.5C 83.2063,9.68216 83.2063,10.1822 88.5,11C 85.0251,13.4707 83.0251,12.6374 82.5,8.5C 82.7195,4.64745 84.5529,3.64745 88,5.5C 89.0386,4.75618 89.5386,3.75618 89.5,2.5 Z"/></g>
<g><path style="opacity:0.558" fill="#020202" d="M 9.5,4.5 C 11.1667,4.5 12.8333,4.5 14.5,4.5C 14.6633,6.85684 14.4966,9.19018 14,11.5C 12.3333,12.8333 10.6667,12.8333 9,11.5C 8.29669,9.07085 8.46336,6.73752 9.5,4.5 Z M 10.5,6.5 C 11.5862,6.61998 12.2528,7.28665 12.5,8.5C 12.1667,9.16667 11.8333,9.83333 11.5,10.5C 10.5713,9.31116 10.238,7.97782 10.5,6.5 Z"/></g>
<g><path style="opacity:0.583" fill="#020202" d="M 15.5,4.5 C 18.5184,4.33537 21.5184,4.50204 24.5,5C 25.7766,7.46585 25.7766,9.96585 24.5,12.5C 23.1667,4.5 21.8333,4.5 20.5,12.5C 19.1667,4.5 17.8333,4.5 16.5,12.5C 15.52,9.91355 15.1866,7.24688 15.5,4.5 Z"/></g>
<g><path style="opacity:0.576" fill="#020202" d="M 33.5,4.5 C 36.5184,4.33537 39.5184,4.50204 42.5,5C 43.2461,7.09319 43.5795,9.09319 43.5,11C 42.0696,12.4404 40.403,12.7737 38.5,12C 37.7362,9.93066 37.2362,7.76399 37,5.5C 35.9568,7.70056 35.1235,10.0339 34.5,12.5C 33.52,9.91355 33.1866,7.24688 33.5,4.5 Z"/></g>
<g><path style="opacity:0.569" fill="#020202" d="M 62.5,4.5 C 65.5,4.5 68.5,4.5 71.5,4.5C 71.8134,7.24688 71.48,9.91355 70.5,12.5C 69.1667,4.5 67.8333,4.5 66.5,12.5C 65.6858,10.2338 65.1858,7.90049 65,5.5C 63.6299,14.5423 62.7965,14.209 62.5,4.5 Z"/></g>
<g><path style="opacity:0.585" fill="#020202" d="M 74.5,15.5 C 73.8333,15.5 73.1667,15.5 72.5,15.5C 72.5,11.8333 72.5,8.16667 72.5,4.5C 74.5,4.5 76.5,4.5 78.5,4.5C 78.6633,6.85684 78.4966,9.19018 78,11.5C 76.9887,12.3366 75.8221,12.67 74.5,12.5C 74.5,13.5 74.5,14.5 74.5,15.5 Z M 74.5,6.5 C 75.5862,6.61998 76.2528,7.28665 76.5,8.5C 76.1667,9.16667 75.8333,9.83333 75.5,10.5C 74.5713,9.31116 74.238,7.97782 74.5,6.5 Z"/></g>
<g><path style="opacity:0.54" fill="#020202" d="M 93.5,4.5 C 99.3133,4.06197 100.98,6.56197 98.5,12C 95.1861,13.1647 93.1861,11.9981 92.5,8.5C 93.2458,7.26381 93.5792,5.93047 93.5,4.5 Z M 95.5,6.5 C 96.5862,6.61998 97.2528,7.28665 97.5,8.5C 97.1667,9.16667 96.8333,9.83333 96.5,10.5C 95.5713,9.31116 95.238,7.97782 95.5,6.5 Z"/></g>
</svg>
