<?xml version="1.0" encoding="UTF-8"?>
<!DOCTYPE svg PUBLIC "-//W3C//DTD SVG 1.1//EN" "http://www.w3.org/Graphics/SVG/1.1/DTD/svg11.dtd">
<svg xmlns="http://www.w3.org/2000/svg" version="1.1" width="335px" height="16px" style="shape-rendering:geometricPrecision; text-rendering:geometricPrecision; image-rendering:optimizeQuality; fill-rule:evenodd; clip-rule:evenodd" xmlns:xlink="http://www.w3.org/1999/xlink">
<g><path style="opacity:0.494" fill="#010101" d="M -0.5,1.5 C 0.5,1.5 1.5,1.5 2.5,1.5C 2.85807,13.4288 3.85807,13.4288 5.5,1.5C 6.65695,4.78437 6.82362,8.11771 6,11.5C 3.58595,12.8557 1.41928,12.5224 -0.5,10.5C -0.5,7.5 -0.5,4.5 -0.5,1.5 Z"/></g>
<g><path style="opacity:0.338" fill="#020202" d="M 32.5,1.5 C 33.3764,1.36912 34.0431,1.70245 34.5,2.5C 32.1916,3.87342 31.5249,3.54009 32.5,1.5 Z"/></g>
<g><path style="opacity:0.507" fill="#020202" d="M 8.5,4.5 C 10.1439,4.28649 11.6439,4.61983 13,5.5C 13.2046,7.58247 13.0379,9.74913 12.5,12C 10.8876,12.7203 9.38762,12.5536 8,11.5C 7.54392,10.2559 8.04392,9.42258 9.5,9C 7.45232,7.77413 7.11899,6.27413 8.5,4.5 Z"/></g>
<g><path style="opacity:0.539" fill="#020202" d="M 14.5,4.5 C 16.1644,5.94881 16.9977,7.94881 17,10.5C 17.4955,8.5273 17.6621,6.5273 17.5,4.5C 18.5,4.5 19.5,4.5 20.5,4.5C 20.8333,9.83333 21.1667,9.83333 21.5,4.5C 23.1667,4.5 24.8333,4.5 26.5,4.5C 26.5,7.16667 26.5,9.83333 26.5,12.5C 22.6007,11.6341 18.6007,11.6341 14.5,12.5C 14.5,9.83333 14.5,7.16667 14.5,4.5 Z M 23.5,5.5 C 24.7733,6.07683 24.7733,6.7435 23.5,7.5C 22.537,7.03017 22.537,6.3635 23.5,5.5 Z M 23.5,8.5 C 24.7733,9.07683 24.7733,9.7435 23.5,10.5C 22.537,10.0302 22.537,9.3635 23.5,8.5 Z"/></g>
<g><path style="opacity:0.575" fill="#030303" d="M 27.5,4.5 C 28.9778,4.23798 30.3112,4.57131 31.5,5.5C 30.1189,7.63485 29.1189,9.96818 28.5,12.5C 27.52,9.91355 27.1866,7.24688 27.5,4.5 Z"/></g>
<g><path style="opacity:0.539" fill="#020202" d="M 32.5,4.5 C 33.7498,4.57735 34.5831,5.24402 35,6.5C 40.6277,3.10833 42.6277,4.775 41,11.5C 38.2242,13.1397 36.2242,12.473 35,9.5C 34.7508,10.624 34.2508,11.624 33.5,12.5C 32.52,9.91355 32.1866,7.24688 32.5,4.5 Z M 37.5,6.5 C 38.5862,6.61998 39.2528,7.28665 39.5,8.5C 39.1667,9.16667 38.8333,9.83333 38.5,10.5C 37.5713,9.31116 37.238,7.97782 37.5,6.5 Z"/></g>
</svg>
