<?xml version="1.0" encoding="UTF-8"?>
<!DOCTYPE svg PUBLIC "-//W3C//DTD SVG 1.1//EN" "http://www.w3.org/Graphics/SVG/1.1/DTD/svg11.dtd">
<svg xmlns="http://www.w3.org/2000/svg" version="1.1" width="335px" height="16px" style="shape-rendering:geometricPrecision; text-rendering:geometricPrecision; image-rendering:optimizeQuality; fill-rule:evenodd; clip-rule:evenodd" xmlns:xlink="http://www.w3.org/1999/xlink">
<g><path style="opacity:0.498" fill="#020202" d="M 7.5,5.5 C 11.5388,5.65484 15.2054,5.65484 18.5,5.5C 17.6258,7.7466 17.2924,10.0799 17.5,12.5C 15.8762,12.6399 14.7096,11.9733 14,10.5C 11.8404,13.0806 9.67369,13.0806 7.5,10.5C 4.31308,13.3619 1.64642,13.0285 -0.5,9.5C -0.5,7.83333 -0.5,6.16667 -0.5,4.5C 0.660275,1.86723 2.66027,1.0339 5.5,2C 6.82277,2.81595 7.48944,3.98261 7.5,5.5 Z M 7.5,5.5 C 7.26399,7.97319 5.93066,9.63986 3.5,10.5C 2.16667,8.16667 2.16667,5.83333 3.5,3.5C 4.62235,4.63023 5.95568,5.29689 7.5,5.5 Z M 10.5,5.5 C 12.6033,7.0183 12.77,8.68497 11,10.5C 9.21156,8.97686 9.04489,7.3102 10.5,5.5 Z"/></g>
<g><path style="opacity:0.571" fill="#020202" d="M 40.5,1.5 C 46.6966,1.32505 47.3633,2.32505 42.5,4.5C 46.3354,5.99646 46.3354,6.99646 42.5,7.5C 42.5,8.5 42.5,9.5 42.5,10.5C 43.9778,10.238 45.3112,10.5713 46.5,11.5C 44.604,12.4656 42.604,12.7989 40.5,12.5C 40.5,8.83333 40.5,5.16667 40.5,1.5 Z"/></g>
<g><path style="opacity:0.597" fill="#030303" d="M 47.5,1.5 C 48.7868,2.87135 49.4535,4.70469 49.5,7C 49.1667,8.83333 48.8333,10.6667 48.5,12.5C 47.5108,8.89272 47.1774,5.22605 47.5,1.5 Z"/></g>
<g><path style="opacity:0.392" fill="#030303" d="M 85.5,1.5 C 87.337,1.63945 87.6704,2.30612 86.5,3.5C 85.7025,3.04311 85.3691,2.37644 85.5,1.5 Z"/></g>
<g><path style="opacity:0.575" fill="#020202" d="M 63.5,2.5 C 65.1207,2.7869 66.1207,3.7869 66.5,5.5C 65.7498,7.93018 65.4165,10.2635 65.5,12.5C 63.8693,10.9412 63.036,8.94122 63,6.5C 61.6054,7.81457 60.6054,7.48123 60,5.5C 58.3676,7.02677 58.2009,8.69344 59.5,10.5C 61.9358,9.10908 62.6025,9.60908 61.5,12C 58.1667,11.3333 54.8333,11.3333 51.5,12C 50.565,9.6194 50.2317,7.1194 50.5,4.5C 52.5914,4.31845 54.5914,4.65178 56.5,5.5C 59.3451,5.2343 61.6784,4.2343 63.5,2.5 Z"/></g>
<g><path style="opacity:0.56" fill="#020202" d="M 19.5,4.5 C 24.0948,4.8544 28.5948,4.8544 33,4.5C 36.0673,5.40197 37.0673,7.40197 36,10.5C 33.916,13.033 31.916,13.033 30,10.5C 25.2781,13.8401 22.7781,12.5068 22.5,6.5C 21.8333,8.5 21.1667,10.5 20.5,12.5C 19.52,9.91355 19.1866,7.24688 19.5,4.5 Z M 32.5,5.5 C 34.6033,7.0183 34.77,8.68497 33,10.5C 31.2116,8.97686 31.0449,7.3102 32.5,5.5 Z"/></g>
<g><path style="opacity:0.566" fill="#020202" d="M 67.5,4.5 C 70.7312,5.3678 74.0645,5.3678 77.5,4.5C 77.6633,6.85684 77.4966,9.19018 77,11.5C 75.3333,12.8333 73.6667,12.8333 72,11.5C 71.7978,9.7444 71.2978,8.07774 70.5,6.5C 69.8333,8.5 69.1667,10.5 68.5,12.5C 67.52,9.91355 67.1866,7.24688 67.5,4.5 Z M 73.5,6.5 C 74.5862,6.61998 75.2528,7.28665 75.5,8.5C 75.1667,9.16667 74.8333,9.83333 74.5,10.5C 73.5713,9.31116 73.238,7.97782 73.5,6.5 Z"/></g>
<g><path style="opacity:0.536" fill="#020202" d="M 78.5,4.5 C 80.5,4.5 82.5,4.5 84.5,4.5C 84.8134,7.24688 84.48,9.91355 83.5,12.5C 82.1667,4.5 80.8333,4.5 79.5,12.5C 78.52,9.91355 78.1866,7.24688 78.5,4.5 Z"/></g>
<g><path style="opacity:0.52" fill="#020202" d="M 85.5,4.5 C 86.7479,5.3339 87.4146,6.66723 87.5,8.5C 87.1667,9.83333 86.8333,11.1667 86.5,12.5C 85.52,9.91355 85.1866,7.24688 85.5,4.5 Z"/></g>
<g><path style="opacity:0.544" fill="#020202" d="M 89.5,4.5 C 91.7224,4.17798 93.5557,4.84464 95,6.5C 100.836,3.16027 102.67,4.82693 100.5,11.5C 98.3886,12.8485 96.5553,12.5152 95,10.5C 93.5341,12.3249 91.7008,12.8249 89.5,12C 88.2215,9.50241 88.2215,7.00241 89.5,4.5 Z M 90.5,6.5 C 95.0122,7.28014 95.3455,8.61348 91.5,10.5C 90.5713,9.31116 90.238,7.97782 90.5,6.5 Z M 97.5,6.5 C 98.5862,6.61998 99.2528,7.28665 99.5,8.5C 98.6964,10.9573 97.6964,10.9573 96.5,8.5C 96.8627,7.81654 97.1961,7.14987 97.5,6.5 Z"/></g>
</svg>
