<?xml version="1.0" encoding="UTF-8"?>
<!DOCTYPE svg PUBLIC "-//W3C//DTD SVG 1.1//EN" "http://www.w3.org/Graphics/SVG/1.1/DTD/svg11.dtd">
<svg xmlns="http://www.w3.org/2000/svg" version="1.1" width="335px" height="16px" style="shape-rendering:geometricPrecision; text-rendering:geometricPrecision; image-rendering:optimizeQuality; fill-rule:evenodd; clip-rule:evenodd" xmlns:xlink="http://www.w3.org/1999/xlink">
<g><path style="opacity:0.523" fill="#020202" d="M 7.5,5.5 C 10.0088,3.84285 12.1755,4.17618 14,6.5C 17.0765,5.09703 20.2432,3.7637 23.5,2.5C 27.2807,5.12619 31.2807,5.79286 35.5,4.5C 35.5,7.16667 35.5,9.83333 35.5,12.5C 30.6241,13.5956 28.9574,11.9289 30.5,7.5C 29.675,6.61432 28.675,6.28099 27.5,6.5C 27.5,8.5 27.5,10.5 27.5,12.5C 25.8333,12.5 24.1667,12.5 22.5,12.5C 21.629,3.29864 20.629,3.29864 19.5,12.5C 18.1934,4.60636 17.5267,4.60636 17.5,12.5C 15.8762,12.6399 14.7096,11.9733 14,10.5C 11.8404,13.0806 9.67369,13.0806 7.5,10.5C 4.31308,13.3619 1.64642,13.0285 -0.5,9.5C -0.5,7.83333 -0.5,6.16667 -0.5,4.5C 0.660275,1.86723 2.66027,1.0339 5.5,2C 6.82277,2.81595 7.48944,3.98261 7.5,5.5 Z M 7.5,5.5 C 7.26399,7.97319 5.93066,9.63986 3.5,10.5C 2.16667,8.16667 2.16667,5.83333 3.5,3.5C 4.62235,4.63023 5.95568,5.29689 7.5,5.5 Z M 10.5,5.5 C 12.6033,7.0183 12.77,8.68497 11,10.5C 9.21156,8.97686 9.04489,7.3102 10.5,5.5 Z M 32.5,5.5 C 33.7733,6.07683 33.7733,6.7435 32.5,7.5C 31.537,7.03017 31.537,6.3635 32.5,5.5 Z M 32.5,8.5 C 33.7733,9.07683 33.7733,9.7435 32.5,10.5C 31.537,10.0302 31.537,9.3635 32.5,8.5 Z"/></g>
<g><path style="opacity:0.507" fill="#020202" d="M 50.5,1.5 C 51.9778,1.23798 53.3112,1.57131 54.5,2.5C 52.9255,3.63088 51.2588,3.79755 49.5,3C 50.056,2.61742 50.3893,2.11742 50.5,1.5 Z"/></g>
<g><path style="opacity:0.543" fill="#020202" d="M 37.5,4.5 C 39.7224,4.17798 41.5557,4.84464 43,6.5C 44.4007,4.80784 46.2341,4.14118 48.5,4.5C 48.5,7.16667 48.5,9.83333 48.5,12.5C 46.2341,12.8588 44.4007,12.1922 43,10.5C 41.5341,12.3249 39.7008,12.8249 37.5,12C 38.0292,9.80186 38.0292,7.30186 37.5,4.5 Z M 45.5,5.5 C 46.7733,6.07683 46.7733,6.7435 45.5,7.5C 44.537,7.03017 44.537,6.3635 45.5,5.5 Z"/></g>
<g><path style="opacity:0.543" fill="#020202" d="M 49.5,4.5 C 55.3668,4.20559 57.0334,6.87226 54.5,12.5C 53.1667,4.5 51.8333,4.5 50.5,12.5C 49.52,9.91355 49.1866,7.24688 49.5,4.5 Z"/></g>
<g><path style="opacity:0.509" fill="#010101" d="M 56.5,4.5 C 61.8196,4.42627 63.8196,7.09294 62.5,12.5C 60.5,12.5 58.5,12.5 56.5,12.5C 56.5,9.83333 56.5,7.16667 56.5,4.5 Z"/></g>
</svg>
