<?xml version="1.0" encoding="UTF-8"?>
<!DOCTYPE svg PUBLIC "-//W3C//DTD SVG 1.1//EN" "http://www.w3.org/Graphics/SVG/1.1/DTD/svg11.dtd">
<svg xmlns="http://www.w3.org/2000/svg" version="1.1" width="165px" height="50px" style="shape-rendering:geometricPrecision; text-rendering:geometricPrecision; image-rendering:optimizeQuality; fill-rule:evenodd; clip-rule:evenodd" xmlns:xlink="http://www.w3.org/1999/xlink">
<g><path style="opacity:0.495" fill="#030203" d="M 5.5,-0.5 C 56.5,-0.5 107.5,-0.5 158.5,-0.5C 160.833,1.16667 162.833,3.16667 164.5,5.5C 164.5,18.1667 164.5,30.8333 164.5,43.5C 162.833,45.8333 160.833,47.8333 158.5,49.5C 107.5,49.5 56.5,49.5 5.5,49.5C 3.16667,47.8333 1.16667,45.8333 -0.5,43.5C -0.5,30.8333 -0.5,18.1667 -0.5,5.5C 1.16667,3.16667 3.16667,1.16667 5.5,-0.5 Z"/></g>
<g><path style="opacity:1" fill="#cfa5f8" d="M 6.5,0.5 C 56.8344,0.333341 107.168,0.500007 157.5,1C 160,2.16667 161.833,4 163,6.5C 163.667,18.5 163.667,30.5 163,42.5C 161.833,45 160,46.8333 157.5,48C 107.167,48.6667 56.8333,48.6667 6.5,48C 4,46.8333 2.16667,45 1,42.5C 0.333333,30.5 0.333333,18.5 1,6.5C 2.35968,3.97739 4.19301,1.97739 6.5,0.5 Z"/></g>
</svg>
