<?xml version="1.0" encoding="UTF-8"?>
<!DOCTYPE svg PUBLIC "-//W3C//DTD SVG 1.1//EN" "http://www.w3.org/Graphics/SVG/1.1/DTD/svg11.dtd">
<svg xmlns="http://www.w3.org/2000/svg" version="1.1" width="200px" height="200px" style="shape-rendering:geometricPrecision; text-rendering:geometricPrecision; image-rendering:optimizeQuality; fill-rule:evenodd; clip-rule:evenodd" xmlns:xlink="http://www.w3.org/1999/xlink">
<g><path style="opacity:0.31" fill="#cdc7e1" d="M 104.5,27.5 C 104.5,27.1667 104.5,26.8333 104.5,26.5C 104.672,25.5084 104.338,24.8417 103.5,24.5C 103.306,22.0882 101.973,21.0882 99.5,21.5C 98.1667,20.1667 96.8333,20.1667 95.5,21.5C 94.5084,21.3284 93.8417,21.6618 93.5,22.5C 92.8333,22.5 92.5,22.8333 92.5,23.5C 91.8333,23.5 91.5,23.8333 91.5,24.5C 90.1667,25.5 90.1667,26.5 91.5,27.5C 91.5,28.5 91.5,29.5 91.5,30.5C 90.1667,31.1667 90.1667,31.8333 91.5,32.5C 91.5,33.1667 91.8333,33.5 92.5,33.5C 92.5,34.1667 92.8333,34.5 93.5,34.5C 93.5,34.8333 93.5,35.1667 93.5,35.5C 90.1471,34.4876 88.4805,32.1542 88.5,28.5C 89.6488,20.6003 93.9821,17.767 101.5,20C 105.861,22.2258 107.361,25.7258 106,30.5C 105.768,29.2625 105.268,28.2625 104.5,27.5 Z M 99.5,21.5 C 101.973,21.0882 103.306,22.0882 103.5,24.5C 102.128,23.4884 100.795,22.4884 99.5,21.5 Z M 96.5,26.5 C 97.7965,27.8488 97.6298,29.1821 96,30.5C 95.4209,29.0715 95.5876,27.7382 96.5,26.5 Z"/></g>
<g><path style="opacity:1" fill="#53428c" d="M 163.5,25.5 C 162.167,25.5 160.833,25.5 159.5,25.5C 157.62,25.2291 156.287,25.8958 155.5,27.5C 152.514,24.938 152.847,22.7713 156.5,21C 161.199,19.2871 163.532,20.7871 163.5,25.5 Z"/></g>
<g><path style="opacity:1" fill="#383174" d="M 130.5,27.5 C 128.781,28.0221 127.448,29.0221 126.5,30.5C 124.8,29.984 123.467,28.984 122.5,27.5C 125.125,26.9158 127.792,26.9158 130.5,27.5 Z"/></g>
<g><path style="opacity:1" fill="#ec91a1" d="M 159.5,25.5 C 161.301,28.2258 160.634,29.8924 157.5,30.5C 156.833,30.1667 156.167,29.8333 155.5,29.5C 155.5,28.8333 155.5,28.1667 155.5,27.5C 156.287,25.8958 157.62,25.2291 159.5,25.5 Z"/></g>
<g><path style="opacity:0.624" fill="#d3c6e7" d="M 54.5,26.5 C 95.7983,28.1624 95.7983,29.1624 54.5,29.5C 54.5,28.5 54.5,27.5 54.5,26.5 Z"/></g>
<g><path style="opacity:1" fill="#8d5981" d="M 159.5,25.5 C 160.833,25.5 162.167,25.5 163.5,25.5C 163.5,25.8333 163.5,26.1667 163.5,26.5C 161.831,29.0339 160.164,31.7006 158.5,34.5C 157.566,33.4324 157.232,32.099 157.5,30.5C 160.634,29.8924 161.301,28.2258 159.5,25.5 Z"/></g>
<g><path style="opacity:1" fill="#cbb0f3" d="M 36.5,20.5 C 40.3912,20.8921 42.3912,23.0587 42.5,27C 41.4371,33.6917 37.7704,35.6917 31.5,33C 30.1007,31.9384 29.1007,30.605 28.5,29C 30.9407,25.948 33.6073,23.1147 36.5,20.5 Z"/></g>
<g><path style="opacity:1" fill="#c7aef1" d="M 95.5,21.5 C 96.8333,21.5 98.1667,21.5 99.5,21.5C 100.795,22.4884 102.128,23.4884 103.5,24.5C 103.328,25.4916 103.662,26.1583 104.5,26.5C 104.5,26.8333 104.5,27.1667 104.5,27.5C 104.371,36.0212 100.704,38.6879 93.5,35.5C 94.8333,35.1667 94.8333,34.8333 93.5,34.5C 92.8333,34.5 92.5,34.1667 92.5,33.5C 91.8333,33.5 91.5,33.1667 91.5,32.5C 91.5,31.8333 91.5,31.1667 91.5,30.5C 91.5,29.5 91.5,28.5 91.5,27.5C 91.5,26.5 91.5,25.5 91.5,24.5C 92.1667,24.5 92.5,24.1667 92.5,23.5C 93.1667,23.5 93.5,23.1667 93.5,22.5C 94.4916,22.6716 95.1583,22.3382 95.5,21.5 Z M 96.5,26.5 C 95.5876,27.7382 95.4209,29.0715 96,30.5C 97.6298,29.1821 97.7965,27.8488 96.5,26.5 Z"/></g>
<g><path style="opacity:1" fill="#685ebf" d="M 130.5,27.5 C 131.947,29.4032 133.614,31.0699 135.5,32.5C 135.833,33.1667 136.167,33.8333 136.5,34.5C 135.472,34.9258 134.139,34.9258 132.5,34.5C 131.21,35.0577 130.377,36.0577 130,37.5C 128.82,35.1401 127.653,32.8068 126.5,30.5C 127.448,29.0221 128.781,28.0221 130.5,27.5 Z"/></g>
<g><path style="opacity:0.125" fill="#d6cdda" d="M 135.5,32.5 C 137.848,32.5923 139.514,33.5923 140.5,35.5C 139.833,35.5 139.5,35.8333 139.5,36.5C 138.778,35.4489 137.778,34.7822 136.5,34.5C 136.167,33.8333 135.833,33.1667 135.5,32.5 Z"/></g>
<g><path style="opacity:1" fill="#e98e9c" d="M 163.5,26.5 C 163.5,27.8333 163.5,29.1667 163.5,30.5C 163.607,32.9032 162.607,34.7365 160.5,36C 159.184,36.5281 158.517,36.0281 158.5,34.5C 160.164,31.7006 161.831,29.0339 163.5,26.5 Z"/></g>
<g><path style="opacity:1" fill="#9e9be0" d="M 132.5,34.5 C 134.139,34.9258 135.472,34.9258 136.5,34.5C 137.778,34.7822 138.778,35.4489 139.5,36.5C 139.5,36.8333 139.5,37.1667 139.5,37.5C 137.488,36.9862 135.488,36.8195 133.5,37C 134.056,37.3826 134.389,37.8826 134.5,38.5C 132.824,37.8166 132.157,36.4832 132.5,34.5 Z"/></g>
<g><path style="opacity:1" fill="#6d5ab8" d="M 155.5,29.5 C 156.167,29.8333 156.833,30.1667 157.5,30.5C 157.232,32.099 157.566,33.4324 158.5,34.5C 158.517,36.0281 159.184,36.5281 160.5,36C 162.607,34.7365 163.607,32.9032 163.5,30.5C 165.84,31.086 168.007,32.086 170,33.5C 171.298,41.1405 172.464,48.8072 173.5,56.5C 168.977,58.6481 164.31,58.9814 159.5,57.5C 159.264,54.0861 158.598,50.7527 157.5,47.5C 153.471,45.8259 149.471,44.1593 145.5,42.5C 145.5,41.1667 145.5,39.8333 145.5,38.5C 143.027,38.9118 141.694,37.9118 141.5,35.5C 146.167,33.5 150.833,31.5 155.5,29.5 Z"/></g>
<g><path style="opacity:1" fill="#e6a3aa" d="M 140.5,35.5 C 140.833,35.5 141.167,35.5 141.5,35.5C 141.694,37.9118 143.027,38.9118 145.5,38.5C 145.5,39.8333 145.5,41.1667 145.5,42.5C 143.597,42.2041 141.93,41.5375 140.5,40.5C 140.938,40.5654 141.272,40.3988 141.5,40C 140.934,39.0053 140.267,38.172 139.5,37.5C 139.5,37.1667 139.5,36.8333 139.5,36.5C 140.167,36.5 140.5,36.1667 140.5,35.5 Z"/></g>
<g><path style="opacity:0.439" fill="#625bb0" d="M 139.5,37.5 C 140.267,38.172 140.934,39.0053 141.5,40C 141.272,40.3988 140.938,40.5654 140.5,40.5C 138.214,40.405 136.214,39.7384 134.5,38.5C 134.389,37.8826 134.056,37.3826 133.5,37C 135.488,36.8195 137.488,36.9862 139.5,37.5 Z"/></g>
<g><path style="opacity:1" fill="#c0a9f1" d="M 86.5,44.5 C 87.8698,46.2504 88.8698,48.2504 89.5,50.5C 89.7512,52.1703 90.4178,53.6703 91.5,55C 97.1667,55.6667 102.833,55.6667 108.5,55C 109.056,54.6174 109.389,54.1174 109.5,53.5C 110.791,51.051 111.791,48.3844 112.5,45.5C 117.183,44.2805 121.85,44.2805 126.5,45.5C 128.559,47.2604 129.892,49.5938 130.5,52.5C 129.833,52.5 129.167,52.5 128.5,52.5C 128.617,50.5165 127.95,48.8498 126.5,47.5C 125.869,50.6947 124.869,53.028 123.5,54.5C 123.167,53.1667 122.833,53.1667 122.5,54.5C 122.5,55.1667 122.167,55.5 121.5,55.5C 119.167,55.5 116.833,55.5 114.5,55.5C 114.778,53.6536 114.111,52.3202 112.5,51.5C 111.772,53.1932 110.772,54.6932 109.5,56C 104.177,56.4994 98.8437,56.666 93.5,56.5C 93.5,57.5 93.5,58.5 93.5,59.5C 97.7441,59.3711 101.744,59.7044 105.5,60.5C 100.868,61.3283 96.2018,61.8283 91.5,62C 92.0253,62.6924 92.6919,63.1924 93.5,63.5C 95.4506,62.7439 97.2839,62.4106 99,62.5C 98.536,64.1934 97.7026,65.8601 96.5,67.5C 89.6457,67.176 82.979,67.5093 76.5,68.5C 75.1529,69.1712 73.9862,69.1712 73,68.5C 72.5005,62.5092 72.3338,56.5092 72.5,50.5C 73.2279,48.2654 74.5612,46.4321 76.5,45C 79.8168,44.5017 83.1501,44.335 86.5,44.5 Z"/></g>
<g><path style="opacity:1" fill="#2e2c6a" d="M 86.5,44.5 C 86.5,44.1667 86.5,43.8333 86.5,43.5C 99.5043,43.3334 112.504,43.5001 125.5,44C 126.056,44.3826 126.389,44.8826 126.5,45.5C 121.85,44.2805 117.183,44.2805 112.5,45.5C 111.791,48.3844 110.791,51.051 109.5,53.5C 103.201,51.7559 96.5345,50.7559 89.5,50.5C 88.8698,48.2504 87.8698,46.2504 86.5,44.5 Z"/></g>
<g><path style="opacity:1" fill="#bfa7f4" d="M 128.5,52.5 C 128.832,87.0041 128.498,121.337 127.5,155.5C 125.744,150.349 124.578,145.015 124,139.5C 123.209,116.809 123.376,94.1428 124.5,71.5C 125.478,71.189 126.145,70.5223 126.5,69.5C 125.305,68.0325 125.305,66.5325 126.5,65C 126.095,64.0546 125.428,63.3879 124.5,63C 126.62,61.4773 126.953,59.6439 125.5,57.5C 124.051,56.8281 122.718,56.1614 121.5,55.5C 122.167,55.5 122.5,55.1667 122.5,54.5C 122.833,54.5 123.167,54.5 123.5,54.5C 124.869,53.028 125.869,50.6947 126.5,47.5C 127.95,48.8498 128.617,50.5165 128.5,52.5 Z"/></g>
<g><path style="opacity:0.749" fill="#d5c5ec" d="M 43.5,55.5 C 40.3704,55.6997 37.3704,56.3664 34.5,57.5C 34.7496,56.0779 35.583,55.0779 37,54.5C 37.6667,55.8333 38.3333,55.8333 39,54.5C 39.1675,49.8275 38.8342,45.1609 38,40.5C 36.9264,39.3816 35.7598,38.3816 34.5,37.5C 34.8333,37.1667 35.1667,36.8333 35.5,36.5C 37.3231,37.4909 38.8231,38.8243 40,40.5C 40.4992,45.1548 40.6658,49.8215 40.5,54.5C 41.791,54.2627 42.791,54.596 43.5,55.5 Z"/></g>
<g><path style="opacity:1" fill="#312f84" d="M 89.5,50.5 C 96.5345,50.7559 103.201,51.7559 109.5,53.5C 109.389,54.1174 109.056,54.6174 108.5,55C 102.833,55.6667 97.1667,55.6667 91.5,55C 90.4178,53.6703 89.7512,52.1703 89.5,50.5 Z"/></g>
<g><path style="opacity:1" fill="#bea5f2" d="M 121.5,55.5 C 122.718,56.1614 124.051,56.8281 125.5,57.5C 126.953,59.6439 126.62,61.4773 124.5,63C 125.428,63.3879 126.095,64.0546 126.5,65C 125.305,66.5325 125.305,68.0325 126.5,69.5C 126.145,70.5223 125.478,71.189 124.5,71.5C 124.144,69.8102 123.144,68.8102 121.5,68.5C 113.35,67.5073 105.017,67.1739 96.5,67.5C 97.7026,65.8601 98.536,64.1934 99,62.5C 97.2839,62.4106 95.4506,62.7439 93.5,63.5C 92.6919,63.1924 92.0253,62.6924 91.5,62C 96.2018,61.8283 100.868,61.3283 105.5,60.5C 101.744,59.7044 97.7441,59.3711 93.5,59.5C 93.5,58.5 93.5,57.5 93.5,56.5C 98.8437,56.666 104.177,56.4994 109.5,56C 110.772,54.6932 111.772,53.1932 112.5,51.5C 114.111,52.3202 114.778,53.6536 114.5,55.5C 116.833,55.5 119.167,55.5 121.5,55.5 Z"/></g>
<g><path style="opacity:1" fill="#c8b0f2" d="M 43.5,55.5 C 45.5,55.5 47.5,55.5 49.5,55.5C 47.7816,56.224 45.9483,56.8906 44,57.5C 43.3333,62.5 43.3333,67.5 44,72.5C 49.4162,73.6389 54.9162,73.8056 60.5,73C 55.9944,69.6096 50.9944,67.7762 45.5,67.5C 51.8333,67.5 58.1667,67.5 64.5,67.5C 63.0484,68.3019 61.3817,68.8019 59.5,69C 61.0368,70.1096 61.7035,71.6096 61.5,73.5C 63.6208,73.3253 65.6208,73.6586 67.5,74.5C 67.5,75.8333 67.5,77.1667 67.5,78.5C 65.5441,76.8516 63.2108,76.1849 60.5,76.5C 51.0144,75.5062 41.3478,75.1729 31.5,75.5C 24.4524,75.9874 19.7857,72.9874 17.5,66.5C 17.9404,63.7862 19.2738,61.6195 21.5,60C 25.6879,58.3693 30.0212,57.5359 34.5,57.5C 37.3704,56.3664 40.3704,55.6997 43.5,55.5 Z"/></g>
<g><path style="opacity:0.937" fill="#cbb7e8" d="M 106.5,57.5 C 108.857,57.3367 111.19,57.5034 113.5,58C 114.337,59.0113 114.67,60.1779 114.5,61.5C 113.178,61.67 112.011,61.3366 111,60.5C 110.671,64.0397 108.838,65.2064 105.5,64C 106.448,63.5172 107.448,63.3505 108.5,63.5C 107.833,61.5 107.167,59.5 106.5,57.5 Z"/></g>
<g><path style="opacity:1" fill="#fb768d" d="M 173.5,56.5 C 172.036,68.4474 171.369,80.4474 171.5,92.5C 170.167,92.5 168.833,92.5 167.5,92.5C 166.616,89.9768 165.782,87.3102 165,84.5C 164.281,88.1454 163.781,91.8121 163.5,95.5C 162.355,92.3219 161.022,89.3219 159.5,86.5C 159.5,76.8333 159.5,67.1667 159.5,57.5C 164.31,58.9814 168.977,58.6481 173.5,56.5 Z"/></g>
<g><path style="opacity:1" fill="#a489e0" d="M 67.5,52.5 C 67.5,59.8333 67.5,67.1667 67.5,74.5C 65.6208,73.6586 63.6208,73.3253 61.5,73.5C 61.7035,71.6096 61.0368,70.1096 59.5,69C 61.3817,68.8019 63.0484,68.3019 64.5,67.5C 64.67,66.1779 64.3366,65.0113 63.5,64C 57.5,63.3333 51.5,63.3333 45.5,64C 46.6843,65.1455 46.6843,66.3121 45.5,67.5C 50.9944,67.7762 55.9944,69.6096 60.5,73C 54.9162,73.8056 49.4162,73.6389 44,72.5C 43.3333,67.5 43.3333,62.5 44,57.5C 45.9483,56.8906 47.7816,56.224 49.5,55.5C 55.1667,55.5 60.8333,55.5 66.5,55.5C 66.2627,54.209 66.596,53.209 67.5,52.5 Z M 64.5,67.5 C 58.1667,67.5 51.8333,67.5 45.5,67.5C 46.6843,66.3121 46.6843,65.1455 45.5,64C 51.5,63.3333 57.5,63.3333 63.5,64C 64.3366,65.0113 64.67,66.1779 64.5,67.5 Z M 63.5,60.5 C 57.8333,60.5 52.1667,60.5 46.5,60.5C 48.9151,59.1858 51.7485,58.5191 55,58.5C 58.2515,58.5191 61.0849,59.1858 63.5,60.5 Z"/></g>
<g><path style="opacity:0.125" fill="#ccc3ef" d="M 63.5,60.5 C 61.0849,59.1858 58.2515,58.5191 55,58.5C 51.7485,58.5191 48.9151,59.1858 46.5,60.5C 45.596,59.791 45.2627,58.791 45.5,57.5C 51.8333,57.5 58.1667,57.5 64.5,57.5C 64.7373,58.791 64.404,59.791 63.5,60.5 Z M 63.5,60.5 C 57.8333,60.5 52.1667,60.5 46.5,60.5C 48.9151,59.1858 51.7485,58.5191 55,58.5C 58.2515,58.5191 61.0849,59.1858 63.5,60.5 Z"/></g>
<g><path style="opacity:1" fill="#fc9aae" d="M 147.5,81.5 C 146.833,81.5 146.167,81.5 145.5,81.5C 141.327,82.0436 137.494,81.377 134,79.5C 133.333,75.1667 133.333,70.8333 134,66.5C 147.731,60.8377 153.398,65.171 151,79.5C 150.184,80.8228 149.017,81.4894 147.5,81.5 Z M 140.5,71.5 C 141.586,71.62 142.253,72.2867 142.5,73.5C 142.167,74.1667 141.833,74.8333 141.5,75.5C 140.571,74.3112 140.238,72.9778 140.5,71.5 Z"/></g>
<g><path style="opacity:0.749" fill="#cac0f1" d="M 96.5,67.5 C 105.017,67.1739 113.35,67.5073 121.5,68.5C 107.163,68.3334 92.8295,68.5001 78.5,69C 79.6682,70.4056 79.3348,71.5723 77.5,72.5C 79.3888,74.432 81.3888,76.2653 83.5,78C 80.858,78.2555 79.0247,77.0888 78,74.5C 77.5065,76.1341 77.3398,77.8008 77.5,79.5C 76.5184,76.0381 76.185,72.3714 76.5,68.5C 82.979,67.5093 89.6457,67.176 96.5,67.5 Z"/></g>
<g><path style="opacity:0.188" fill="#d5d2e8" d="M 86.5,70.5 C 88.7659,70.1412 90.5993,70.8078 92,72.5C 93,69.8333 94,69.8333 95,72.5C 97.084,69.967 99.084,69.967 101,72.5C 101.414,72.0426 101.914,71.7093 102.5,71.5C 104.115,72.154 105.782,72.654 107.5,73C 107.043,73.414 106.709,73.914 106.5,74.5C 98.8622,75.4975 91.1955,75.8308 83.5,75.5C 83.5,74.5 83.5,73.5 83.5,72.5C 85.1788,72.7148 86.1788,72.0481 86.5,70.5 Z"/></g>
<g><path style="opacity:0.624" fill="#d1c5e8" d="M 31.5,75.5 C 41.3478,75.1729 51.0144,75.5062 60.5,76.5C 55.8333,76.5 51.1667,76.5 46.5,76.5C 47.2131,81.3536 48.5464,86.0203 50.5,90.5C 56.2,94.8745 61.5333,99.5412 66.5,104.5C 65.5,104.5 64.5,104.5 63.5,104.5C 58.8613,100.032 54.028,95.6989 49,91.5C 47.2103,86.9221 45.7103,82.2554 44.5,77.5C 40.0178,76.8331 35.6845,76.1664 31.5,75.5 Z"/></g>
<g><path style="opacity:0.234" fill="#dadbee" d="M 96.5,81.5 C 101.595,81.7597 106.595,81.7597 111.5,81.5C 112.795,82.0983 114.128,82.5983 115.5,83C 112.333,83.1667 109.167,83.3333 106,83.5C 102.424,83.4848 99.2575,82.8182 96.5,81.5 Z"/></g>
<g><path style="opacity:0.627" fill="#ada8ce" d="M 87.5,81.5 C 88.675,81.281 89.675,81.6143 90.5,82.5C 89.277,83.6139 87.9437,83.7805 86.5,83C 87.056,82.6174 87.3893,82.1174 87.5,81.5 Z"/></g>
<g><path style="opacity:0.251" fill="#807ba6" d="M 30.5,85.5 C 31.2739,84.8529 32.2739,84.5195 33.5,84.5C 35.3545,84.3402 36.6879,85.0069 37.5,86.5C 35.2362,85.7814 32.9029,85.448 30.5,85.5 Z"/></g>
<g><path style="opacity:1" fill="#3e2e85" d="M 30.5,85.5 C 32.9029,85.448 35.2362,85.7814 37.5,86.5C 38.8333,87.8333 38.8333,89.1667 37.5,90.5C 36.1667,90.5 34.8333,90.5 33.5,90.5C 31.6776,90.8308 30.0109,91.4975 28.5,92.5C 28.7036,90.3146 29.3702,88.3146 30.5,86.5C 30.5,86.1667 30.5,85.8333 30.5,85.5 Z"/></g>
<g><path style="opacity:0.812" fill="#d8d9ed" d="M 98.5,85.5 C 103.765,87.1081 103.598,88.4414 98,89.5C 97.1667,89.1667 96.3333,88.8333 95.5,88.5C 96.3398,87.265 97.3398,86.265 98.5,85.5 Z"/></g>
<g><path style="opacity:0.875" fill="#dae0f1" d="M 106.5,86.5 C 108.824,86.9949 110.991,86.9949 113,86.5C 114.059,86.6301 114.892,87.1301 115.5,88C 111.5,88.6667 107.5,88.6667 103.5,88C 104.737,87.7679 105.737,87.2679 106.5,86.5 Z"/></g>
<g><path style="opacity:0.063" fill="#8880a8" d="M 30.5,86.5 C 29.3702,88.3146 28.7036,90.3146 28.5,92.5C 26.9844,89.9196 27.6511,87.9196 30.5,86.5 Z"/></g>
<g><path style="opacity:0.875" fill="#996b97" d="M 33.5,90.5 C 34.8333,90.5 36.1667,90.5 37.5,90.5C 37.5,92.5 37.5,94.5 37.5,96.5C 36.5084,96.6716 35.8417,96.3382 35.5,95.5C 36.4345,94.4324 36.7678,93.099 36.5,91.5C 35.209,91.7373 34.209,91.404 33.5,90.5 Z"/></g>
<g><path style="opacity:0.857" fill="#e3e6fe" d="M 109.5,91.5 C 112.898,91.1796 116.232,91.513 119.5,92.5C 119.291,93.086 118.957,93.586 118.5,94C 115.518,94.498 112.518,94.6646 109.5,94.5C 109.5,93.5 109.5,92.5 109.5,91.5 Z"/></g>
<g><path style="opacity:0.314" fill="#c6bee3" d="M 145.5,81.5 C 146.167,81.5 146.833,81.5 147.5,81.5C 147.785,83.288 147.452,84.9547 146.5,86.5C 141.398,90.2824 136.064,93.6158 130.5,96.5C 129.167,92.5 129.167,88.5 130.5,84.5C 130.335,87.8499 130.502,91.1832 131,94.5C 135.251,91.9581 139.418,89.2914 143.5,86.5C 144.95,85.1502 145.617,83.4835 145.5,81.5 Z"/></g>
<g><path style="opacity:0.937" fill="#dedde8" d="M 160.5,93.5 C 159.791,94.404 158.791,94.7373 157.5,94.5C 157.5,95.5 157.5,96.5 157.5,97.5C 153.176,97.0728 148.842,96.7395 144.5,96.5C 144.5,96.1667 144.5,95.8333 144.5,95.5C 149.501,92.4254 154.835,91.7587 160.5,93.5 Z"/></g>
<g><path style="opacity:0.125" fill="#c6bafd" d="M 167.5,92.5 C 168.833,92.5 170.167,92.5 171.5,92.5C 171.179,94.0481 170.179,94.7148 168.5,94.5C 168.167,93.8333 167.833,93.1667 167.5,92.5 Z"/></g>
<g><path style="opacity:0.188" fill="#d5def7" d="M 93.5,90.5 C 95.0098,91.7279 96.5098,91.7279 98,90.5C 98.7724,91.8491 99.9391,92.6824 101.5,93C 99.3863,94.518 97.053,94.8513 94.5,94C 93.6634,92.9887 93.33,91.8221 93.5,90.5 Z"/></g>
<g><path style="opacity:0.875" fill="#ce8998" d="M 33.5,90.5 C 34.209,91.404 35.209,91.7373 36.5,91.5C 36.7678,93.099 36.4345,94.4324 35.5,95.5C 32.9361,92.8097 31.2694,93.143 30.5,96.5C 30.1667,96.5 29.8333,96.5 29.5,96.5C 29.5674,95.0413 29.2341,93.7079 28.5,92.5C 30.0109,91.4975 31.6776,90.8308 33.5,90.5 Z"/></g>
<g><path style="opacity:1" fill="#f4a5bd" d="M 159.5,86.5 C 161.022,89.3219 162.355,92.3219 163.5,95.5C 163.5,95.8333 163.5,96.1667 163.5,96.5C 161.735,97.4614 159.735,97.7947 157.5,97.5C 157.5,96.5 157.5,95.5 157.5,94.5C 158.791,94.7373 159.791,94.404 160.5,93.5C 159.781,91.2362 159.448,88.9029 159.5,86.5 Z"/></g>
<g><path style="opacity:0.469" fill="#dfeffa" d="M 168.5,94.5 C 167.448,96.256 165.781,96.9227 163.5,96.5C 163.5,96.1667 163.5,95.8333 163.5,95.5C 165.042,94.6993 166.708,94.366 168.5,94.5 Z"/></g>
<g><path style="opacity:1" fill="#4a3186" d="M 35.5,95.5 C 35.8417,96.3382 36.5084,96.6716 37.5,96.5C 37.5,97.8333 36.8333,98.5 35.5,98.5C 33.7162,98.1075 32.0495,97.4408 30.5,96.5C 31.2694,93.143 32.9361,92.8097 35.5,95.5 Z"/></g>
<g><path style="opacity:1" fill="#e0435c" d="M 29.5,96.5 C 29.8333,96.5 30.1667,96.5 30.5,96.5C 32.0495,97.4408 33.7162,98.1075 35.5,98.5C 35.5,98.8333 35.5,99.1667 35.5,99.5C 33.32,100.794 31.32,100.461 29.5,98.5C 29.5,97.8333 29.5,97.1667 29.5,96.5 Z"/></g>
<g><path style="opacity:1" fill="#bea7f4" d="M 72.5,50.5 C 72.3338,56.5092 72.5005,62.5092 73,68.5C 73.9862,69.1712 75.1529,69.1712 76.5,68.5C 76.185,72.3714 76.5184,76.0381 77.5,79.5C 77.5273,101.292 77.5273,123.292 77.5,145.5C 77.2252,147.842 76.3919,147.842 75,145.5C 74.5078,146.549 74.6744,147.549 75.5,148.5C 74.675,149.386 73.675,149.719 72.5,149.5C 72.3334,131.83 72.5001,114.164 73,96.5C 74.1827,97.731 75.3493,97.731 76.5,96.5C 74.829,95.1643 73.1624,93.831 71.5,92.5C 71.1709,78.3234 71.5042,64.3234 72.5,50.5 Z"/></g>
<g><path style="opacity:1" fill="#f97b92" d="M 29.5,98.5 C 31.32,100.461 33.32,100.794 35.5,99.5C 39.8584,102.233 41.5251,106.233 40.5,111.5C 35.8333,112.833 32.8333,115.833 31.5,120.5C 29.1667,120.5 26.8333,120.5 24.5,120.5C 24.238,121.978 24.5713,123.311 25.5,124.5C 28.152,125.653 30.152,127.487 31.5,130C 33.4727,130.495 35.4727,130.662 37.5,130.5C 37.2053,128.265 37.5386,126.265 38.5,124.5C 38.5,126.833 38.5,129.167 38.5,131.5C 33.0735,131.782 27.7401,131.449 22.5,130.5C 22.5,129.5 22.5,128.5 22.5,127.5C 22.2436,125.208 22.5769,123.041 23.5,121C 21.9194,120.293 20.4194,119.46 19,118.5C 17.7939,111.417 19.6272,105.25 24.5,100C 26.1545,99.3923 27.8211,98.8923 29.5,98.5 Z"/></g>
<g><path style="opacity:1" fill="#eb8a9c" d="M 152.5,110.5 C 152.5,110.167 152.5,109.833 152.5,109.5C 152.284,104.413 154.118,103.413 158,106.5C 158.333,106.167 158.667,105.833 159,105.5C 159.595,106.899 159.428,108.232 158.5,109.5C 161.258,113.117 160.258,115.117 155.5,115.5C 155.279,113.336 154.279,111.67 152.5,110.5 Z"/></g>
<g><path style="opacity:1" fill="#f798b6" d="M 136.5,113.5 C 136.167,114.5 135.5,115.167 134.5,115.5C 130.591,114.57 130.091,113.237 133,111.5C 134.699,111.387 135.866,112.053 136.5,113.5 Z"/></g>
<g><path style="opacity:1" fill="#cfb5f2" d="M 63.5,104.5 C 64.5,104.5 65.5,104.5 66.5,104.5C 66.8333,104.5 67.1667,104.5 67.5,104.5C 67.9349,113.312 67.9349,121.979 67.5,130.5C 65.1432,130.663 62.8098,130.497 60.5,130C 59.944,129.617 59.6107,129.117 59.5,128.5C 56.9322,126.919 55.5989,124.586 55.5,121.5C 53.4972,114.072 56.1639,108.406 63.5,104.5 Z"/></g>
<g><path style="opacity:1" fill="#c9b1ee" d="M 144.5,95.5 C 144.5,95.8333 144.5,96.1667 144.5,96.5C 141.039,97.9298 137.372,99.0965 133.5,100C 132.09,100.368 131.09,101.201 130.5,102.5C 136.427,104.371 139.427,108.371 139.5,114.5C 138.391,114.443 137.391,114.11 136.5,113.5C 135.866,112.053 134.699,111.387 133,111.5C 130.091,113.237 130.591,114.57 134.5,115.5C 135.3,117.573 136.633,119.24 138.5,120.5C 137.821,123.514 136.321,126.18 134,128.5C 133.501,134.491 133.334,140.491 133.5,146.5C 132.883,146.389 132.383,146.056 132,145.5C 131.667,140.5 131.333,135.5 131,130.5C 130.506,132.134 130.34,133.801 130.5,135.5C 129.167,123.5 129.167,111.5 130.5,99.5C 135.079,97.8553 139.746,96.5219 144.5,95.5 Z"/></g>
<g><path style="opacity:1" fill="#453786" d="M 40.5,111.5 C 43.3965,111.125 46.0632,111.625 48.5,113C 47.9341,113.995 47.2674,114.828 46.5,115.5C 45.2264,116.189 45.2264,117.023 46.5,118C 44.6813,118.74 43.3479,119.907 42.5,121.5C 41.2976,122.405 39.9643,122.405 38.5,121.5C 35.9407,121.802 33.6074,121.468 31.5,120.5C 32.8333,115.833 35.8333,112.833 40.5,111.5 Z"/></g>
<g><path style="opacity:1" fill="#f296ac" d="M 46.5,115.5 C 49.9139,117.471 50.2472,119.804 47.5,122.5C 46.5,122.5 45.5,122.5 44.5,122.5C 43.5084,122.672 42.8417,122.338 42.5,121.5C 43.3479,119.907 44.6813,118.74 46.5,118C 45.2264,117.023 45.2264,116.189 46.5,115.5 Z"/></g>
<g><path style="opacity:1" fill="#6a58b1" d="M 172.5,119.5 C 171.493,121.522 169.826,122.855 167.5,123.5C 166.167,123.833 166.167,124.167 167.5,124.5C 167.5,125.5 167.5,126.5 167.5,127.5C 167.548,131.075 165.881,133.409 162.5,134.5C 161.614,135.325 161.281,136.325 161.5,137.5C 164.385,136.618 167.052,135.284 169.5,133.5C 170.488,138.64 170.821,143.974 170.5,149.5C 165.809,149.824 161.142,150.157 156.5,150.5C 154.296,145.248 153.963,139.748 155.5,134C 154.466,129.732 153.133,125.566 151.5,121.5C 146.959,124.194 142.626,123.861 138.5,120.5C 136.633,119.24 135.3,117.573 134.5,115.5C 135.5,115.167 136.167,114.5 136.5,113.5C 137.391,114.11 138.391,114.443 139.5,114.5C 145.106,117.539 149.439,116.206 152.5,110.5C 154.279,111.67 155.279,113.336 155.5,115.5C 160.258,115.117 161.258,113.117 158.5,109.5C 159.428,108.232 159.595,106.899 159,105.5C 158.667,105.833 158.333,106.167 158,106.5C 154.118,103.413 152.284,104.413 152.5,109.5C 151.378,107.712 151.211,105.712 152,103.5C 154.099,102.534 155.932,101.2 157.5,99.5C 158.167,99.8333 158.833,100.167 159.5,100.5C 160.228,103.212 161.061,105.879 162,108.5C 166.154,111.635 169.654,115.302 172.5,119.5 Z"/></g>
<g><path style="opacity:1" fill="#fb5f80" d="M 31.5,120.5 C 33.6074,121.468 35.9407,121.802 38.5,121.5C 38.5,122.5 38.5,123.5 38.5,124.5C 37.5386,126.265 37.2053,128.265 37.5,130.5C 35.4727,130.662 33.4727,130.495 31.5,130C 30.152,127.487 28.152,125.653 25.5,124.5C 24.5713,123.311 24.238,121.978 24.5,120.5C 26.8333,120.5 29.1667,120.5 31.5,120.5 Z"/></g>
<g><path style="opacity:1" fill="#6d57a0" d="M 86.5,43.5 C 86.5,43.8333 86.5,44.1667 86.5,44.5C 83.1501,44.335 79.8168,44.5017 76.5,45C 74.5612,46.4321 73.2279,48.2654 72.5,50.5C 71.5042,64.3234 71.1709,78.3234 71.5,92.5C 71.3334,112.169 71.5,131.836 72,151.5C 72.3838,154.06 73.2171,156.394 74.5,158.5C 73.7611,158.369 73.0944,158.536 72.5,159C 73.7305,160.405 75.0639,161.571 76.5,162.5C 72.2553,161.424 69.4219,158.758 68,154.5C 67.5003,146.507 67.3336,138.507 67.5,130.5C 67.9349,121.979 67.9349,113.312 67.5,104.5C 67.5,95.8333 67.5,87.1667 67.5,78.5C 67.5,77.1667 67.5,75.8333 67.5,74.5C 67.5,67.1667 67.5,59.8333 67.5,52.5C 68.0162,45.4896 71.8496,42.1562 79,42.5C 81.4621,43.1595 83.9621,43.4928 86.5,43.5 Z"/></g>
<g><path style="opacity:1" fill="#f699a8" d="M 172.5,119.5 C 174.281,122.183 174.781,125.183 174,128.5C 172.293,130.037 170.793,131.704 169.5,133.5C 167.052,135.284 164.385,136.618 161.5,137.5C 161.281,136.325 161.614,135.325 162.5,134.5C 165.881,133.409 167.548,131.075 167.5,127.5C 170.167,126.5 170.167,125.5 167.5,124.5C 167.5,124.167 167.5,123.833 167.5,123.5C 169.826,122.855 171.493,121.522 172.5,119.5 Z"/></g>
<g><path style="opacity:0.063" fill="#e8d9f0" d="M 44.5,122.5 C 45.5,122.5 46.5,122.5 47.5,122.5C 47.4003,125.108 48.0669,127.442 49.5,129.5C 47.1099,127.733 45.4432,125.4 44.5,122.5 Z"/></g>
<g><path style="opacity:0.125" fill="#eee7ee" d="M 49.5,129.5 C 50.8333,130.167 50.8333,130.167 49.5,129.5 Z"/></g>
<g><path style="opacity:1" fill="#6454af" d="M 22.5,130.5 C 27.7401,131.449 33.0735,131.782 38.5,131.5C 38.5,135.833 38.5,140.167 38.5,144.5C 36.8958,145.287 36.2291,146.62 36.5,148.5C 33.9208,148.917 31.7542,148.25 30,146.5C 28.1521,148.953 25.6521,149.953 22.5,149.5C 22.5,143.167 22.5,136.833 22.5,130.5 Z"/></g>
<g><path style="opacity:1" fill="#a493da" d="M 128.5,52.5 C 129.167,52.5 129.833,52.5 130.5,52.5C 130.5,63.1667 130.5,73.8333 130.5,84.5C 129.167,88.5 129.167,92.5 130.5,96.5C 130.5,97.5 130.5,98.5 130.5,99.5C 129.167,111.5 129.167,123.5 130.5,135.5C 130.666,141.176 130.499,146.843 130,152.5C 129.76,154.852 128.927,156.852 127.5,158.5C 127.5,157.5 127.5,156.5 127.5,155.5C 128.498,121.337 128.832,87.0041 128.5,52.5 Z"/></g>
<g><path style="opacity:1" fill="#9e81af" d="M 22.5,127.5 C 22.5,128.5 22.5,129.5 22.5,130.5C 22.5,136.833 22.5,143.167 22.5,149.5C 25.6521,149.953 28.1521,148.953 30,146.5C 31.7542,148.25 33.9208,148.917 36.5,148.5C 36.2291,146.62 36.8958,145.287 38.5,144.5C 37.3119,148.557 36.3119,152.557 35.5,156.5C 35.5,154.5 35.5,152.5 35.5,150.5C 33.3792,150.325 31.3792,150.659 29.5,151.5C 29.1667,151.5 28.8333,151.5 28.5,151.5C 26.3926,150.532 24.0593,150.198 21.5,150.5C 21.1746,142.648 21.508,134.982 22.5,127.5 Z"/></g>
<g><path style="opacity:0.875" fill="#d1bfeb" d="M 133.5,146.5 C 143.872,145.2 147.872,149.533 145.5,159.5C 144.571,158.311 144.238,156.978 144.5,155.5C 142.473,155.662 140.473,155.495 138.5,155C 136.937,152.031 135.271,149.198 133.5,146.5 Z M 138.5,149.5 C 141.288,149.077 143.288,150.077 144.5,152.5C 142.604,153.466 140.604,153.799 138.5,153.5C 138.5,152.167 138.5,150.833 138.5,149.5 Z"/></g>
<g><path style="opacity:1" fill="#5a4a9f" d="M 21.5,150.5 C 24.0593,150.198 26.3926,150.532 28.5,151.5C 28.7716,157.079 27.7716,162.412 25.5,167.5C 20.4857,162.791 19.1523,157.125 21.5,150.5 Z"/></g>
<g><path style="opacity:1" fill="#bfaaef" d="M 121.5,68.5 C 123.144,68.8102 124.144,69.8102 124.5,71.5C 123.376,94.1428 123.209,116.809 124,139.5C 124.578,145.015 125.744,150.349 127.5,155.5C 127.5,156.5 127.5,157.5 127.5,158.5C 127.5,159.167 127.167,159.5 126.5,159.5C 125.391,159.557 124.391,159.89 123.5,160.5C 121.283,159.631 118.95,159.298 116.5,159.5C 116.271,157.567 115.438,155.9 114,154.5C 109.482,156.407 104.648,157.074 99.5,156.5C 99.5,154.833 99.5,153.167 99.5,151.5C 104.179,151.666 108.845,151.499 113.5,151C 105.167,150.333 96.8333,150.333 88.5,151C 89.4581,152.147 89.1247,153.147 87.5,154C 90.1667,155.333 90.1667,156.667 87.5,158C 84.6888,157.772 82.1888,157.272 80,156.5C 78.951,158.107 77.451,158.773 75.5,158.5C 75.1667,158.5 74.8333,158.5 74.5,158.5C 73.2171,156.394 72.3838,154.06 72,151.5C 71.5,131.836 71.3334,112.169 71.5,92.5C 73.1624,93.831 74.829,95.1643 76.5,96.5C 75.3493,97.731 74.1827,97.731 73,96.5C 72.5001,114.164 72.3334,131.83 72.5,149.5C 73.675,149.719 74.675,149.386 75.5,148.5C 74.6744,147.549 74.5078,146.549 75,145.5C 76.3919,147.842 77.2252,147.842 77.5,145.5C 78.3636,146.688 79.3636,147.855 80.5,149C 93.5,149.667 106.5,149.667 119.5,149C 120.416,148.626 121.25,148.126 122,147.5C 122.497,145.19 122.663,142.857 122.5,140.5C 122.5,138.5 122.5,136.5 122.5,134.5C 122.826,115.257 122.493,96.0904 121.5,77C 124.061,74.1767 124.061,71.3433 121.5,68.5 Z"/></g>
<g><path style="opacity:0.063" fill="#e6d8e6" d="M 119.5,144.5 C 119.586,145.496 119.252,146.329 118.5,147C 115.167,147.667 111.833,147.667 108.5,147C 107.944,146.617 107.611,146.117 107.5,145.5C 111.566,145.693 115.566,145.36 119.5,144.5 Z"/></g>
<g><path style="opacity:1" fill="#c3b1e5" d="M 95.5,145.5 C 91.9707,147.423 87.9707,148.089 83.5,147.5C 83.5,146.5 83.5,145.5 83.5,144.5C 87.6002,144.237 91.6002,144.57 95.5,145.5 Z"/></g>
<g><path style="opacity:0.376" fill="#e1deeb" d="M 95.5,145.5 C 91.6002,144.57 87.6002,144.237 83.5,144.5C 83.5,145.5 83.5,146.5 83.5,147.5C 81.5935,145.553 80.4268,143.22 80,140.5C 80.8333,141.333 81.6667,142.167 82.5,143C 87.9103,143.56 93.2437,143.56 98.5,143C 97.4293,143.852 96.4293,144.685 95.5,145.5 Z"/></g>
<g><path style="opacity:0.251" fill="#cfc9e9" d="M 88.5,138.5 C 89.9953,138.415 90.9953,139.081 91.5,140.5C 90.1667,141.833 88.8333,141.833 87.5,140.5C 87.8627,139.817 88.1961,139.15 88.5,138.5 Z"/></g>
<g><path style="opacity:0.999" fill="#fca2b7" d="M 108.5,117.5 C 108.369,118.239 108.536,118.906 109,119.5C 111.832,118.214 114.665,118.214 117.5,119.5C 117.681,122.397 117.348,125.23 116.5,128C 118.84,129.97 120.84,132.136 122.5,134.5C 122.5,136.5 122.5,138.5 122.5,140.5C 121.857,142.076 120.857,143.41 119.5,144.5C 115.566,145.36 111.566,145.693 107.5,145.5C 102.604,141.801 101.437,137.134 104,131.5C 106.215,130.345 108.048,128.845 109.5,127C 108.833,124.333 108.167,121.667 107.5,119C 107.57,118.235 107.903,117.735 108.5,117.5 Z"/></g>
<g><path style="opacity:1" fill="#fa9db4" d="M 87.5,101.5 C 87.5,102.5 87.5,103.5 87.5,104.5C 95.4728,104.674 95.4728,105.174 87.5,106C 88.4061,109.184 90.2394,110.017 93,108.5C 93.49,109.793 93.6567,111.127 93.5,112.5C 95.7385,113.542 97.9052,114.875 100,116.5C 102.7,129.621 97.5332,134.787 84.5,132C 82.1853,130.891 80.6853,129.057 80,126.5C 79.3333,123.167 79.3333,119.833 80,116.5C 81.7342,114.549 83.9009,113.549 86.5,113.5C 85.5563,110.194 84.5563,106.861 83.5,103.5C 84.8333,102.833 86.1667,102.167 87.5,101.5 Z"/></g>
<g><path style="opacity:1" fill="#503c90" d="M 117.5,119.5 C 114.665,118.214 111.832,118.214 109,119.5C 108.536,118.906 108.369,118.239 108.5,117.5C 108.414,116.504 108.748,115.671 109.5,115C 111.833,114.333 114.167,114.333 116.5,115C 117.38,116.356 117.714,117.856 117.5,119.5 Z"/></g>
<g><path style="opacity:0.624" fill="#d3d3e4" d="M 99.5,106.5 C 104.875,106.172 110.208,106.505 115.5,107.5C 112.833,107.833 110.167,108.167 107.5,108.5C 104.41,108.478 101.743,107.812 99.5,106.5 Z"/></g>
<g><path style="opacity:1" fill="#eca7bc" d="M 96.5,102.5 C 94.9211,105.609 94.5878,108.776 95.5,112C 94.9056,112.464 94.2389,112.631 93.5,112.5C 93.6567,111.127 93.49,109.793 93,108.5C 90.2394,110.017 88.4061,109.184 87.5,106C 95.4728,105.174 95.4728,104.674 87.5,104.5C 87.5,103.5 87.5,102.5 87.5,101.5C 89.2572,101.007 91.0905,100.673 93,100.5C 93.7096,101.973 94.8762,102.64 96.5,102.5 Z"/></g>
<g><path style="opacity:0.875" fill="#d8d8e6" d="M 106.5,101.5 C 109.797,101.329 110.131,101.995 107.5,103.5C 106.702,103.043 106.369,102.376 106.5,101.5 Z"/></g>
<g><path style="opacity:0.376" fill="#dfe1ea" d="M 99.5,102.5 C 101.364,101.207 103.364,101.207 105.5,102.5C 103.905,103.768 101.905,103.768 99.5,102.5 Z"/></g>
<g><path style="opacity:1" fill="#442c7b" d="M 92.5,95.5 C 93.209,96.404 94.209,96.7373 95.5,96.5C 96.1495,98.4352 96.4828,100.435 96.5,102.5C 94.8762,102.64 93.7096,101.973 93,100.5C 91.0905,100.673 89.2572,101.007 87.5,101.5C 86.1667,102.167 84.8333,102.833 83.5,103.5C 83.5751,100.794 83.9084,98.1272 84.5,95.5C 87.1667,95.5 89.8333,95.5 92.5,95.5 Z"/></g>
<g><path style="opacity:0.251" fill="#d5d7f2" d="M 92.5,95.5 C 99.5079,95.3337 106.508,95.5004 113.5,96C 112.892,96.8699 112.059,97.3699 111,97.5C 105.884,96.5751 100.717,96.2418 95.5,96.5C 94.209,96.7373 93.209,96.404 92.5,95.5 Z"/></g>
<g><path style="opacity:0.397" fill="#d4c8e9" d="M 55.5,121.5 C 55.5989,124.586 56.9322,126.919 59.5,128.5C 58.5041,128.586 57.6708,128.252 57,127.5C 56.6015,133.856 56.9349,140.189 58,146.5C 59.049,148.107 60.549,148.773 62.5,148.5C 62.5,149.5 62.5,150.5 62.5,151.5C 59.5178,151.896 56.8511,151.229 54.5,149.5C 53.3265,164.122 52.4932,164.122 52,149.5C 53.0793,147.606 54.4126,147.273 56,148.5C 55.8356,141.509 55.3356,134.509 54.5,127.5C 54.5046,125.304 54.838,123.304 55.5,121.5 Z"/></g>
<g><path style="opacity:1" fill="#c0a8f3" d="M 123.5,160.5 C 108.672,161.661 93.6723,161.828 78.5,161C 77.0577,160.623 76.0577,159.79 75.5,158.5C 77.451,158.773 78.951,158.107 80,156.5C 82.1888,157.272 84.6888,157.772 87.5,158C 90.1667,156.667 90.1667,155.333 87.5,154C 89.1247,153.147 89.4581,152.147 88.5,151C 96.8333,150.333 105.167,150.333 113.5,151C 108.845,151.499 104.179,151.666 99.5,151.5C 99.5,153.167 99.5,154.833 99.5,156.5C 104.648,157.074 109.482,156.407 114,154.5C 115.438,155.9 116.271,157.567 116.5,159.5C 118.95,159.298 121.283,159.631 123.5,160.5 Z"/></g>
<g><path style="opacity:1" fill="#6c629e" d="M 74.5,158.5 C 74.8333,158.5 75.1667,158.5 75.5,158.5C 76.0577,159.79 77.0577,160.623 78.5,161C 93.6723,161.828 108.672,161.661 123.5,160.5C 124.391,159.89 125.391,159.557 126.5,159.5C 125.264,161.828 123.264,162.994 120.5,163C 105.817,163.707 91.1507,163.54 76.5,162.5C 75.0639,161.571 73.7305,160.405 72.5,159C 73.0944,158.536 73.7611,158.369 74.5,158.5 Z"/></g>
<g><path style="opacity:1" fill="#604ba5" d="M 35.5,156.5 C 35.5,159.833 35.5,163.167 35.5,166.5C 34.8333,169.167 34.1667,171.833 33.5,174.5C 31.5466,173.756 30.5466,172.256 30.5,170C 29.6575,163.862 29.3241,157.695 29.5,151.5C 31.3792,150.659 33.3792,150.325 35.5,150.5C 35.5,152.5 35.5,154.5 35.5,156.5 Z"/></g>
<g><path style="opacity:1" fill="#f7a3ab" d="M 170.5,149.5 C 171.335,156.166 171.835,162.833 172,169.5C 171.311,170.357 170.478,171.023 169.5,171.5C 168.109,165.049 166.276,158.716 164,152.5C 163.779,159.37 163.279,166.203 162.5,173C 164.489,177.181 163.155,179.014 158.5,178.5C 157.167,178.167 155.833,177.833 154.5,177.5C 155.865,176.059 157.365,174.726 159,173.5C 159.444,165.664 158.611,157.998 156.5,150.5C 161.142,150.157 165.809,149.824 170.5,149.5 Z"/></g>
<g><path style="opacity:0.439" fill="#cfc6e3" d="M 96.5,168.5 C 95.8333,168.5 95.5,168.833 95.5,169.5C 94.1667,169.833 94.1667,170.167 95.5,170.5C 95.5,172.167 95.5,173.833 95.5,175.5C 94.5,175.5 93.5,175.5 92.5,175.5C 91.7299,169.797 94.0632,166.63 99.5,166C 98.4293,166.852 97.4293,167.685 96.5,168.5 Z"/></g>
<g><path style="opacity:0.708" fill="#f8b2bf" d="M 35.5,166.5 C 35.1866,169.247 35.52,171.914 36.5,174.5C 41.5792,176.713 41.5792,177.88 36.5,178C 35.2899,176.961 34.2899,175.794 33.5,174.5C 34.1667,171.833 34.8333,169.167 35.5,166.5 Z"/></g>
<g><path style="opacity:0.937" fill="#cdb7f2" d="M 101.5,179.5 C 100.167,180.833 98.8333,180.833 97.5,179.5C 96.3995,178.395 95.7329,177.062 95.5,175.5C 95.5,173.833 95.5,172.167 95.5,170.5C 95.5,170.167 95.5,169.833 95.5,169.5C 96.1667,169.5 96.5,169.167 96.5,168.5C 103.983,165.284 107.317,167.951 106.5,176.5C 104.067,176.273 102.401,177.273 101.5,179.5 Z"/></g>
<g><path style="opacity:0.879" fill="#d5d5db" d="M 97.5,179.5 C 98.8333,180.833 100.167,180.833 101.5,179.5C 120.836,179.333 140.17,179.5 159.5,180C 158.167,181 156.833,182 155.5,183C 118.167,183.667 80.8333,183.667 43.5,183C 42.1667,182 40.8333,181 39.5,180C 58.8305,179.5 78.1638,179.333 97.5,179.5 Z"/></g>
</svg>
